<?xml version="1.0" encoding="utf-8"?>
<!-- Generator: Adobe Illustrator 26.3.1, SVG Export Plug-In . SVG Version: 6.00 Build 0)  -->
<svg version="1.1" id="圖層_1" xmlns="http://www.w3.org/2000/svg" xmlns:xlink="http://www.w3.org/1999/xlink" x="0px" y="0px"
	 viewBox="0 0 30 30" style="enable-background:new 0 0 30 30;" xml:space="preserve">
<style type="text/css">
	.st0{fill:#5C6BC0;}
</style>
<g>
	<circle class="st0" cx="24.6" cy="7.9" r="2.7"/>
	<circle class="st0" cx="16.3" cy="6.7" r="3.8"/>
	<path class="st0" d="M14.1,8.3H3.3C2.6,8.3,2,8.9,2,9.6v10.6c0,0.7,0.6,1.3,1.3,1.3h10.8c0.7,0,1.3-0.6,1.3-1.3V9.6
		C15.4,8.9,14.8,8.3,14.1,8.3z M11.5,12.5H9.3v6.2H8v-6.2h0H5.9v-1.1h5.6V12.5z"/>
	<path class="st0" d="M21.6,11.9h-5.1v9.6c0,0.7-0.6,1.3-1.3,1.3H9.9c0.9,2.3,3.2,3.9,5.8,3.9h0.7c3.4,0,6.2-2.8,6.2-6.2v-7.6
		C22.6,12.3,22.1,11.9,21.6,11.9z"/>
	<path class="st0" d="M26.9,11.8h-3.9c0,0,0,0,0,0c0.5,0,0.9,0.4,0.9,0.9v7.6c0,1-0.2,1.9-0.6,2.7c0.1,0,0.3,0,0.4,0h0.4
		c2.2,0,4-1.8,3.9-4V13C28,12.3,27.5,11.8,26.9,11.8z"/>
</g>
</svg>
