<?xml version="1.0" encoding="utf-8"?>
<!-- Generator: Adobe Illustrator 26.3.1, SVG Export Plug-In . SVG Version: 6.00 Build 0)  -->
<svg version="1.1" id="圖層_1" xmlns="http://www.w3.org/2000/svg" xmlns:xlink="http://www.w3.org/1999/xlink" x="0px" y="0px"
	 viewBox="0 0 30 30" style="enable-background:new 0 0 30 30;" xml:space="preserve">
<style type="text/css">
	.st0{fill:#5c6bc0;}
</style>
<path class="st0" d="M16.5,3C14.6,3,13,4.6,13,6.5c0,0.5,0.1,1,0.3,1.5H4c-1.1,0-2,0.9-2,2v10c0,1.1,0.9,2,2,2h10c1.1,0,2-0.9,2-2
	V10c0,0,0,0,0,0c0.2,0,0.3,0,0.5,0c1.9,0,3.5-1.6,3.5-3.5S18.4,3,16.5,3z M24,5c-1.4,0-2.5,1.1-2.5,2.5S22.6,10,24,10
	s2.5-1.1,2.5-2.5S25.4,5,24,5z M6,11h2.5h1H12v1H9.5v7h-1v-7H6V11z M18,12v8c0,2.2-1.8,4-4,4h-3c1.2,1.8,3.2,3,5.5,3
	c3.6,0,6.5-2.9,6.5-6.5V14c0-1.1-0.9-2-2-2H18z M24.5,12c0.3,0.6,0.5,1.3,0.5,2v6.5c0,0.9-0.1,1.7-0.4,2.4C26.6,22.6,28,21,28,19v-5
	c0-1.1-0.9-2-2-2H24.5z"/>
</svg>
