<?xml version="1.0" encoding="utf-8"?>
<!-- Generator: Adobe Illustrator 25.2.1, SVG Export Plug-In . SVG Version: 6.00 Build 0)  -->
<svg version="1.1" id="圖層_1" xmlns="http://www.w3.org/2000/svg" xmlns:xlink="http://www.w3.org/1999/xlink" x="0px" y="0px"
	 viewBox="0 0 606 410" style="enable-background:new 0 0 606 410;" xml:space="preserve">
<style type="text/css">
	.st0{fill:none;stroke:#FFFFFF;stroke-width:0.25;}
</style>
<g>
	<g>
		<path class="st0" d="M513.7,114.9c-21.5,17-34.2,45.8-58.1,59.2c-15.9,8.9-33.7,10-51.5,10c-5.3,0-10.7-0.1-16-0.1
			c-3.9,0-7.7,0-11.5,0.2c-65.4,2.9-86.2,34-140.6,63.3c-19.1,10.2-36.4,14.5-52.4,14.5c-71.5,0-118.2-84.7-183.6-100.8v0.4
			c65.1,16,111.8,100.8,183.6,100.8c16.1,0,33.5-4.3,52.6-14.5c54.5-29.3,75.3-60.4,140.5-63.2c3.8-0.2,7.6-0.2,11.5-0.2
			c5.3,0,10.7,0.1,16,0.1c17.9,0,35.7-1,51.7-10c24.1-13.5,36.8-42.3,58.2-59.3c26.7-21.2,59.1-38.2,92.5-53.4v-0.4
			C572.9,76.7,540.4,93.7,513.7,114.9z"/>
	</g>
	<g>
		<path class="st0" d="M585.1,72.9c-24.1,10.8-47.2,22.8-67.1,38c-9,6.9-16.5,15.9-23.9,25.2c-10.3,13.2-19.9,26.5-33.2,34.8
			c-14.9,9.2-31.7,11-50,11.1c-0.9,0-1.7,0-2.6,0c-5.4,0-10.7-0.1-16-0.1c-3.3,0-6.7,0-10,0.2c-25.9,1-44.6,6.5-61.7,16
			c-24.5,13.6-44,33-77,49.7c-16.6,8.4-30.5,10.9-44.1,10.9c-5.4,0-10.7-0.4-16-1c-21.5-2.3-40.6-8.4-58.3-17.3
			c-17.8-8.9-34.7-20.6-53.3-33.4c-19.7-13.5-39.1-28-60.6-34.6c-3.9-1.2-7.7-2.1-11.6-2.9v0.4c3.8,0.7,7.7,1.7,11.5,2.8
			c21.4,6.6,40.7,21.1,60.5,34.6c18.6,12.8,35.5,24.4,53.4,33.4c17.7,8.9,36.9,15.1,58.4,17.3c5.4,0.6,10.7,1,16.1,1
			c13.6,0,27.6-2.5,44.2-11c33.1-16.8,52.5-36.2,77-49.8c17-9.4,35.7-15,61.5-15.9c3.3-0.1,6.6-0.2,9.9-0.2c5.3,0,10.6,0.1,16,0.1
			c0.9,0,1.7,0,2.6,0c18.3-0.1,35.2-1.9,50.2-11.2c13.5-8.3,23-21.7,33.3-34.8c7.3-9.4,14.8-18.3,23.8-25.2
			c19.9-15.2,43-27.2,67.1-38c7-3.1,14.1-6.2,21.2-9.2v-0.4C599.2,66.6,592.1,69.7,585.1,72.9z"/>
	</g>
	<g>
		<path class="st0" d="M590.2,71.7c-24.3,9.5-47.8,20.3-68,35.1c-9.1,6.7-16.7,15.6-24,25.1c-10.3,13.4-19.3,27-32,35.7
			c-14.2,9.6-30.4,12-49.3,12.3c-1.3,0-2.6,0-3.8,0c-5.6,0-11-0.1-16.4-0.1c-2.8,0-5.6,0-8.3,0.1c-25.6,0.8-44,6.2-61.2,16.9
			c-23.8,14.7-42.2,35.3-75.5,51.3c-13.3,6.4-24.3,8.3-34.7,8.3c-8.9,0-17.3-1.4-26.5-2.7c-22.4-3.1-42.3-7-59.9-13.4
			c-18-6.4-34.9-15.2-55.2-27.1c-21-12.3-41.2-27.5-63.9-33.2c-3.9-1-7.7-1.7-11.6-2.2v0.4c3.8,0.5,7.6,1.2,11.5,2.2
			c22.6,5.6,42.7,20.8,63.8,33.1c20.3,11.9,37.3,20.7,55.3,27.2c17.7,6.3,37.5,10.3,60,13.4c9.2,1.3,17.6,2.7,26.5,2.7
			c10.5,0,21.5-2,34.9-8.4c33.4-16,51.8-36.7,75.6-51.3c17.2-10.6,35.5-16,61-16.8c2.7-0.1,5.5-0.1,8.3-0.1c5.4,0,10.9,0.1,16.4,0.1
			c1.3,0,2.6,0,3.8,0c19-0.3,35.3-2.7,49.5-12.4c12.8-8.7,21.8-22.3,32.1-35.7c7.3-9.5,14.9-18.4,24-25.1
			C542.5,92.4,566,81.6,590.3,72c5.3-2.1,10.7-4.2,16.1-6.3v-0.4C601,67.5,595.6,69.6,590.2,71.7z"/>
	</g>
	<g>
		<path class="st0" d="M595.3,70.5c-24.5,8.3-48.4,17.8-68.8,32.3c-9.2,6.5-16.9,15.3-24.2,25c-10.3,13.7-18.7,27.5-30.8,36.6
			c-13.5,10-29.1,13.1-48.7,13.5c-1.6,0-3.2,0-4.8,0c-5.9,0-11.6-0.1-17.3-0.1c-2.2,0-4.4,0-6.6,0.1c-25.3,0.7-43.3,5.9-60.8,17.8
			c-23,15.7-40.4,37.6-74,52.9c-10.9,5-19.9,6.6-28.2,6.6c-11.6,0-21.8-3.2-34-5.3c-23.4-3.9-44-5.6-61.5-9.4
			c-18.2-3.9-35-9.9-57.1-20.9c-22.3-11.1-43.3-27.1-67.2-31.7c-3.9-0.8-7.8-1.3-11.5-1.6v0.4c3.8,0.3,7.6,0.8,11.5,1.6
			c23.8,4.6,44.8,20.5,67.1,31.7c22.1,11,39,17,57.2,20.9c17.6,3.8,38.2,5.5,61.6,9.4c12.2,2,22.4,5.3,34.1,5.3
			c8.4,0,17.4-1.7,28.4-6.7c33.7-15.3,51.1-37.3,74.1-52.9c17.4-11.9,35.3-17,60.6-17.7c2.2-0.1,4.4-0.1,6.6-0.1
			c5.6,0,11.4,0.1,17.3,0.1c1.6,0,3.2,0,4.8,0c19.7-0.4,35.4-3.4,48.9-13.5c12.2-9.1,20.6-23,30.8-36.6c7.3-9.7,15-18.5,24.2-24.9
			c20.4-14.4,44.3-23.9,68.7-32.2c3.7-1.2,7.3-2.5,11-3.8v-0.4C602.7,68,599,69.3,595.3,70.5z"/>
	</g>
	<g>
		<path class="st0" d="M600.4,69.3c-24.6,7.1-49,15.4-69.6,29.4c-9.3,6.3-17.1,15-24.4,24.9c-10.3,13.9-18.1,28.1-29.5,37.4
			c-12.8,10.5-27.8,14.2-48.1,14.6c-2,0-3.9,0.1-5.8,0.1c-6.2,0-12.3-0.2-18.3-0.2c-1.6,0-3.1,0-4.6,0c-25.1,0.5-42.7,5.5-60.3,18.7
			c-22.3,16.7-38.6,39.9-72.5,54.5c-9.3,4-17.1,5.5-24.1,5.5c-13.7,0-24.7-5.6-39.3-8.4c-24.3-4.7-45.7-4.2-63.2-5.5
			c-18.5-1.4-35.2-4.5-58.9-14.7c-23.5-10-45.4-26.6-70.5-30.2c-3.9-0.6-7.8-0.9-11.5-1.1v0.4c3.7,0.1,7.5,0.5,11.5,1.1
			c25,3.6,46.8,20.2,70.4,30.2c23.8,10.1,40.6,13.3,59.1,14.7c17.5,1.3,38.9,0.7,63.1,5.4c14.5,2.8,25.5,8.4,39.3,8.5
			c7.1,0,14.9-1.5,24.3-5.5c34-14.7,50.4-37.9,72.6-54.5c17.5-13.1,35.1-18.1,60.1-18.6c1.5,0,3.1,0,4.6,0c5.9,0,12,0.2,18.3,0.2
			c1.9,0,3.9,0,5.8-0.1c20.4-0.4,35.5-4.2,48.3-14.7c11.5-9.5,19.3-23.6,29.6-37.5c7.3-9.9,15.1-18.5,24.3-24.8
			c20.6-14,44.9-22.2,69.5-29.3c2-0.6,3.9-1.1,5.9-1.7v-0.4C604.4,68.2,602.4,68.8,600.4,69.3z"/>
	</g>
	<g>
		<path class="st0" d="M605.5,68.2C580.8,74.1,556,81,535.1,94.7c-9.3,6.1-17.3,14.7-24.6,24.8c-10.3,14.1-17.5,28.6-28.3,38.3
			c-12,10.9-26.4,15.3-47.4,15.8c-2.1,0.1-4.3,0.1-6.4,0.1c-6.7,0-13.2-0.2-19.4-0.2c-1,0-2,0-3,0c-24.8,0.4-42.1,5.1-59.8,19.5
			c-21.6,17.6-36.8,42.1-71,56.1c-8.3,3.4-15.2,4.7-21.3,4.7c-15.6,0-26.6-8.3-43.2-11.9c-11.4-2.5-22.2-3.3-32.2-3.3
			c-12.1,0-23.1,1.1-32.6,1.8c-4.5,0.3-8.9,0.5-13.3,0.5c-13.9,0-28.1-2-47.5-8.9c-24.7-8.9-47.5-26.1-73.8-28.8
			c-3.7-0.4-7.3-0.6-10.8-0.6c-0.2,0-0.4,0-0.7,0v0.4c0.2,0,0.4,0,0.7,0c3.5,0,7.1,0.2,10.8,0.6c26.1,2.7,48.9,19.9,73.7,28.7
			c19.4,7,33.7,9,47.6,9c4.4,0,8.8-0.2,13.3-0.5c9.5-0.6,20.4-1.8,32.6-1.8c10,0,20.8,0.8,32.1,3.3c16.4,3.6,27.4,11.9,43.2,11.9
			c6.2,0,13.2-1.3,21.5-4.7c34.3-14,49.6-38.6,71.1-56.1c17.7-14.4,34.9-19.1,59.6-19.5c1,0,2,0,3,0c6.3,0,12.7,0.2,19.4,0.2
			c2.1,0,4.2,0,6.4-0.1c21-0.5,35.6-4.9,47.7-15.9c10.9-9.8,18.1-24.3,28.3-38.4c7.3-10.1,15.2-18.6,24.5-24.7
			c20.8-13.6,45.6-20.6,70.4-26.5c0.3-0.1,0.5-0.1,0.8-0.2V68C606.1,68,605.8,68.1,605.5,68.2z"/>
	</g>
	<g>
		<path class="st0" d="M539.3,90.6c-9.4,5.9-17.5,14.4-24.8,24.7c-10.2,14.4-16.9,29.1-27,39.2c-11.3,11.3-25.1,16.3-46.8,17
			c-2.3,0.1-4.6,0.1-6.8,0.1c-7.2,0-14-0.3-20.6-0.3c-0.5,0-0.9,0-1.4,0c-24.5,0.2-41.5,4.6-59.4,20.4
			c-20.9,18.5-35.1,44.3-69.5,57.7c-7.5,2.9-13.7,4-19.3,4c-17.4,0-28-11.2-46.2-15.6c-8.9-2.1-17.4-2.9-25.4-2.9
			c-15.7,0-29.7,3.1-41,5.4c-9.5,1.9-18.3,3.4-28.1,3.4c-9.9,0-20.8-1.5-34.6-5.7c-25.9-7.8-49.6-25.6-77-27.3
			c-2.4-0.1-4.7-0.2-6.9-0.2c-1.5,0-3,0-4.5,0.1v0.4c1.5-0.1,3-0.1,4.5-0.1c2.2,0,4.5,0.1,6.9,0.2c27.3,1.7,51,19.5,77,27.3
			c13.8,4.1,24.7,5.7,34.7,5.7c9.8,0,18.7-1.5,28.2-3.5c11.3-2.3,25.2-5.4,40.9-5.4c8,0,16.5,0.8,25.3,2.9
			c18.1,4.3,28.8,15.6,46.3,15.6c5.6,0,12-1.2,19.5-4.1c34.6-13.4,48.8-39.3,69.6-57.7c17.8-15.8,34.7-20.1,59.2-20.3
			c0.5,0,0.9,0,1.4,0c6.6,0,13.5,0.3,20.6,0.3c2.3,0,4.5,0,6.8-0.1c21.7-0.6,35.7-5.7,47.1-17.1c10.2-10.2,16.8-24.9,27.1-39.3
			c7.3-10.2,15.3-18.6,24.7-24.6c19.9-12.4,43.4-18.2,66.9-22.7v-0.4C582.9,72.4,559.3,78.1,539.3,90.6z"/>
	</g>
	<g>
		<path class="st0" d="M543.6,86.6c-9.5,5.8-17.7,14.1-25,24.5c-10.2,14.6-16.3,29.6-25.8,40.1c-10.6,11.7-23.8,17.4-46.2,18.1
			c-2.4,0.1-4.8,0.1-7.2,0.1c-7.6,0-14.8-0.3-21.7-0.3c-24.2,0.1-41,4.1-58.9,21.3c-20.2,19.4-33.3,46.4-68,59.2
			c-6.9,2.5-12.7,3.6-17.8,3.6c-19.1,0-29.1-14.3-48.8-19.4c-7.7-2-15.2-2.8-22.4-2.8c-17.9,0-33.6,5.1-45.7,9.3
			c-12.5,4.3-23.5,7.7-37.5,7.7c-7.8,0-16.6-1.1-27.1-3.7c-27-6.7-51.7-25-80.3-25.8c-1,0-2.1,0-3.1,0c-2.9,0-5.6,0.1-8.3,0.3v0.4
			c2.7-0.2,5.5-0.3,8.3-0.3c1,0,2,0,3.1,0c28.5,0.8,53.1,19.1,80.3,25.8c10.5,2.6,19.3,3.7,27.2,3.7c14,0,25.1-3.4,37.6-7.7
			c12.1-4.1,27.7-9.2,45.6-9.2c7.1,0,14.6,0.8,22.3,2.8c19.6,5.1,29.6,19.4,48.9,19.4c5.2,0,11.1-1,18-3.6
			c34.8-12.8,48-40,68.1-59.3c17.9-17.1,34.5-21.2,58.7-21.2c6.9,0,14.1,0.3,21.7,0.3c2.4,0,4.8,0,7.2-0.1
			c22.4-0.7,35.8-6.5,46.4-18.3c9.6-10.6,15.6-25.6,25.8-40.2c7.3-10.4,15.4-18.7,24.9-24.4c18.7-11.2,40.6-16,62.6-19.3v-0.4
			C584.4,70.6,562.4,75.3,543.6,86.6z"/>
	</g>
	<g>
		<path class="st0" d="M547.9,82.5c-9.6,5.6-17.9,13.8-25.2,24.4c-10.2,14.9-15.7,30.1-24.5,41c-9.9,12.1-22.5,18.4-45.5,19.3
			c-2.5,0.1-5.1,0.1-7.5,0.1c-7.6,0-14.7-0.3-21.5-0.4c-0.3,0-0.6,0-1,0c-23.5,0-39.7,3.9-57.5,22.2c-19.6,20.2-31.6,48.6-66.5,60.8
			c-6.4,2.2-11.8,3.2-16.7,3.2c-20.7,0-29.9-17.4-51.1-23.3c-7.1-2-14-2.8-20.6-2.8c-19.5,0-36.5,7.2-49,13.2
			c-14.6,7-26.9,12.6-44.8,12.6c-6.4,0-13.5-0.7-21.7-2.4c-28.1-5.6-53.5-24.4-83.2-24.4c-0.1,0-0.3,0-0.4,0c-4,0-7.8,0.3-11.4,0.7
			v0.4c3.6-0.4,7.4-0.7,11.4-0.7c0.1,0,0.3,0,0.4,0c29.5,0,54.9,18.7,83.1,24.4c8.2,1.6,15.3,2.4,21.7,2.4
			c17.9,0,30.3-5.6,44.9-12.6c12.5-6,29.4-13.2,48.9-13.2c6.6,0,13.5,0.8,20.5,2.8c21,5.9,30.2,23.3,51.2,23.4
			c4.9,0,10.4-0.9,16.8-3.2c35.1-12.3,47.1-40.8,66.7-60.9c17.7-18.3,33.8-22.1,57.3-22.1c0.3,0,0.6,0,1,0c6.8,0,13.9,0.4,21.5,0.4
			c2.5,0,5,0,7.5-0.1c23.1-0.8,35.9-7.2,45.8-19.4c8.9-11,14.4-26.2,24.6-41.1c7.3-10.6,15.5-18.8,25.1-24.3
			c17.4-10.1,37.8-14,58.3-16.3v-0.4C585.9,68.5,565.4,72.4,547.9,82.5z"/>
	</g>
	<g>
		<path class="st0" d="M552.2,78.5c-9.7,5.4-18.1,13.5-25.4,24.3c-10.2,15.1-15.1,30.6-23.3,41.9c-9.2,12.6-21.2,19.5-44.9,20.5
			c-2.6,0.1-5.2,0.1-7.8,0.1c-7.5,0-14.6-0.4-21.3-0.5c-0.8,0-1.6,0-2.4,0c-22.4,0-38.2,3.8-55.6,23.1c-19,21-29.9,50.7-65,62.4
			c-6,2-11.2,2.9-15.7,2.9c-22.4,0-30.6-20.6-53.1-27.3c-6.7-2-13.3-2.9-19.6-2.9c-20.9,0-38.9,9.3-51.7,17.2
			c-16.2,10-29.4,17.9-51.1,17.9c-5.2,0-10.9-0.5-17.2-1.5c-28.5-4.5-54.4-22.9-84.3-22.9c-0.9,0-1.8,0-2.6,0.1
			c-4,0.1-7.8,0.5-11.4,1v0.4c3.6-0.5,7.4-0.9,11.4-1c0.9,0,1.7,0,2.6,0c29.8,0,55.6,18.4,84.2,22.9c6.3,1,12.1,1.5,17.3,1.5
			c21.8,0,35.1-8,51.3-18c12.7-7.8,30.8-17.2,51.5-17.2c6.3,0,12.8,0.8,19.5,2.8c22.4,6.6,30.6,27.3,53.3,27.3
			c4.6,0,9.8-0.9,15.8-2.9c35.3-11.8,46.3-41.6,65.2-62.5c17.4-19.3,33-23,55.3-23c0.8,0,1.6,0,2.4,0c6.7,0.1,13.8,0.5,21.3,0.5
			c2.5,0,5.1,0,7.8-0.1c23.8-1,36-8,45.2-20.6c8.3-11.4,13.1-26.9,23.3-42c7.3-10.8,15.6-18.8,25.2-24.2c16.2-9,35-12.2,54-13.8
			v-0.4C587.4,66.2,568.5,69.5,552.2,78.5z"/>
	</g>
	<g>
		<path class="st0" d="M556.5,74.4c-9.8,5.2-18.3,13.2-25.6,24.2c-10.2,15.4-14.5,31.2-22.1,42.8c-8.5,13-19.8,20.5-44.3,21.6
			c-2.7,0.1-5.4,0.2-8,0.2c-7.5,0-14.5-0.4-21.1-0.5c-1.3,0-2.6,0-3.8,0c-21.4,0-36.6,3.8-53.7,24c-18.4,21.8-28.2,52.8-63.5,64
			c-5.7,1.8-10.6,2.6-14.9,2.6c-24,0-31.2-23.8-55-31.4c-6.5-2-12.8-2.9-18.9-2.9c-22,0-41,11.5-54,21.2
			c-17.5,13.1-31.3,23.5-56.9,23.5c-4.1,0-8.5-0.3-13.3-0.8c-29-3.5-55.3-21.6-85.4-21.6c-1.6,0-3.2,0.1-4.8,0.2
			c-4,0.3-7.7,0.7-11.3,1.3v0.4c3.6-0.6,7.4-1.1,11.4-1.3c1.6-0.1,3.2-0.2,4.7-0.2c30,0,56.2,18.1,85.4,21.6
			c4.8,0.6,9.2,0.8,13.3,0.8c25.7,0,39.6-10.5,57.1-23.6c12.9-9.7,31.9-21.2,53.8-21.2c6.1,0,12.4,0.9,18.8,2.9
			c23.6,7.4,30.8,31.3,55.1,31.4c4.4,0,9.3-0.8,15-2.6c35.5-11.2,45.4-42.4,63.7-64.1c17.1-20.2,32.1-23.9,53.5-23.9
			c1.2,0,2.5,0,3.8,0c6.6,0.1,13.6,0.5,21.1,0.5c2.6,0,5.3,0,8-0.2c24.5-1.1,36.1-8.7,44.6-21.8c7.6-11.8,11.9-27.5,22-42.8
			c7.3-10.9,15.7-18.9,25.4-24.1c15-7.9,32.2-10.9,49.8-11.8v-0.4C588.9,63.5,571.5,66.4,556.5,74.4z"/>
	</g>
	<g>
		<path class="st0" d="M560.8,70.4c-9.9,5-18.5,12.9-25.8,24.1c-10.2,15.6-13.9,31.7-20.8,43.7c-7.7,13.4-18.5,21.5-43.7,22.8
			c-2.8,0.1-5.5,0.2-8.1,0.2c-7.5,0-14.5-0.4-21-0.6c-1.8,0-3.5-0.1-5.2-0.1c-20.4,0-35.2,3.8-51.9,24.9
			c-17.8,22.6-26.5,54.9-62,65.6c-5.4,1.6-10.1,2.3-14.2,2.3c-25.7,0-31.7-27.1-56.8-35.4c-6.3-2.1-12.5-3-18.5-3
			c-23.1,0-42.9,13.6-56,25.3c-18.5,16.4-32.8,29.3-62.4,29.3c-3,0-6.2-0.1-9.6-0.4c-29.6-2.5-56.2-20.2-86.7-20.3
			c-2.3,0-4.6,0.1-6.9,0.3c-4,0.4-7.7,0.9-11.3,1.6v0.4c3.6-0.7,7.4-1.3,11.3-1.6c2.3-0.2,4.6-0.3,6.8-0.3
			c30.4,0,56.9,17.8,86.6,20.3c3.4,0.3,6.6,0.4,9.6,0.4c29.7,0,44.2-13,62.7-29.4c13.1-11.6,32.8-25.2,55.8-25.2
			c5.9,0,12.1,0.9,18.4,3c24.9,8.2,30.9,35.4,56.9,35.4c4.2,0,8.9-0.7,14.4-2.3c35.8-10.7,44.4-43.2,62.2-65.7
			c16.7-21.1,31.3-24.8,51.6-24.8c1.7,0,3.4,0,5.2,0.1c6.6,0.2,13.5,0.6,21.1,0.6c2.7,0,5.4,0,8.2-0.2c25.2-1.2,36.2-9.5,44-23
			c7-12.1,10.6-28.2,20.8-43.7c7.3-11.1,15.8-19,25.6-23.9c13.8-7,29.5-9.2,45.5-9.7v-0.4C590.3,61.1,574.6,63.4,560.8,70.4z"/>
	</g>
	<g>
		<path class="st0" d="M565,66.3c-9.9,4.8-18.7,12.6-25.9,24c-10.2,15.8-13.3,32.2-19.6,44.6c-7,13.8-17.2,22.6-43,23.9
			c-2.9,0.1-5.6,0.2-8.4,0.2c-7.5,0-14.4-0.4-20.9-0.6c-2.2-0.1-4.4-0.1-6.4-0.1c-19.5,0-33.9,3.9-50.2,25.9
			c-17.3,23.4-24.8,57-60.5,67.1c-5.1,1.5-9.6,2.1-13.7,2.1c-27.4,0-32.2-30.3-58.5-39.5c-6.3-2.1-12.3-3.1-18.2-3.1
			c-24.1,0-44.6,15.8-57.9,29.3c-19.4,19.8-34.1,35.3-67.9,35.3c-2,0-4-0.1-6.1-0.2c-30.1-1.5-57.1-19-87.9-19
			c-2.9,0-5.9,0.2-8.9,0.5c-4,0.5-7.7,1.1-11.3,1.9v0.4c3.6-0.8,7.3-1.5,11.3-1.9c3-0.3,5.9-0.5,8.9-0.5c30.7,0,57.7,17.4,87.9,19
			c2.1,0.1,4.1,0.2,6.1,0.2c33.8,0,48.7-15.6,68.1-35.4c13.2-13.5,33.7-29.2,57.6-29.2c5.8,0,11.9,0.9,18.1,3.1
			c26.1,9,30.9,39.5,58.6,39.5c4.1,0,8.6-0.7,13.8-2.1c36-10.3,43.5-44,60.7-67.3c16.3-21.9,30.5-25.7,49.9-25.7
			c2.1,0,4.2,0,6.4,0.1c6.5,0.2,13.4,0.6,20.9,0.6c2.7,0,5.5-0.1,8.4-0.2c25.9-1.3,36.3-10.2,43.3-24.1c6.3-12.5,9.4-28.8,19.5-44.6
			c7.3-11.3,15.9-19,25.8-23.8c12.5-6,26.7-8,41.2-8.2v-0.4C591.8,58.3,577.6,60.2,565,66.3z"/>
	</g>
	<g>
		<path class="st0" d="M606.4,55.3c-13,0-25.7,1.7-37.1,6.9c-10,4.6-18.9,12.3-26.1,23.8c-10.2,16.1-12.6,32.7-18.3,45.5
			c-6.3,14.2-15.9,23.6-42.4,25.1c-2.9,0.2-5.8,0.2-8.5,0.2c-7.5,0-14.4-0.5-20.8-0.7c-2.6-0.1-5.2-0.2-7.6-0.2
			c-18.6,0-32.7,4-48.6,26.8c-16.8,24.1-23.1,59-59,68.7c-4.9,1.3-9.2,1.9-13.1,1.9c-29.1,0.1-32.6-33.7-60.2-43.6
			c-6.2-2.2-12.3-3.2-18.1-3.2c-25.1,0-46.2,17.9-59.6,33.4c-20.2,23.3-35.3,41.3-73.2,41.4c-0.8,0-1.7,0-2.6,0
			c-30.6-0.6-58.1-17.7-89.2-17.7c-3.6,0-7.2,0.2-10.9,0.7c-4,0.6-7.7,1.3-11.3,2.2v0.4c3.6-0.9,7.3-1.6,11.3-2.2
			c3.7-0.5,7.3-0.7,10.8-0.7c31.1,0,58.5,17.1,89.2,17.7c0.9,0,1.7,0,2.6,0c38.1,0,53.3-18.2,73.5-41.5
			c13.4-15.4,34.5-33.3,59.4-33.3c5.8,0,11.8,1,18,3.2c27.3,9.8,30.8,43.6,60.3,43.6c3.9,0,8.3-0.6,13.2-1.9
			c36.2-9.8,42.5-44.9,59.2-68.9c15.9-22.8,29.7-26.7,48.3-26.7c2.4,0,5,0.1,7.6,0.2c6.4,0.3,13.3,0.7,20.8,0.7
			c2.8,0,5.6-0.1,8.6-0.2c26.6-1.4,36.4-11,42.7-25.3c5.7-12.9,8.2-29.5,18.3-45.5c7.3-11.5,16-19.1,26-23.7
			c11.3-5.2,23.9-6.9,36.9-6.9c0,0,0,0,0,0L606.4,55.3C606.4,55.3,606.4,55.3,606.4,55.3z"/>
	</g>
	<g>
		<path class="st0" d="M605.8,52.3c-11.3,0-22.3,1.6-32.2,5.9c-10.1,4.4-19,12-26.3,23.7c-10.2,16.3-12,33.2-17.1,46.4
			c-5.6,14.7-14.6,24.7-41.8,26.3c-3,0.2-5.9,0.2-8.7,0.2c-7.5,0-14.3-0.5-20.7-0.8c-3-0.1-5.9-0.2-8.6-0.2
			c-17.9,0-31.6,4.1-47.1,27.8c-16.3,24.9-21.4,61.1-57.5,70.3c-4.7,1.2-8.9,1.7-12.6,1.7c-30.8,0.1-33-37-61.8-47.8
			c-6.2-2.3-12.2-3.3-18.1-3.3c-26,0-47.8,20.1-61.3,37.5c-20.7,26.7-36,47.3-77.7,47.6c-0.2,0-0.4,0-0.6,0
			c-30.9,0-58.6-16.5-89.9-16.5c-4.2,0-8.5,0.3-12.9,1c-4,0.6-7.7,1.4-11.2,2.4v0.4c3.6-1,7.3-1.8,11.3-2.4c4.4-0.7,8.6-1,12.9-1
			c31.2,0,58.8,16.5,89.9,16.5c0.2,0,0.4,0,0.6,0c41.8-0.3,57.2-21,78-47.7c13.5-17.4,35.2-37.3,61-37.3c5.8,0,11.8,1,17.9,3.3
			c28.5,10.5,30.7,47.7,61.9,47.8c3.8,0,8-0.5,12.7-1.8c36.4-9.3,41.5-45.7,57.8-70.5c15.5-23.6,29-27.6,46.8-27.6
			c2.8,0,5.6,0.1,8.6,0.2c6.3,0.3,13.2,0.8,20.7,0.8c2.8,0,5.7-0.1,8.7-0.2c27.3-1.5,36.5-11.7,42.1-26.5c5-13.3,6.9-30.1,17-46.4
			c7.2-11.7,16.1-19.2,26.2-23.6c9.9-4.3,20.7-5.9,32-5.9c0.2,0,0.4,0,0.6,0v-0.4C606.2,52.3,606,52.3,605.8,52.3z"/>
	</g>
	<g>
		<path class="st0" d="M606.1,49.1c-9.9,0-19.5,1.4-28.3,5c-10.2,4.3-19.2,11.7-26.5,23.6c-10.1,16.6-11.4,33.7-15.8,47.3
			c-4.9,15.1-13.3,25.8-41.1,27.4c-3.1,0.2-6,0.3-8.9,0.3c-7.5,0-14.3-0.5-20.6-0.8c-3.3-0.2-6.5-0.3-9.6-0.3
			c-17.2,0-30.6,4.3-45.7,28.7c-15.8,25.7-19.6,63.1-56,71.9c-4.5,1.1-8.5,1.6-12.1,1.6c-32.6,0.1-33.4-40.4-63.3-51.9
			c-6.2-2.4-12.3-3.4-18.1-3.4c-26.8,0-49.2,22.2-62.8,41.6c-20.8,29.6-36.1,52.3-79.6,53.8c-1,0-1.9,0-2.9,0
			c-30.5,0-57.9-15.4-88.8-15.4c-4.9,0-9.9,0.4-15,1.3c-4,0.7-7.7,1.6-11.2,2.6v0.4c3.6-1,7.3-1.9,11.3-2.6c5.1-0.9,10-1.3,14.9-1.3
			c30.7,0,58.2,15.4,88.8,15.4c1,0,1.9,0,2.9,0c43.6-1.4,59.1-24.4,79.9-53.9c13.6-19.3,35.9-41.4,62.5-41.4c5.8,0,11.8,1.1,18,3.4
			c29.6,11.3,30.5,51.9,63.5,51.9c3.7,0,7.7-0.5,12.2-1.6c36.7-8.9,40.5-46.5,56.3-72.1c15.1-24.4,28.2-28.6,45.4-28.6
			c3.1,0,6.2,0.1,9.6,0.3c6.3,0.3,13.1,0.8,20.6,0.8c2.9,0,5.8-0.1,8.9-0.3c28-1.6,36.6-12.5,41.5-27.7c4.4-13.7,5.7-30.8,15.8-47.3
			c7.2-11.8,16.2-19.2,26.3-23.5c8.7-3.6,18.2-5,28.1-5c0.1,0,0.2,0,0.3,0v-0.4C606.3,49.1,606.2,49.1,606.1,49.1z"/>
	</g>
	<g>
		<path class="st0" d="M555.5,73.6c-10.7,17.7-10.9,36.2-15.2,50.5c-4.3,14.3-12.7,24.6-39.9,26.3c-3.1,0.2-6.1,0.3-9,0.3
			c-11.9,0-21.9-1.3-30.9-1.3c-16.6,0-29.7,4.5-44.4,29.7c-15.4,26.4-17.9,65.1-54.5,73.5c-4.3,1-8.2,1.4-11.7,1.4
			c-34.4,0.1-33.8-43.7-64.9-56.1c-6.2-2.5-12.3-3.6-18.2-3.6c-27.7,0-50.7,24.4-64.4,45.6c-20.9,32.4-36.3,57.4-81.4,60
			c-1.7,0.1-3.5,0.1-5.2,0.1c-30.1,0-57.3-14.4-87.7-14.4c-5.6,0-11.2,0.5-17,1.6c-3.9,0.8-7.7,1.7-11.2,2.8v0.4
			c3.5-1.1,7.3-2,11.3-2.8c5.8-1.1,11.4-1.6,17-1.6c30.3,0,57.5,14.4,87.7,14.4c1.7,0,3.5,0,5.2-0.1c45.3-2.6,60.9-27.8,81.7-60.2
			c13.7-21.2,36.6-45.5,64.1-45.5c5.8,0,11.9,1.1,18,3.5c30.8,12.1,30.3,56,65,56.1c3.5,0,7.4-0.5,11.8-1.4
			c36.9-8.5,39.4-47.4,54.8-73.7c14.7-25.2,27.6-29.5,44.1-29.5c9,0,19,1.3,30.9,1.3c2.9,0,5.9-0.1,9-0.3
			c27.3-1.7,35.9-12.2,40.2-26.6c4.3-14.4,4.6-32.8,15.2-50.4c12.6-20.9,30.7-27.4,50.6-27.6v-0.4C586.4,45.9,568.1,52.6,555.5,73.6
			z"/>
	</g>
</g>
<g>
	<g>
		<path class="st0" d="M483.6,269.5c-13.4-2.5-26.6-3.5-39.6-3.5c-34.7,0-68.5,7.6-103.4,15.7c-34.9,8.2-69.3,15.8-104.1,15.8
			c-18.7,0-37.4-2.2-56.3-7.7c-50.8-14.8-98.9-44.7-138.6-79.3c-17.2-15-30.9-31.1-41.9-49.4v0.6c10.9,18.1,24.6,34.1,41.7,49
			c39.8,34.7,87.9,64.6,138.7,79.4c19,5.5,37.7,7.7,56.4,7.7c34.8,0,69.3-7.7,104.2-15.9c34.9-8.2,68.6-15.7,103.3-15.7
			c13,0,26.1,1.1,39.5,3.5c41.7,7.7,81.8,16.6,122.8,21.3v-0.3C565.4,286.1,525.3,277.2,483.6,269.5z"/>
	</g>
	<g>
		<path class="st0" d="M522.7,276.1c-13.1-2-26.2-4.1-39.6-6.1c-10.8-1.6-21.4-2.3-32-2.3c-37.2,0-73.1,8.8-110.4,17.9
			c-35.7,8.8-71.1,16.8-106.8,16.8c-18.6,0-37.3-2.2-56.1-7.5c-51.2-14.5-99.4-44-139.4-78.6C23,203.1,10.3,188.8-0.2,172.8v0.5
			c10.5,15.8,23.1,30,38.5,43.3c40,34.6,88.2,64.1,139.5,78.6c18.9,5.3,37.6,7.5,56.2,7.5c35.8,0,71.2-8,106.9-16.8
			c37.4-9.2,73.2-17.9,110.4-17.9c10.5,0,21.1,0.7,31.9,2.3c13.3,2,26.5,4,39.6,6.1c28,4.3,55.6,8.6,83.8,11.1v-0.3
			C578.3,284.7,550.6,280.4,522.7,276.1z"/>
	</g>
	<g>
		<path class="st0" d="M522,275.1c-13-1.5-26.1-3.1-39.4-4.5c-8.2-0.9-16.2-1.3-24.2-1.3c-39.7,0-77.8,10-117.7,20.4
			c-36.5,9.4-72.9,17.8-109.7,17.8c-18.4,0-37-2.1-55.7-7.2C123.8,286,75.4,257,35.3,222.5C21.4,210.6,9.7,197.9-0.2,184v0.5
			c9.9,13.8,21.6,26.3,35.3,38.1c40.2,34.6,88.6,63.6,140.2,77.8c18.7,5.1,37.3,7.2,55.8,7.2c36.8,0,73.3-8.3,109.8-17.8
			c39.9-10.3,78-20.4,117.6-20.4c8,0,16,0.4,24.2,1.3c13.2,1.4,26.3,3,39.4,4.5c28.1,3.2,56,6.6,84.4,8.4v-0.3
			C578,281.7,550.2,278.3,522,275.1z"/>
	</g>
	<g>
		<path class="st0" d="M521.4,274.1c-13-1-26-2-39.2-2.9c-5.4-0.4-10.7-0.6-16-0.6c-42.4,0-82.8,11.5-125.3,23.1
			c-37.3,10.1-74.7,18.7-112.5,18.7c-18.4,0-36.8-2-55.4-6.9c-52-13.9-100.5-42.5-140.9-77c-12.3-10.5-23-21.6-32.3-33.7v0.5
			c9.3,12,19.9,23,32.1,33.4c40.4,34.5,89,63.2,141,77c18.6,4.9,37.1,6.9,55.5,6.9c37.8,0,75.3-8.6,112.6-18.8
			c42.6-11.5,83-23,125.3-23c5.3,0,10.6,0.2,16,0.6c13.2,0.9,26.2,1.9,39.2,2.9c28.3,2.1,56.4,4.6,85.1,5.8v-0.3
			C577.7,278.7,549.7,276.2,521.4,274.1z"/>
	</g>
	<g>
		<path class="st0" d="M520.7,273.1c-12.9-0.5-25.9-1-39-1.4c-2.5-0.1-5-0.1-7.4-0.1c-45.2,0-88,13.2-133.4,26
			c-38.1,10.8-76.5,19.7-115.3,19.7c-18.2,0-36.6-2-55.1-6.7c-52.4-13.5-101.1-41.8-141.6-76.2c-10.9-9.2-20.5-19-29.1-29.4v0.5
			c8.6,10.3,18.2,20,28.9,29.1c40.6,34.4,89.3,62.7,141.7,76.3c18.5,4.7,36.9,6.7,55.1,6.7c38.9,0,77.3-9,115.4-19.7
			c45.4-12.8,88.2-26,133.3-26c2.5,0,4.9,0,7.4,0.1c13.1,0.4,26.1,0.9,39,1.4c28.5,1,56.8,2.6,85.7,3.1v-0.3
			C577.5,275.7,549.2,274.1,520.7,273.1z"/>
	</g>
	<g>
		<path class="st0" d="M595.1,272.5c-23,0-45.7-0.4-68.4-0.4c-2.2,0-4.4,0-6.7,0c-12.9,0.1-25.8,0.1-38.8,0.2
			c-47.6,0.4-92.4,15.3-140.3,29.3c-38.9,11.5-78.3,20.8-118.1,20.8c-18.2,0-36.4-1.9-54.7-6.5c-52.8-13.1-101.6-41.1-142.4-75.4
			c-9.5-8-18.1-16.4-26-25.4v0.5c7.8,8.8,16.3,17.2,25.8,25.1c40.8,34.3,89.7,62.4,142.5,75.5c18.4,4.6,36.6,6.5,54.8,6.5
			c39.9,0,79.3-9.3,118.2-20.8c47.9-14.1,92.6-28.9,140.2-29.3c13-0.1,25.9-0.2,38.8-0.2c2.2,0,4.4,0,6.7,0
			c22.7,0,45.3,0.4,68.4,0.4c3.8,0,7.5,0,11.3,0v-0.3C602.6,272.5,598.8,272.5,595.1,272.5z"/>
	</g>
	<g>
		<path class="st0" d="M519.4,271.1c-12.8,0.6-25.7,1.1-38.6,1.8c-47.3,2.3-91.9,18.1-139.8,32.8c-39.7,12.2-80.1,21.8-120.9,21.8
			c-18.1,0-36.2-1.9-54.4-6.3c-53.2-12.8-102.2-40.4-143.1-74.6c-8.2-6.9-15.8-14.1-22.8-21.6v0.4c6.9,7.5,14.4,14.6,22.6,21.4
			c41,34.3,90,61.9,143.2,74.7c18.2,4.4,36.4,6.3,54.5,6.3c40.9,0,81.3-9.6,121-21.8c47.9-14.6,92.5-30.4,139.7-32.8
			c12.9-0.6,25.8-1.2,38.6-1.8c28.8-1.3,57.5-1.5,87-2.4v-0.3C576.9,269.6,548.2,269.8,519.4,271.1z"/>
	</g>
	<g>
		<path class="st0" d="M518.7,270c-12.8,1.1-25.6,2.2-38.4,3.3c-47,4.2-91.4,21-139.2,36.2c-40.5,12.9-81.9,22.8-123.7,22.8
			c-18,0-36-1.8-54.1-6c-53.5-12.4-102.7-39.7-143.9-73.8c-7-5.8-13.5-11.8-19.6-18.1v0.4c6.1,6.2,12.5,12.1,19.4,17.9
			c41.2,34.2,90.4,61.5,144,73.9c18.1,4.2,36.2,6,54.2,6c41.9,0,83.3-9.9,123.8-22.8c47.8-15.2,92.3-32,139.2-36.2
			c12.9-1.2,25.7-2.2,38.4-3.3c29-2.5,57.9-3.6,87.7-5.2v-0.3C576.7,266.4,547.7,267.6,518.7,270z"/>
	</g>
	<g>
		<path class="st0" d="M518.1,269c-12.7,1.6-25.5,3.2-38.3,4.9c-46.6,6.1-90.9,23.9-138.7,39.6c-41.3,13.6-83.7,23.8-126.6,23.8
			c-17.8,0-35.8-1.8-53.8-5.8c-53.9-12.1-103.3-38.9-144.6-73c-5.8-4.8-11.2-9.7-16.4-14.8v0.4c5.1,5,10.5,9.9,16.2,14.6
			c41.4,34.1,90.8,61,144.7,73.1c18,4,36,5.8,53.8,5.8c42.9,0,85.3-10.2,126.7-23.8c47.8-15.7,92.1-33.5,138.6-39.6
			c12.8-1.7,25.5-3.3,38.3-4.9c29.2-3.7,58.3-5.7,88.3-8V261C576.4,263.3,547.2,265.4,518.1,269z"/>
	</g>
	<g>
		<path class="st0" d="M517.4,268c-12.7,2.1-25.3,4.3-38.1,6.5c-46.3,8-90.4,26.8-138.2,43c-42.1,14.3-85.5,24.8-129.4,24.8
			c-17.7,0-35.6-1.7-53.4-5.6C104,325,54.6,298.6,13,264.5c-4.6-3.8-9-7.6-13.2-11.6v0.4c4.2,3.9,8.5,7.7,13,11.4
			c41.6,34.1,91.1,60.5,145.5,72.3c17.9,3.9,35.7,5.6,53.5,5.6c44,0,87.4-10.5,129.5-24.8c47.8-16.3,91.9-35,138.1-43
			c12.7-2.2,25.4-4.4,38.1-6.5c29.3-4.9,58.7-7.9,89-10.8v-0.3C576.1,260.1,546.7,263.1,517.4,268z"/>
	</g>
	<g>
		<path class="st0" d="M516.7,267c-12.6,2.6-25.2,5.3-37.9,8c-46,9.9-89.9,29.7-137.6,46.5c-42.9,15.1-87.3,25.8-132.2,25.8
			c-17.6,0-35.3-1.7-53.1-5.4c-54.7-11.4-104.3-37.5-146.1-71.5c-3.4-2.8-6.8-5.7-10.1-8.6v0.4c3.2,2.9,6.5,5.7,9.9,8.4
			c41.8,34,91.5,60.1,146.2,71.5c17.8,3.7,35.5,5.4,53.1,5.4c45,0,89.4-10.8,132.3-25.9c47.8-16.8,91.7-36.6,137.6-46.5
			c12.7-2.7,25.2-5.4,37.9-8c29.5-6.1,59-10.1,89.6-13.7v-0.3C575.8,256.9,546.2,260.9,516.7,267z"/>
	</g>
	<g>
		<path class="st0" d="M516.1,266c-12.6,3.1-25.1,6.3-37.7,9.6c-45.6,11.8-89.3,32.6-137.1,49.9c-43.7,15.8-89.1,26.9-135.1,26.9
			c-17.5,0-35.1-1.6-52.7-5.2C98.4,336.1,48.6,310.4,6.6,276.5c-2.3-1.9-4.6-3.8-6.9-5.8v0.4c2.2,1.9,4.4,3.8,6.7,5.6
			c42,33.9,91.9,59.6,147,70.7c17.6,3.6,35.3,5.2,52.8,5.2c46,0,91.5-11.1,135.2-26.9c47.8-17.3,91.5-38.1,137.1-49.9
			c12.6-3.3,25.1-6.5,37.7-9.6c29.7-7.4,59.4-12.3,90.3-16.7v-0.3C575.5,253.7,545.7,258.6,516.1,266z"/>
	</g>
	<g>
		<path class="st0" d="M515.4,265c-12.5,3.7-25,7.4-37.5,11.2c-45.3,13.7-88.8,35.5-136.6,53.3c-44.5,16.6-90.9,27.9-137.9,27.9
			c-17.4,0-34.9-1.6-52.4-5C95.6,341.6,45.6,316.4,3.5,282.6c-1.2-1-2.5-2-3.7-3v0.4c1.2,1,2.3,1.9,3.5,2.9
			c42.2,33.9,92.2,59.1,147.7,70c17.5,3.4,35,5,52.4,5c47.1,0,93.5-11.3,138-27.9c47.8-17.8,91.3-39.6,136.5-53.3
			c12.5-3.8,25-7.5,37.5-11.2c29.8-8.7,59.8-14.6,90.9-19.6v-0.3C575.3,250.4,545.3,256.3,515.4,265z"/>
	</g>
	<g>
		<path class="st0" d="M514.7,264c-12.5,4.2-24.9,8.4-37.3,12.7c-44.9,15.6-88.3,38.4-136,56.7c-45.3,17.4-92.7,28.9-140.8,28.9
			c-17.3,0-34.6-1.5-52-4.8c-55.8-10.5-106-35.3-148.3-69.1c-0.2-0.1-0.3-0.3-0.5-0.4v0.4c0.1,0.1,0.2,0.2,0.3,0.3
			c42.4,33.8,92.6,58.7,148.5,69.2c17.4,3.3,34.7,4.8,52,4.8c48.1,0,95.6-11.6,140.9-29c47.8-18.3,91.1-41.2,136-56.7
			c12.4-4.3,24.8-8.6,37.3-12.7c30-10,60.2-16.9,91.6-22.6v-0.3C575,247.1,544.8,254,514.7,264z"/>
	</g>
	<g>
		<path class="st0" d="M514.1,263c-12.4,4.7-24.8,9.5-37.2,14.3c-44.6,17.5-87.8,41.3-135.5,60.2c-46,18.2-94.6,30-143.7,30
			c-17.2,0-34.4-1.4-51.6-4.6c-55-10-104.4-33.6-146.4-66.2v0.4c42,32.6,91.4,56.2,146.4,66.1c17.2,3.1,34.5,4.6,51.6,4.6
			c49.1,0,97.7-11.8,143.8-30c47.8-18.8,90.9-42.7,135.5-60.2c12.4-4.8,24.7-9.6,37.1-14.3c30.1-11.3,60.6-19.2,92.2-25.6v-0.3
			C574.7,243.8,544.2,251.7,514.1,263z"/>
	</g>
	<g>
		<path class="st0" d="M513.4,262c-12.4,5.2-24.7,10.5-37,15.9c-44.3,19.3-87.2,44.3-135,63.6c-46.8,19-96.4,31-146.6,31
			c-17,0-34.1-1.4-51.2-4.4c-54-9.4-102.5-31.8-144-63v0.4c41.5,31.2,89.9,53.6,143.9,63c17.1,3,34.2,4.4,51.2,4.4
			c50.2,0,99.8-12.1,146.7-31c47.7-19.4,90.7-44.3,135-63.6c12.3-5.4,24.6-10.7,37-15.9c30.3-12.7,60.9-21.6,92.9-28.7v-0.3
			C574.4,240.4,543.7,249.3,513.4,262z"/>
	</g>
	<g>
		<path class="st0" d="M512.7,261c-12.3,5.7-24.6,11.5-36.8,17.4c-44,21.1-86.7,47.2-134.4,67c-47.6,19.8-98.3,32-149.6,32
			c-16.8,0-33.8-1.3-50.6-4.1c-53-9-100.6-30-141.6-59.9v0.4c41,29.9,88.5,50.9,141.5,59.9c16.9,2.8,33.8,4.1,50.7,4.1
			c51.3,0,102-12.2,149.7-32c47.7-19.9,90.5-45.9,134.4-67c12.2-5.9,24.4-11.7,36.8-17.4c30.4-14,61.3-23.9,93.5-31.7v-0.3
			C574.1,237,543.2,246.9,512.7,261z"/>
	</g>
	<g>
		<path class="st0" d="M512.1,260c-12.3,6.2-24.4,12.5-36.6,19c-43.7,23-86.2,50.1-133.9,70.5c-48.4,20.6-100.2,33.1-152.5,33.1
			c-16.7,0-33.5-1.3-50.2-3.9c-52-8.5-98.7-28.3-139.1-56.9v0.4c40.4,28.6,87.1,48.4,139.1,56.8c16.7,2.7,33.5,3.9,50.3,3.9
			c52.4,0,104.2-12.4,152.6-33.1c47.7-20.4,90.3-47.5,133.9-70.5c12.1-6.4,24.3-12.8,36.6-19c30.6-15.5,61.6-26.4,94.2-34.8v-0.3
			C573.8,233.6,542.7,244.5,512.1,260z"/>
	</g>
	<g>
		<path class="st0" d="M511.4,259c-12.3,6.7-24.3,13.6-36.4,20.6c-43.4,24.9-85.7,53-133.4,73.9c-49.2,21.5-102.1,34.1-155.4,34.1
			c-16.6,0-33.2-1.2-49.7-3.8c-51-8-96.8-26.7-136.7-54v0.4c39.9,27.3,85.7,46,136.6,53.9c16.6,2.5,33.2,3.8,49.8,3.8
			c53.4,0,106.3-12.6,155.6-34.1c47.8-20.9,90.1-49,133.4-73.9c12.1-7,24.2-13.9,36.4-20.6c30.7-16.9,62-28.8,94.8-38V221
			C573.5,230.1,542.2,242.1,511.4,259z"/>
	</g>
	<g>
		<path class="st0" d="M510.8,258c-12.2,7.2-24.2,14.6-36.2,22.1c-43,26.8-85.1,56.1-132.8,77.3c-49.9,22.4-103.8,35.2-158.2,35.2
			c-16.5,0-33-1.2-49.4-3.6c-50-7.5-94.9-25.1-134.3-51.2v0.4c39.3,26,84.2,43.6,134.2,51.1c16.5,2.4,33,3.6,49.5,3.6
			c54.5,0,108.4-12.8,158.4-35.2c47.8-21.3,89.9-50.5,132.9-77.3c12-7.5,24-14.9,36.2-22.1c30.9-18.3,62.4-31.3,95.5-41.1v-0.3
			C573.2,226.6,541.7,239.7,510.8,258z"/>
	</g>
	<g>
		<path class="st0" d="M510.1,257c-12.2,7.7-24.1,15.7-36,23.7c-42.7,28.7-84.6,58.9-132.3,80.7C291,384.6,236,397.6,180.5,397.6
			c-16.3,0-32.6-1.1-48.9-3.4c-49-7-93.1-23.6-131.8-48.4v0.4c38.7,24.8,82.8,41.3,131.8,48.3c16.3,2.3,32.6,3.4,48.9,3.4
			c55.6,0,110.7-13,161.4-36.3c47.8-21.8,89.7-52.1,132.4-80.7c11.9-8,23.9-16,36-23.7c31-19.7,62.7-33.8,96.1-44.3v-0.3
			C572.9,223.1,541.2,237.2,510.1,257z"/>
	</g>
	<g>
		<path class="st0" d="M509.4,256c-55.4,37.6-106.5,80.9-167.6,109.4c-51.6,24.1-107.7,37.3-164.4,37.3c-16.1,0-32.2-1.1-48.3-3.3
			c-48.1-6.6-91.2-22.2-129.4-45.7v0.4c38.2,23.6,81.3,39.1,129.4,45.7c16.1,2.2,32.2,3.3,48.3,3.3c56.7,0,112.9-13.3,164.5-37.4
			c61.1-28.6,112.3-71.8,167.7-109.4c31.2-21.2,63.1-36.3,96.8-47.5v-0.3C572.7,219.6,540.7,234.8,509.4,256z"/>
	</g>
</g>
<g>
	<g>
		<path class="st0" d="M487.8,205.8c-40.8,20.9-85,30.2-129.7,30.2c-90.5,0-182.9-37.9-252.2-93.5C58.8,104.7,21.1,56-0.2-0.2v0.4
			c21.4,56,59,104.6,105.9,142.3c69.4,55.7,161.8,93.6,252.3,93.6c44.7,0,89-9.3,129.8-30.2c45.9-23.6,84.1-57.4,118.6-95v-0.2
			C571.9,148.4,533.7,182.2,487.8,205.8z"/>
	</g>
	<g>
		<path class="st0" d="M540.7,172.4c-16.7,12.4-34.4,23.6-53.4,33.2c-2,1-4,2-6,3c-18,8.6-36.6,15.1-55.6,19.7
			c-23.1,5.5-46.8,8.1-70.7,8.1c-32.3,0-64.8-4.8-96.5-13.4c-55.7-15.2-108.6-42.1-152.6-76.1c-17.5-13.6-33.9-28.6-48.6-45
			C33.5,75.3,13.4,45.3-0.2,12v0.4C13.5,45.6,33.4,75.5,57.2,102c14.7,16.4,31,31.5,48.6,45c44.1,34,97,60.9,152.7,76.1
			c31.7,8.6,64.2,13.4,96.6,13.4c23.8,0,47.5-2.6,70.7-8.1c19-4.6,37.6-11.1,55.6-19.7c2-1,4-2,6-3c19-9.6,36.7-20.8,53.4-33.2
			c23.8-17.7,45.4-38.2,65.7-60.1v-0.2C586.1,134.2,564.5,154.7,540.7,172.4z"/>
	</g>
	<g>
		<path class="st0" d="M540.4,173c-16.8,12.1-34.5,23-53.5,32.5c-2,1-4,2-6,2.9c-18,8.5-36.5,15.2-55.4,19.8
			c-24.1,5.9-48.7,8.7-73.5,8.7c-31.1,0-62.5-4.4-93.1-12.3c-55.6-14.5-108.5-40.2-152.9-73.1c-17.7-13.1-34.1-27.7-49-43.7
			C33.8,83,13.7,55.1-0.2,23.7v0.4c13.9,31.3,34,59.1,57,83.9c14.9,16,31.4,30.6,49,43.7c44.4,32.9,97.3,58.6,152.9,73.1
			c30.6,7.9,62,12.3,93.2,12.3c24.8,0,49.5-2.8,73.5-8.7c18.9-4.7,37.5-11.3,55.4-19.8c2-1,4-1.9,6-2.9c19-9.5,36.7-20.4,53.5-32.5
			c23.9-17.2,45.6-37.4,65.9-59.1v-0.2C586,135.5,564.3,155.7,540.4,173z"/>
	</g>
	<g>
		<path class="st0" d="M540.1,173.5c-16.9,11.8-34.7,22.3-53.6,31.7c-2,1-4,2-6,2.9c-18,8.5-36.4,15.2-55.2,20
			c-25,6.4-50.7,9.3-76.4,9.3c-30,0-60.1-4-89.6-11.3c-55.5-13.7-108.4-38.3-153.1-70.1c-17.8-12.7-34.4-26.8-49.5-42.3
			C34,90.6,13.9,64.6-0.2,35v0.3C13.9,64.9,34,90.7,56.4,113.9c15.1,15.6,31.7,29.7,49.5,42.3c44.7,31.8,97.7,56.4,153.2,70.1
			c29.6,7.3,59.7,11.3,89.7,11.3c25.8,0,51.4-3,76.5-9.3c18.8-4.8,37.3-11.5,55.3-20c2-1,4-1.9,6-2.9c18.9-9.4,36.7-20,53.7-31.7
			c24.1-16.7,45.8-36.7,66.2-58.1v-0.2C586,136.8,564.2,156.8,540.1,173.5z"/>
	</g>
	<g>
		<path class="st0" d="M539.8,174.1c-17,11.4-34.9,21.7-53.8,31c-2,1-4,1.9-6,2.9c-17.9,8.4-36.3,15.2-55,20.1
			c-26,6.8-52.7,9.9-79.5,9.9c-28.8,0-57.7-3.6-86.1-10.2C204,214.8,151,191.3,106,160.6c-17.9-12.2-34.7-25.8-49.9-41
			C34.3,98,14.2,73.8-0.2,45.9v0.3C14.2,74.1,34.2,98.2,56,119.8c15.2,15.1,32.1,28.7,49.9,41c45,30.7,98,54.1,153.4,67.1
			c28.4,6.6,57.3,10.3,86.1,10.3c26.8,0,53.5-3.1,79.5-9.9c18.8-4.9,37.1-11.7,55.1-20.1c2-0.9,4-1.9,6-2.9
			c18.9-9.3,36.8-19.5,53.8-31c24.2-16.3,46.1-35.9,66.5-57.1v-0.2C585.9,138.1,564,157.8,539.8,174.1z"/>
	</g>
	<g>
		<path class="st0" d="M539.5,174.7c-17.1,11.1-35,21.1-53.9,30.2c-2,1-4,1.9-6,2.9c-17.9,8.3-36.2,15.2-54.8,20.2
			c-27,7.3-54.8,10.6-82.6,10.6c-27.5,0-55.1-3.3-82.4-9.3c-55.3-12.3-108.3-34.6-153.6-64.1c-18-11.8-35-24.9-50.4-39.6
			c-21.3-20.3-41.3-42.8-56-69.1v0.3c14.6,26.2,34.6,48.7,55.9,68.9c15.4,14.7,32.4,27.8,50.4,39.6c45.3,29.5,98.3,51.9,153.7,64.1
			c27.3,6,54.9,9.3,82.4,9.3c27.9,0,55.6-3.3,82.6-10.6c18.7-5,37-11.9,54.9-20.2c2-0.9,4-1.9,6-2.9c18.9-9.2,36.8-19.1,53.9-30.2
			c24.4-15.8,46.3-35.2,66.8-56.2v-0.2C585.8,139.5,563.9,158.9,539.5,174.7z"/>
	</g>
	<g>
		<path class="st0" d="M539.2,175.3C522,186,504,195.7,485.1,204.7c-2,1-4,1.9-6,2.8c-17.9,8.3-36.1,15.2-54.6,20.3
			c-28.1,7.7-56.9,11.3-85.8,11.3c-26.2,0-52.6-2.9-78.6-8.3c-55.2-11.5-108.2-32.7-153.9-61.1c-18.1-11.3-35.2-24-50.8-38.3
			c-20.8-19-40.7-40-55.6-64.7v0.3c14.8,24.7,34.8,45.6,55.5,64.5c15.6,14.3,32.8,26.9,50.8,38.3c45.6,28.4,98.7,49.6,153.9,61.2
			c26.1,5.4,52.4,8.3,78.6,8.3c28.9,0,57.8-3.6,85.9-11.3c18.6-5.1,36.8-12.1,54.7-20.3c2-0.9,4-1.9,6-2.8
			c18.9-9.1,36.9-18.7,54.1-29.5c24.5-15.3,46.5-34.4,67.2-55.2V120C585.8,140.8,563.8,159.9,539.2,175.3z"/>
	</g>
	<g>
		<path class="st0" d="M538.9,175.8c-17.3,10.5-35.3,19.8-54.2,28.7c-2,0.9-4,1.9-6,2.8c-17.8,8.2-35.9,15.2-54.5,20.5
			c-29.2,8.3-59.1,12-89.2,12c-24.9,0-49.9-2.6-74.7-7.4c-55.1-10.8-108.2-30.9-154.1-58.2C88,163.4,70.7,151.2,55,137.4
			c-20.3-17.8-40.2-37.3-55.2-60.6v0.3c15,23.2,34.9,42.7,55.1,60.4c15.8,13.8,33.1,26,51.3,36.9c45.9,27.3,99,47.4,154.1,58.2
			c24.8,4.8,49.8,7.4,74.8,7.4c30.1,0,60-3.8,89.2-12.1c18.5-5.2,36.6-12.3,54.5-20.5c2-0.9,4-1.9,6-2.8
			c18.9-8.9,36.9-18.3,54.2-28.7c24.7-14.8,46.8-33.7,67.4-54.3v-0.2C585.7,142.1,563.6,161,538.9,175.8z"/>
	</g>
	<g>
		<path class="st0" d="M538.6,176.4c-17.4,10.1-35.5,19.2-54.4,28c-2,0.9-4,1.9-6,2.8c-17.8,8.1-35.8,15.3-54.3,20.6
			c-30.3,8.8-61.4,12.8-92.6,12.8c-23.6,0-47.2-2.3-70.7-6.5c-55-10.1-108.1-29-154.3-55.2c-18.3-10.4-35.7-22.2-51.7-35.5
			C34.8,126.7,15,108.5-0.2,86.5v0.3c15.2,21.9,34.9,40.1,54.7,56.6c16,13.4,33.4,25.1,51.7,35.6c46.3,26.2,99.4,45.1,154.4,55.2
			c23.5,4.3,47.2,6.5,70.8,6.5c31.3,0,62.3-4,92.7-12.8c18.4-5.3,36.5-12.5,54.3-20.6c2-0.9,4-1.8,6-2.8c18.9-8.8,37-17.9,54.4-28
			c24.8-14.4,47-32.9,67.7-53.3V123C585.6,143.4,563.5,162,538.6,176.4z"/>
	</g>
	<g>
		<path class="st0" d="M538.3,177c-17.5,9.8-35.6,18.5-54.5,27.3c-2,0.9-4,1.8-6,2.7c-17.8,8.1-35.7,15.3-54.1,20.7
			c-31.5,9.4-63.7,13.6-96.2,13.6c-22.2,0-44.4-2-66.6-5.7c-54.9-9.3-108-27.1-154.6-52.2c-18.4-10-36-21.2-52.2-34.2
			c-19.4-15.5-39-32.5-54.4-53.2v0.3c15.4,20.6,35,37.6,54.3,53c16.2,13,33.8,24.2,52.2,34.2c46.6,25.1,99.7,42.9,154.6,52.2
			c22.2,3.7,44.5,5.7,66.6,5.7c32.5,0,64.7-4.3,96.2-13.7c18.3-5.5,36.3-12.7,54.1-20.7c2-0.9,4-1.8,6-2.7
			c18.9-8.7,37-17.5,54.5-27.3c25-13.9,47.2-32.2,68-52.3v-0.2C585.6,144.8,563.3,163.1,538.3,177z"/>
	</g>
	<g>
		<path class="st0" d="M538,177.5c-17.6,9.5-35.7,17.9-54.7,26.5c-2,0.9-4,1.8-6,2.7c-17.8,8-35.6,15.3-53.9,20.8
			c-32.7,10-66.2,14.5-99.9,14.5c-20.7,0-41.6-1.7-62.4-4.9c-54.8-8.6-108-25.2-154.8-49.2c-18.5-9.5-36.3-20.3-52.6-32.8
			c-19-14.5-38.5-30.3-54-49.8v0.2c15.5,19.4,35,35.2,53.9,49.7c16.4,12.5,34.1,23.3,52.6,32.9c46.8,24,100,40.6,154.9,49.2
			c20.8,3.2,41.6,4.9,62.4,4.9c33.7,0,67.2-4.5,99.9-14.5c18.3-5.6,36.1-12.8,53.9-20.9c2-0.9,4-1.8,6-2.7c18.9-8.6,37-17,54.7-26.5
			c25.2-13.4,47.5-31.4,68.3-51.4v-0.2C585.5,146.1,563.2,164.1,538,177.5z"/>
	</g>
	<g>
		<path class="st0" d="M537.7,178.1c-17.7,9.1-35.9,17.3-54.8,25.8c-2,0.9-4,1.8-6,2.7c-17.7,7.9-35.5,15.3-53.7,21
			c-33.9,10.6-68.7,15.4-103.7,15.4c-19.3,0-38.6-1.4-58-4.2c-54.7-7.9-107.9-23.3-155.1-46.2c-18.6-9.1-36.5-19.4-53.1-31.5
			c-18.6-13.6-38-28.3-53.6-46.6v0.2c15.6,18.2,35,32.9,53.5,46.5c16.6,12.1,34.4,22.4,53.1,31.5c47.1,22.9,100.4,38.4,155.1,46.2
			c19.4,2.7,38.7,4.2,58,4.2c35.1,0,69.8-4.8,103.8-15.4c18.2-5.7,36-13,53.7-21c2-0.9,4-1.8,6-2.7c18.9-8.5,37.1-16.6,54.8-25.8
			c25.3-12.9,47.7-30.7,68.6-50.4v-0.2C585.4,147.4,563,165.2,537.7,178.1z"/>
	</g>
	<g>
		<path class="st0" d="M537.4,178.7c-17.8,8.8-36,16.6-54.9,25c-2,0.9-4,1.8-6,2.7c-17.7,7.9-35.4,15.3-53.5,21.1
			c-35.2,11.3-71.3,16.4-107.7,16.4c-17.8,0-35.6-1.2-53.5-3.5c-54.6-7.1-107.9-21.4-155.3-43.2C87.8,188.5,69.8,178.6,53,167
			c-18.2-12.7-37.5-26.4-53.2-43.5v0.2c15.7,17.1,35,30.8,53.2,43.4c16.8,11.7,34.8,21.5,53.5,30.2c47.5,21.8,100.7,36.1,155.4,43.2
			c17.9,2.3,35.7,3.5,53.5,3.5c36.4,0,72.5-5.1,107.7-16.4c18.1-5.8,35.8-13.2,53.5-21.1c2-0.9,4-1.8,6-2.7
			c18.9-8.4,37.1-16.2,54.9-25c25.5-12.5,47.9-29.9,68.9-49.4v-0.2C585.4,148.7,562.9,166.2,537.4,178.7z"/>
	</g>
	<g>
		<path class="st0" d="M537.1,179.3c-17.9,8.5-36.2,16-55.1,24.3c-2,0.9-4,1.7-6,2.6c-17.7,7.8-35.3,15.3-53.3,21.2
			c-36.5,12-74,17.4-111.8,17.4c-16.2,0-32.5-1-48.8-2.9c-54.5-6.4-107.8-19.5-155.6-40.2c-18.8-8.2-37-17.6-54-28.8
			c-17.9-11.8-37-24.6-52.9-40.7v0.2c15.8,16.1,35,28.8,52.8,40.6c17,11.2,35.1,20.6,54,28.8c47.8,20.7,101.1,33.9,155.6,40.3
			c16.3,1.9,32.6,2.9,48.8,2.9c37.9,0,75.3-5.4,111.9-17.4c18-5.9,35.6-13.4,53.3-21.2c2-0.9,4-1.8,6-2.6
			c18.9-8.3,37.2-15.8,55.1-24.3c25.6-12,48.2-29.2,69.2-48.5v-0.2C585.3,150.1,562.7,167.2,537.1,179.3z"/>
	</g>
	<g>
		<path class="st0" d="M536.8,179.8c-18,8.1-36.3,15.4-55.2,23.5c-2,0.9-4,1.7-6,2.6c-17.6,7.7-35.2,15.4-53.1,21.4
			c-37.9,12.8-76.8,18.4-116.2,18.4c-14.6,0-29.2-0.8-43.9-2.3c-54.4-5.7-107.7-17.7-155.8-37.3c-18.9-7.7-37.3-16.7-54.4-27.4
			c-17.5-11-36.5-22.9-52.5-38v0.2c15.9,15.1,34.9,26.9,52.4,37.9c17.1,10.8,35.5,19.7,54.4,27.5C154.7,226,208,238,262.4,243.6
			c14.7,1.5,29.3,2.3,43.9,2.3c39.4,0,78.2-5.7,116.2-18.5c17.9-6,35.5-13.6,53.1-21.4c2-0.9,4-1.7,6-2.6
			c18.9-8.2,37.2-15.4,55.2-23.5c25.8-11.5,48.4-28.4,69.5-47.5v-0.2C585.2,151.4,562.6,168.3,536.8,179.8z"/>
	</g>
	<g>
		<path class="st0" d="M536.5,180.4c-18.1,7.8-36.5,14.7-55.4,22.8c-2,0.8-4,1.7-6,2.6c-17.6,7.7-35.1,15.4-52.9,21.5
			c-39.4,13.6-79.7,19.6-120.6,19.6c-12.9,0-25.8-0.6-38.9-1.7c-54.3-4.9-107.7-15.8-156.1-34.3c-19.1-7.3-37.5-15.8-54.9-26.1
			c-17.2-10.3-36.1-21.2-52.1-35.4v0.2c16,14.1,34.8,25.1,52,35.3c17.3,10.3,35.8,18.8,54.9,26.1c48.4,18.5,101.7,29.4,156.1,34.3
			c13,1.1,26,1.7,38.9,1.7c41,0,81.3-6,120.7-19.6c17.9-6.1,35.3-13.8,52.9-21.5c2-0.9,4-1.7,6-2.6c18.9-8.1,37.3-15,55.4-22.8
			c25.9-11.1,48.6-27.7,69.8-46.6v-0.2C585.2,152.7,562.4,169.3,536.5,180.4z"/>
	</g>
	<g>
		<path class="st0" d="M536.2,181c-18.2,7.5-36.6,14.1-55.5,22c-2,0.8-4,1.7-6,2.5c-17.6,7.6-34.9,15.4-52.7,21.6
			c-40.9,14.4-82.7,20.8-125.3,20.8c-11.2,0-22.4-0.4-33.6-1.3c-54.2-4.2-107.6-13.9-156.3-31.3c-19.2-6.8-37.8-14.9-55.3-24.7
			c-16.9-9.5-35.6-19.7-51.7-33v0.2c16.1,13.2,34.7,23.4,51.6,32.9c17.5,9.9,36.2,17.9,55.3,24.7c48.7,17.4,102.1,27.1,156.3,31.3
			c11.3,0.8,22.5,1.3,33.6,1.3c42.6,0,84.5-6.4,125.4-20.8c17.8-6.2,35.1-14,52.7-21.6c2-0.9,4-1.7,6-2.5
			c18.9-7.9,37.3-14.6,55.5-22c26.1-10.6,48.9-26.9,70.1-45.6v-0.2C585.1,154,562.3,170.4,536.2,181z"/>
	</g>
	<g>
		<path class="st0" d="M535.9,181.5c-18.3,7.1-36.8,13.5-55.7,21.3c-2,0.8-4,1.7-6,2.5c-17.6,7.5-34.8,15.4-52.5,21.7
			c-42.5,15.3-85.9,22-130.3,22c-9.3,0-18.7-0.3-28.2-0.9c-54.1-3.5-107.5-12.1-156.5-28.3c-19.3-6.4-38-13.9-55.8-23.4
			c-16.6-8.8-35.2-18.2-51.3-30.6v0.2c16.1,12.4,34.6,21.7,51.2,30.6c17.8,9.4,36.5,17,55.8,23.4c49,16.2,102.4,24.8,156.6,28.3
			c9.4,0.6,18.8,0.9,28.2,0.9c44.4,0,87.8-6.7,130.3-22c17.7-6.3,35-14.2,52.5-21.7c2-0.8,4-1.7,5.9-2.5
			c18.9-7.8,37.3-14.1,55.7-21.3c26.2-10.1,49.1-26.2,70.4-44.7v-0.2C585,155.3,562.2,171.4,535.9,181.5z"/>
	</g>
	<g>
		<path class="st0" d="M535.6,182.1c-18.4,6.8-36.9,12.8-55.8,20.5c-2,0.8-4,1.6-5.9,2.5c-17.5,7.5-34.7,15.4-52.3,21.9
			c-44.1,16.2-89.1,23.3-135.4,23.3c-7.5,0-14.9-0.2-22.5-0.5c-54.1-2.7-107.4-10.2-156.8-25.3c-19.4-5.9-38.3-13-56.2-22
			c-16.3-8.2-34.8-16.9-50.9-28.4v0.2c16.2,11.5,34.5,20.2,50.9,28.4c18,9,36.8,16.1,56.2,22c49.4,15.1,102.8,22.6,156.8,25.3
			c7.5,0.4,15,0.5,22.5,0.5c46.3,0,91.3-7.1,135.4-23.3c17.6-6.5,34.8-14.4,52.3-21.9c2-0.8,4-1.7,5.9-2.5
			c18.9-7.7,37.4-13.7,55.8-20.5c26.4-9.7,49.3-25.4,70.7-43.7v-0.2C585,156.7,562,172.5,535.6,182.1z"/>
	</g>
	<g>
		<path class="st0" d="M535.3,182.7c-18.5,6.5-37.1,12.2-56,19.8c-2,0.8-4,1.6-5.9,2.5c-17.5,7.4-34.6,15.4-52.1,22
			c-45.8,17.2-92.5,24.7-140.8,24.7c-5.5,0-11-0.1-16.5-0.3c-54-2-107.4-8.3-157-22.3c-19.5-5.5-38.5-12.1-56.7-20.7
			c-16.1-7.6-34.3-15.5-50.5-26.3v0.2c16.2,10.7,34.4,18.7,50.5,26.3c18.2,8.5,37.2,15.2,56.7,20.7c49.7,14,103.1,20.3,157.1,22.3
			c5.5,0.2,11,0.3,16.5,0.3c48.3,0,95-7.5,140.8-24.7c17.5-6.6,34.6-14.6,52.1-22c2-0.8,4-1.7,5.9-2.5c18.9-7.6,37.4-13.3,55.9-19.8
			c26.5-9.2,49.6-24.7,71-42.7v-0.2C584.9,158,561.9,173.5,535.3,182.7z"/>
	</g>
	<g>
		<path class="st0" d="M535,183.3c-18.6,6.2-37.2,11.6-56.1,19c-2,0.8-4,1.6-5.9,2.4c-17.5,7.3-34.5,15.4-51.9,22.1
			c-47.6,18.3-96.1,26.2-146.5,26.2c-3.4,0-6.9,0-10.3-0.1c-53.9-1.3-107.3-6.5-157.3-19.4c-19.6-5-38.7-11.2-57.1-19.3
			C34.1,207.3,16,200-0.2,190v0.2c16.2,10,34.3,17.3,50.1,24.2c18.4,8.1,37.5,14.3,57.1,19.3c50,12.9,103.4,18.1,157.3,19.4
			c3.4,0.1,6.9,0.1,10.3,0.1c50.4,0,98.9-7.9,146.5-26.2c17.4-6.7,34.5-14.8,51.9-22.1c2-0.8,4-1.6,5.9-2.4
			c18.9-7.5,37.5-12.9,56.1-19c26.7-8.7,49.8-23.9,71.3-41.8v-0.2C584.8,159.3,561.7,174.5,535,183.3z"/>
	</g>
	<g>
		<path class="st0" d="M534.7,183.8c-18.7,5.8-37.4,10.9-56.2,18.3c-2,0.8-4,1.6-5.9,2.4c-17.4,7.3-34.4,15.5-51.7,22.3
			c-49.4,19.4-99.8,27.7-152.4,27.7c-1.3,0-2.5,0-3.8,0c-53.8-0.5-107.2-4.6-157.5-16.4c-19.7-4.6-39-10.3-57.5-18
			c-15.6-6.4-33.5-13.1-49.8-22.4v0.2c16.2,9.3,34.1,15.9,49.7,22.3c18.6,7.6,37.9,13.4,57.6,18c50.3,11.8,103.8,15.8,157.5,16.4
			c1.3,0,2.5,0,3.8,0c52.7,0,103-8.3,152.5-27.8c17.4-6.8,34.3-15,51.7-22.3c2-0.8,4-1.6,5.9-2.4c18.8-7.4,37.5-12.5,56.2-18.3
			c26.8-8.3,50-23.2,71.6-40.8v-0.2C584.8,160.6,561.6,175.6,534.7,183.8z"/>
	</g>
	<g>
		<path class="st0" d="M534.4,184.4c-18.8,5.5-37.5,10.3-56.4,17.6c-2,0.8-4,1.6-5.9,2.4c-17.4,7.2-34.3,15.5-51.6,22.4
			c-50.4,20.2-101.7,29.1-155.7,29.4c-1.6,0-3.2,0-4.8,0c-52.1,0-103.9-3.2-153-13.4c-19.8-4.2-39.2-9.4-58-16.6
			c-15.3-5.9-33.1-11.9-49.4-20.5v0.2c16.2,8.6,34,14.6,49.3,20.5c18.8,7.2,38.2,12.4,58,16.6c49.1,10.2,100.9,13.4,153,13.4
			c1.6,0,3.2,0,4.8,0c54-0.3,105.3-9.2,155.7-29.4c17.3-6.9,34.1-15.2,51.6-22.4c2-0.8,4-1.6,5.9-2.4c18.8-7.3,37.6-12.1,56.4-17.6
			c27-7.8,50.3-22.5,71.9-39.9v-0.2C584.7,161.9,561.4,176.6,534.4,184.4z"/>
	</g>
	<g>
		<path class="st0" d="M534.1,185c-18.9,5.2-37.7,9.7-56.5,16.8c-2,0.7-3.9,1.5-5.9,2.3c-17.4,7.1-34.2,15.5-51.4,22.5
			c-50.2,20.6-101.2,30-155.1,31c-7.8,0.1-15.6,0.2-23.4,0.2c-45.7,0-91.1-2.6-134.6-10.6c-19.9-3.7-39.5-8.6-58.4-15.3
			c-15.1-5.4-32.7-10.8-49-18.8v0.2c16.2,7.9,33.8,13.4,48.9,18.7c19,6.7,38.6,11.5,58.5,15.3c43.5,8,88.9,10.6,134.6,10.6
			c7.8,0,15.6-0.1,23.4-0.2c54-1.1,104.9-10.5,155.2-31c17.2-7,34-15.4,51.4-22.5c2-0.8,3.9-1.6,5.9-2.3
			c18.8-7.2,37.6-11.6,56.5-16.8c27.1-7.3,50.5-21.7,72.2-38.9V146C584.6,163.2,561.3,177.6,534.1,185z"/>
	</g>
	<g>
		<path class="st0" d="M533.8,185.5c-19,4.8-37.8,9-56.7,16.1c-2,0.7-4,1.5-5.9,2.3c-17.4,7.1-34.1,15.5-51.2,22.6
			c-50,20.9-100.7,30.9-154.6,32.7c-14.3,0.4-28.5,0.7-42.7,0.7c-39.1,0-77.9-2-115.5-8.1c-20-3.3-39.7-7.7-58.9-13.9
			c-14.9-4.9-32.4-9.8-48.6-17.1v0.2c16.2,7.3,33.7,12.2,48.5,17c19.2,6.3,38.9,10.6,58.9,13.9c37.6,6.1,76.4,8.1,115.5,8.1
			c14.2,0,28.5-0.3,42.7-0.7c53.9-1.8,104.6-11.8,154.6-32.7c17.1-7.1,33.8-15.6,51.2-22.6c2-0.8,3.9-1.6,5.9-2.3
			c18.8-7,37.6-11.2,56.7-16.1c27.3-6.9,50.7-21,72.5-38v-0.2C584.6,164.5,561.1,178.7,533.8,185.5z"/>
	</g>
	<g>
		<path class="st0" d="M533.5,186.1c-19.1,4.5-38,8.4-56.8,15.3c-2,0.7-3.9,1.5-5.9,2.3c-17.3,7-33.9,15.5-51,22.8
			c-49.8,21.2-100.2,31.8-154,34.3c-20.6,0.9-41.3,1.5-61.8,1.5c-32.6,0-65-1.6-96.7-6c-20.1-2.9-40-6.8-59.3-12.6
			c-14.7-4.4-32-8.8-48.2-15.5v0.2c16.2,6.7,33.5,11.1,48.2,15.4c19.4,5.8,39.3,9.7,59.4,12.6c31.7,4.4,64.1,6,96.7,6
			c20.5,0,41.2-0.6,61.8-1.5c53.9-2.5,104.2-13.1,154.1-34.3c17-7.2,33.7-15.8,51-22.8c2-0.8,3.9-1.6,5.9-2.3
			c18.8-6.9,37.7-10.8,56.8-15.3c27.4-6.4,51-20.2,72.8-37V149C584.5,165.9,561,179.7,533.5,186.1z"/>
	</g>
	<g>
		<path class="st0" d="M533.2,186.7c-19.2,4.2-38.1,7.8-57,14.6c-2,0.7-3.9,1.5-5.9,2.3c-17.3,6.9-33.8,15.5-50.8,22.9
			c-49.6,21.6-99.7,32.8-153.5,36c-26.7,1.6-53.5,2.7-80.1,2.7c-26.5,0-52.7-1.1-78.6-4.2c-20.2-2.4-40.2-5.9-59.8-11.2
			c-14.5-3.9-31.6-7.8-47.8-13.9v0.2c16.2,6.1,33.3,10,47.8,13.9c19.6,5.3,39.6,8.8,59.8,11.2c25.9,3,52.2,4.2,78.6,4.2
			c26.6,0,53.4-1.2,80.1-2.7c53.8-3.2,103.9-14.4,153.5-36c17-7.4,33.5-16,50.8-22.9c2-0.8,3.9-1.5,5.9-2.3
			c18.8-6.8,37.7-10.4,57-14.6c27.6-5.9,51.2-19.5,73.1-36.1v-0.2C584.4,167.2,560.8,180.8,533.2,186.7z"/>
	</g>
	<g>
		<path class="st0" d="M532.9,187.3c-19.3,3.8-38.3,7.1-57.1,13.8c-2,0.7-3.9,1.4-5.9,2.2c-17.3,6.9-33.7,15.6-50.6,23
			c-49.4,21.9-99.2,33.7-152.9,37.6c-32.4,2.4-65,4.2-97.4,4.2c-20.7,0-41.3-0.8-61.6-2.7c-20.3-2-40.5-5-60.2-9.9
			c-14.3-3.5-31.3-6.9-47.4-12.4v0.2c16.1,5.5,33.1,8.9,47.4,12.4c19.8,4.9,39.9,7.9,60.3,9.9c20.4,1.9,40.9,2.7,61.6,2.7
			c32.3,0,64.9-1.9,97.4-4.2c53.8-4,103.5-15.7,153-37.6c16.9-7.5,33.3-16.2,50.6-23c2-0.8,3.9-1.5,5.9-2.2
			c18.8-6.7,37.8-10,57.1-13.8c27.7-5.5,51.4-18.8,73.4-35.1v-0.2C584.4,168.5,560.7,181.8,532.9,187.3z"/>
	</g>
	<g>
		<path class="st0" d="M532.6,187.8c-19.4,3.5-38.4,6.5-57.3,13.1c-2,0.7-3.9,1.4-5.9,2.2c-17.2,6.8-33.6,15.6-50.4,23.2
			c-49.2,22.3-98.7,34.6-152.4,39.3c-37.7,3.3-75.8,6.1-113.4,6.1c-15.3,0-30.6-0.5-45.8-1.6c-20.4-1.5-40.7-4.1-60.7-8.5
			c-14.1-3.1-30.9-6-47-11v0.2c16.1,5,32.9,7.9,47,11c20,4.4,40.3,7,60.7,8.5c15.2,1.1,30.5,1.6,45.8,1.6c37.7,0,75.7-2.8,113.4-6.1
			c53.7-4.7,103.2-17,152.4-39.3c16.8-7.6,33.2-16.4,50.4-23.2c2-0.8,3.9-1.5,5.9-2.2c18.8-6.6,37.8-9.6,57.2-13.1
			c27.9-5,51.7-18,73.7-34.2v-0.2C584.3,169.8,560.5,182.8,532.6,187.8z"/>
	</g>
	<g>
		<path class="st0" d="M532.3,188.4c-19.5,3.2-38.6,5.8-57.4,12.3c-2,0.7-3.9,1.4-5.9,2.2c-17.2,6.7-33.5,15.6-50.2,23.3
			c-49,22.6-98.2,35.5-151.8,40.9c-42.6,4.3-85.6,8.3-128.3,8.3c-10.4,0-20.8-0.2-31.1-0.8c-20.5-1.1-40.9-3.3-61.1-7.2
			c-13.9-2.7-30.6-5.2-46.6-9.6v0.2c16.1,4.4,32.7,6.9,46.6,9.6c20.2,3.9,40.6,6.1,61.2,7.2c10.4,0.5,20.7,0.8,31.1,0.8
			c42.7,0,85.7-4,128.4-8.3c53.7-5.4,102.8-18.3,151.9-40.9c16.7-7.7,33-16.6,50.2-23.3c2-0.8,3.9-1.5,5.9-2.2
			c18.8-6.5,37.9-9.1,57.4-12.3c28.1-4.5,51.9-17.3,74-33.2v-0.2C584.2,171.1,560.4,183.9,532.3,188.4z"/>
	</g>
	<g>
		<path class="st0" d="M532.1,189c-19.6,2.8-38.7,5.2-57.5,11.6c-2,0.7-3.9,1.4-5.9,2.1c-17.2,6.7-33.4,15.6-50,23.4
			c-48.8,22.9-97.7,36.4-151.3,42.6c-47.1,5.4-94.8,10.8-142.2,10.8c-5.9,0-11.7-0.1-17.6-0.3c-20.6-0.6-41.2-2.4-61.6-5.8
			c-13.7-2.3-30.2-4.4-46.3-8.4v0.2c16,3.9,32.5,6,46.2,8.4c20.4,3.4,41,5.2,61.6,5.8c5.8,0.2,11.7,0.3,17.6,0.3
			c47.4,0,95.1-5.4,142.2-10.8c53.6-6.2,102.5-19.7,151.3-42.6c16.6-7.8,32.8-16.8,50-23.4c2-0.8,3.9-1.5,5.9-2.1
			c18.8-6.4,37.9-8.7,57.5-11.6c28.2-4.1,52.1-16.6,74.3-32.3v-0.2C584.2,172.4,560.3,184.9,532.1,189z"/>
	</g>
	<g>
		<path class="st0" d="M531.8,189.6c-21.8,2.8-42.9,5-63.6,13c-17.2,6.6-33.3,15.6-49.8,23.5c-48.7,23.3-97.2,37.4-150.7,44.2
			c-51.2,6.6-103.2,13.5-155,13.5c-22.4,0-44.8-1.3-67-4.5c-13.5-1.9-29.9-3.6-45.9-7.1v0.2c16,3.4,32.3,5.1,45.8,7.1
			c22.3,3.2,44.6,4.5,67,4.5c51.8,0,103.8-6.9,155-13.5c53.6-6.9,102.1-21,150.8-44.2c16.5-7.9,32.7-16.9,49.8-23.5
			c20.7-8,41.8-10.2,63.5-12.9c28.4-3.6,52.4-15.8,74.6-31.4v-0.2C584.1,173.7,560.1,185.9,531.8,189.6z"/>
	</g>
</g>
</svg>
