<?xml version="1.0" encoding="utf-8"?>
<!-- Generator: Adobe Illustrator 25.2.3, SVG Export Plug-In . SVG Version: 6.00 Build 0)  -->
<svg version="1.1" id="圖層_1" xmlns="http://www.w3.org/2000/svg" xmlns:xlink="http://www.w3.org/1999/xlink" x="0px" y="0px"
	 viewBox="0 0 400 300" style="enable-background:new 0 0 400 300;" xml:space="preserve">
<style type="text/css">
	.st0{fill:#F4F4F4;}
	.st1{fill:#D6D6D6;}
	.st2{fill:#B2B2B2;}
	.st3{fill:#E5E5E5;}
	.st4{opacity:0.6;fill:#8D8D8D;}
	.st5{fill:#999999;}
	.st6{fill:#FFFFFF;}
	.st7{fill:#414141;}
</style>
<rect class="st0" width="400" height="300"/>
<g>
	<polygon class="st1" points="221.3,225.6 109,190.3 109,106.7 221.3,130.6 	"/>
	<polygon class="st2" points="289,187.1 221.3,225.6 221.3,130.6 289,98 	"/>
	<polygon class="st3" points="109,106.7 177.5,82.8 289,98 221.3,130.6 	"/>
	<polygon class="st4" points="141.6,95.3 247.4,118.5 249.6,156.4 253.3,161.8 255.1,154.8 257.6,157 260.1,152 262,154.8 
		259.6,112.1 150.9,92.1 	"/>
	<polygon class="st4" points="155.1,116.5 221.3,88.7 232.5,90.3 169.1,119.5 	"/>
	<polygon class="st5" points="155.1,116.5 155.1,204.8 169.1,209.2 169.1,119.5 	"/>
	<path class="st6" d="M246.1,201.5c0,1-0.8,1.4-1.9,1.9l-11.5,5.8c-1.6,0.8-1.9-0.8-1.9-1.9v-17.7c0-1,0.7-1.3,1.9-1.9l11.5-5.8
		c2.4-1.2,1.7,1.3,1.9,6.1V201.5z"/>
	<polygon class="st7" points="232.1,191.4 243.5,185.8 243.5,186.5 232.1,192.2 	"/>
	<polygon class="st7" points="232.1,193.6 243.5,188 243.5,188.7 232.1,194.4 	"/>
	<polygon class="st7" points="232.1,196 243.5,190.5 243.5,191.1 232.1,196.8 	"/>
	<polygon class="st7" points="232.4,202.7 239.6,199.2 239.7,199.9 232.4,203.6 	"/>
	<polygon class="st7" points="232.4,204.4 239.6,200.9 239.7,201.6 232.4,205.2 	"/>
	<polygon class="st7" points="232.4,206.1 239.6,202.6 239.7,203.2 232.4,206.9 	"/>
</g>
</svg>
