<?xml version="1.0" encoding="utf-8"?>
<!-- Generator: Adobe Illustrator 25.2.3, SVG Export Plug-In . SVG Version: 6.00 Build 0)  -->
<svg version="1.1" id="圖層_1" xmlns="http://www.w3.org/2000/svg" xmlns:xlink="http://www.w3.org/1999/xlink" x="0px" y="0px"
	 viewBox="0 0 400 300" style="enable-background:new 0 0 400 300;" xml:space="preserve">
<style type="text/css">
	.st0{fill:#F4F4F4;}
	.st1{fill:url(#SVGID_1_);}
	.st2{fill:url(#SVGID_2_);}
	.st3{fill:url(#SVGID_3_);}
	.st4{fill:url(#SVGID_4_);}
	.st5{fill:url(#SVGID_5_);}
	.st6{fill:url(#SVGID_6_);}
	.st7{fill:url(#SVGID_7_);}
</style>
<rect class="st0" width="400" height="300"/>
<g>
	<g>
		
			<linearGradient id="SVGID_1_" gradientUnits="userSpaceOnUse" x1="199.95" y1="67.929" x2="199.95" y2="186.3591" gradientTransform="matrix(1 0 0 -1 0 300)">
			<stop  offset="0" style="stop-color:#939494"/>
			<stop  offset="0.94" style="stop-color:#CCCDCD"/>
		</linearGradient>
		<path class="st1" d="M282.8,221.4c0,0-2.5-1-6.9-2.8c-2.2-1-4.9-1.8-8-3c-3-1.2-6.6-2.1-10.4-3.3c-1-0.3-1.9-0.6-2.9-0.9
			c-1-0.2-2-0.5-3.1-0.7c-2.1-0.5-4.2-1-6.5-1.6c-2.2-0.5-4.5-0.8-6.9-1.3c-2.4-0.4-4.7-0.9-7.2-1.2s-4.9-0.6-7.5-1
			c-2.5-0.3-5.1-0.4-7.7-0.6c-1.3-0.1-2.6-0.2-3.9-0.3c-1.3-0.1-2.6-0.1-3.9-0.1c-2.6-0.1-5.3-0.1-7.9-0.2c-2.6,0.1-5.3,0.1-7.9,0.2
			c-1.3,0-2.7,0-4,0.1s-2.6,0.2-3.9,0.3c-2.6,0.2-5.1,0.4-7.6,0.6c-2.5,0.3-5,0.7-7.5,1c-2.5,0.2-4.9,0.8-7.2,1.2s-4.7,0.8-6.9,1.3
			s-4.4,1.1-6.5,1.6c-1,0.2-2.1,0.5-3.1,0.7c-1,0.3-2,0.6-2.9,0.9c-3.8,1.2-7.4,2.1-10.5,3.3c-3.1,1.1-5.8,1.9-8,3
			c-4.4,1.8-6.9,2.8-6.9,2.8s2.3-1.5,6.5-4c2-1.3,4.7-2.6,7.7-4.1c0.8-0.4,1.5-0.8,2.3-1.2c0.4-0.2,0.8-0.4,1.2-0.6
			c0.4-0.2,0.8-0.4,1.3-0.5c1.7-0.7,3.6-1.5,5.5-2.2c1-0.4,1.9-0.8,2.9-1.2c1-0.3,2-0.7,3.1-1c2.1-0.7,4.3-1.4,6.5-2.1
			c2.2-0.7,4.6-1.2,7-1.8s4.8-1.2,7.3-1.6c2.5-0.4,5.1-0.9,7.6-1.3c2.6-0.4,5.2-0.6,7.9-0.9c1.3-0.1,2.7-0.3,4-0.4
			c1.3-0.1,2.7-0.1,4-0.2c2.7-0.1,5.4-0.2,8.1-0.3c2.7,0.1,5.4,0.2,8.1,0.3c1.3,0.1,2.7,0.1,4,0.2c1.3,0.1,2.7,0.3,4,0.4
			c2.6,0.3,5.3,0.5,7.9,0.9c2.6,0.4,5.1,0.9,7.6,1.3c2.5,0.4,4.9,1,7.3,1.6c2.4,0.6,4.7,1.1,7,1.8c2.2,0.7,4.4,1.4,6.5,2.1
			c1,0.4,2.1,0.7,3.1,1c1,0.4,2,0.8,2.9,1.2c1.9,0.8,3.7,1.5,5.5,2.2c0.4,0.2,0.9,0.4,1.3,0.5c0.4,0.2,0.8,0.4,1.2,0.6
			c0.8,0.4,1.6,0.8,2.3,1.2c3,1.5,5.6,2.8,7.7,4.1C280.5,219.9,282.8,221.4,282.8,221.4z"/>
	</g>
	<g>
		
			<linearGradient id="SVGID_2_" gradientUnits="userSpaceOnUse" x1="168.1" y1="67.929" x2="168.1" y2="186.3591" gradientTransform="matrix(1 0 0 -1 0 300)">
			<stop  offset="0" style="stop-color:#939494"/>
			<stop  offset="1" style="stop-color:#CCCDCD"/>
		</linearGradient>
		<polygon class="st2" points="175.4,155.3 175.4,88.3 160.8,94.2 160.8,149.4 162.2,150 		"/>
		
			<linearGradient id="SVGID_3_" gradientUnits="userSpaceOnUse" x1="210.15" y1="67.929" x2="210.15" y2="186.3591" gradientTransform="matrix(1 0 0 -1 0 300)">
			<stop  offset="0" style="stop-color:#939494"/>
			<stop  offset="1" style="stop-color:#CCCDCD"/>
		</linearGradient>
		<path class="st3" d="M188.4,160.5v41.6c3.6-0.2,7.2-0.4,10.8-0.4v-67.2l3.9-1.6l12.4-5l2-0.8l0.6-0.3l5.8-2.4l11.7-4.7l2.3-0.9
			V94.2l-38.5-15.6l-17,6.9v72.6l2.1,0.8L188.4,160.5z"/>
		
			<linearGradient id="SVGID_4_" gradientUnits="userSpaceOnUse" x1="211.4" y1="67.929" x2="211.4" y2="186.3591" gradientTransform="matrix(1 0 0 -1 0 300)">
			<stop  offset="0" style="stop-color:#939494"/>
			<stop  offset="1" style="stop-color:#CCCDCD"/>
		</linearGradient>
		<path class="st4" d="M217.4,202.5v-68.7l-12,4.9v63.1C209.4,201.9,213.4,202.1,217.4,202.5z"/>
		
			<linearGradient id="SVGID_5_" gradientUnits="userSpaceOnUse" x1="247.1" y1="67.929" x2="247.1" y2="186.3591" gradientTransform="matrix(1 0 0 -1 0 300)">
			<stop  offset="0" style="stop-color:#939494"/>
			<stop  offset="1" style="stop-color:#CCCDCD"/>
		</linearGradient>
		<path class="st5" d="M270.3,215.7h0.1v-77.1l-32.6-13.2l0,0l-14,5.7v72.1C240.1,205.3,255.7,209.6,270.3,215.7z"/>
		
			<linearGradient id="SVGID_6_" gradientUnits="userSpaceOnUse" x1="140.75" y1="67.929" x2="140.75" y2="186.3591" gradientTransform="matrix(1 0 0 -1 0 300)">
			<stop  offset="0" style="stop-color:#939494"/>
			<stop  offset="1" style="stop-color:#CCCDCD"/>
		</linearGradient>
		<path class="st6" d="M143.9,210.7v-48.6l-6.3,2.5v48.2C139.7,212.1,141.8,211.4,143.9,210.7z"/>
		
			<linearGradient id="SVGID_7_" gradientUnits="userSpaceOnUse" x1="166.2" y1="67.929" x2="166.2" y2="186.3591" gradientTransform="matrix(1 0 0 -1 0 300)">
			<stop  offset="0" style="stop-color:#939494"/>
			<stop  offset="1" style="stop-color:#CCCDCD"/>
		</linearGradient>
		<path class="st7" d="M182.2,202.6v-37.9l-6.7-2.7l-14.6-5.9l-0.9-0.4l-9.8,4v49.2C160.4,205.8,171.2,203.7,182.2,202.6z"/>
	</g>
</g>
</svg>
