<?xml version="1.0" encoding="utf-8"?>
<!-- Generator: Adobe Illustrator 25.2.3, SVG Export Plug-In . SVG Version: 6.00 Build 0)  -->
<svg version="1.1" id="圖層_1" xmlns="http://www.w3.org/2000/svg" xmlns:xlink="http://www.w3.org/1999/xlink" x="0px" y="0px"
	 viewBox="0 0 400 300" style="enable-background:new 0 0 400 300;" xml:space="preserve">
<style type="text/css">
	.st0{fill:#F4F4F4;}
	.st1{clip-path:url(#SVGID_2_);}
	.st2{fill:url(#SVGID_3_);}
	.st3{fill:#E8E8E8;}
	.st4{fill:#595959;}
</style>
<rect class="st0" width="400" height="300"/>
<g>
	<defs>
		
			<ellipse id="SVGID_1_" transform="matrix(0.1584 -0.9874 0.9874 0.1584 -15.8415 252.7714)" cx="140.4" cy="135.7" rx="67.7" ry="67.7"/>
	</defs>
	<clipPath id="SVGID_2_">
		<use xlink:href="#SVGID_1_"  style="overflow:visible;"/>
	</clipPath>
	<g class="st1">
		<linearGradient id="SVGID_3_" gradientUnits="userSpaceOnUse" x1="80.4387" y1="99.3099" x2="250.4656" y2="169.569">
			<stop  offset="0" style="stop-color:#939494"/>
			<stop  offset="1" style="stop-color:#FFFFFF;stop-opacity:0.2"/>
		</linearGradient>
		<path class="st2" d="M156,106.8c-0.1,0.3,0.1,0.4,0.4,0.3c-0.2,0.5-0.6-0.1-0.8-0.3c0,0,0-0.1,0.1-0.2c0.1,0,0.1,0.1,0.2,0.2
			c0-0.1,0-0.1,0-0.2C155.9,106.6,156,106.7,156,106.8z M88,86.1c-0.1,0.1-0.2,0.1-0.3,0.2c-0.3-0.7-0.4-0.5-1.1-0.5
			c0.3-0.2,0.7-0.4,1-0.7c-0.1,0-0.2-0.2-0.3-0.2c0.2-0.1,0.3-0.2,0.5-0.3c-0.4-0.2-0.5-0.4-0.9-0.2c-0.4,0.1-0.6,0.3-1,0.1
			c-0.4-0.2-0.6,0-1,0c-0.2,0-0.4,0.4-0.6,0.6c0.2,0.1,0.9,0.3,0.9,0.5c0,0.4,0,0.9-0.5,0.8c-0.2,0-0.5-0.6-0.8-0.5
			c-0.3,0.1-0.7,0.3-0.3,0.6c0.6,0.5,1.4,0.7,1.9,1.3c0.2,0.3,0.4,0.7,0.8,0.8c0.3,0.1,0.8-0.2,0.7-0.6c0.5,0.2,1.9-0.7,1-1
			c0.1-0.1,0.3-0.1,0.4-0.2C88.1,86.4,88.1,86.2,88,86.1z M155.1,106.8c0,0.1-0.1,0.4,0.1,0.6c0-0.3,0-0.4,0.1-0.6
			c-0.1,0-0.2-0.1-0.3,0C155,106.7,155,106.7,155.1,106.8z M102.7,93.9c0.3,0.2,1,0.7,1.3,0.2c0.3-0.5,0.1-0.7,0.2-1.2
			C103.6,92.1,102,93.3,102.7,93.9z M107.1,88.4c-0.2-0.7-1.1-0.6-1.6-0.4c-0.3,0.1-1-1-1.3-1.3c-0.3-0.3-1.1-0.7-1.6-0.6
			c-0.2,0-0.7,0-0.9,0.2c-0.1,0.1-0.5,0.6-0.7,0.5c-0.5-0.3-0.4-0.3-0.9,0.1c-0.2,0.2-0.6,0.2-0.3-0.2c0.2-0.5,0.3-0.5,0.1-0.9
			c-0.2-0.3-0.3-0.3-0.5-0.6c-0.2-0.2-0.1-0.7-0.4-0.7c-0.2,0-0.6-0.1-0.8,0c-0.6,0.2-1.1,0.5-1.7,0.6c0.1-0.2,0.1-0.4,0.2-0.7
			c-0.9-0.1-1.3-0.1-2.1,0.3c-0.6,0.3-1,0.7-1.3,1.4c-0.1,0.3-0.5,0.8-0.4,1.1c0,0.1,0.1,1,0.2,1c0.8,0.1,1.3,0,1.9,0.6
			c-0.6-0.1-1.2-0.1-1.8-0.2c0.2,0.5,0.7,0.8,1.1,1c0.3,0.2,0.5-0.1,0.8-0.1c0.6-0.1,0.2,0.1,0.5,0.4c0.1,0.1,0.7,0.2,0.8,0.2
			c0.6,0,1.3-0.1,1.9,0.1c0.2,0.1,0.4,0.1,0.6,0.2c0.1,0,0.2-0.2,0.3-0.2c0.3,0,0.4,0.4,0.7,0.3c-0.2-0.2-0.5-0.4-0.7-0.6
			c0.9,0.3,1.5,0.5,2.4,0.3c-0.2-0.4-0.2-0.6-0.6-0.7c0.5-0.5,0.4,0.3,0.8,0.4c0.1,0.1,0.4-0.1,0.5,0c0,0.2,0.1,0.4,0.1,0.6
			c0.4-0.4,1.2,0.5,1.5,0.8c-0.6,0.2-0.8,0.1-0.8,0.8c0.3-0.1,0.6-0.2,0.9-0.3c0.4-0.1,0.3-0.2,0.6,0.2c0.3,0.5,0.9,0.3,1.2,0.9
			c0.2,0.4,0.4,0.7,0.6,1.1c0.1,0.2-0.1,0.3-0.2,0.4c-0.5,0.5-0.9,0.9-1.4,1.4c0.1,0.1,0.7,0.4,0.6,0.7c-0.1,0.1-0.9,0.3-1,0.3
			c-0.5,0.2-1.2-0.1-1.8-0.1c0.1,0.4-0.4,0.5-0.6,0.8c-0.1,0.2,0.3,0.7,0.5,0.7c0.4,0,0.8,0.1,1.1-0.2c0.3-0.3,0.7,0,1,0
			c0-0.1,0.1-0.2,0.1-0.4c0.2,0,0.4,0.1,0.4,0.4c0.6-0.4,0.6,0,1,0.6c0.2,0.3,0.6,0.3,1,0.5c-0.2,0.1-0.4,0.2-0.6,0.3
			c0.3,0.2,0.6,0.4,1,0.4c0,0.1-0.1,0.1-0.1,0.2c0.4,0.1,0.8,0.2,1.2,0.3c0.2,0,0.1,0.4,0.4,0.5c0.8,0.2,1.5,0.4,2.3,0.6
			c0-0.4,0.2-0.5-0.1-0.7c-0.3-0.2-0.6-0.4-0.8-0.6c-0.2-0.1-0.6-0.1-0.7-0.3c-0.2-0.3-0.3-0.5-0.5-0.8c0.3,0.1,0.5,0.2,0.8,0.4
			c-0.1-0.1-0.1-0.3-0.1-0.4c0.5,0.3,0.9,0.6,1.4,0.9c0.3,0.2,0.7,0.7,0.8,0.7c-0.1-0.2-0.1-0.3-0.2-0.5c0.1,0.1,0.2,0,0.3,0.1
			c0.2-0.4-0.4-0.5-0.2-0.9c0.1,0.2,0.3,0.3,0.4,0.5c0-0.3,0-0.8-0.1-1c-0.2-0.3-0.5-0.1-0.5-0.5c-0.1-0.4,0-0.5-0.4-0.7
			c-0.3-0.1-0.5-0.3-0.6,0.1c-0.1-0.3-0.2-0.6-0.3-0.9c-0.1-0.4-0.2-0.2-0.5-0.1c-0.1-0.2-0.1-0.4-0.2-0.6c0.2,0,0.4,0.1,0.6,0.1
			c0-0.4-0.5-0.4-0.2-0.8c0.2-0.3,0.4-0.2,0.6-0.1c0.2,0.1,0.5,0.6,0.7,0.7c0.2,0,0.6-0.2,0.8-0.3c0.1,0.5-0.3,0.5-0.6,0.6
			c0.5,0.6,0.8,0.9,1.5,1.2c0.1-0.4,0-0.9,0-1.3c0.6,0.4,0.8,0.1,1.4-0.2c-0.2-0.1-0.4-0.2-0.6-0.3c0.2-0.2,0.6,0,0.8,0
			c0.1-0.5,0.3-0.9-0.3-1.1c-0.3-0.1-0.9,0-1.2,0c0.1-0.2,0.2-0.3,0.3-0.5c-0.5-0.1-0.7-0.1-1.1-0.4c-0.3-0.3-0.4-0.5-0.8-0.6
			c-0.8-0.3-1.6-0.6-2.4-1c0.2,0,0.5-0.1,0.7-0.1c0-0.2-0.1-0.4-0.1-0.6c0.3,0.1,0.6,0.1,1,0.2c-0.2-0.5-0.1-0.5-0.6-0.4
			c-0.3,0-0.5-0.1-0.8-0.2c0.5-0.3,0.6-0.3,1.1-0.3c0-0.4-0.4-0.6-0.7-0.8c-0.1,0.4-0.5,0.5-0.8,0.6c0.1-0.4-0.2-0.4-0.5-0.4
			c0.4-0.1,1-0.1,1.1-0.6c-0.3-0.2-1.9-1.2-2.1-0.8c-0.2,0.4-0.7,0.7-0.9,0.3C106.2,88.8,106.9,88.5,107.1,88.4z M83.4,80.9
			c-0.2,0-0.4,0.1-0.5,0.2c0.2,0,0.4,0,0.6,0c-0.7,0.5,0.3,0.5,0.6,0.4c0.5-0.1,1-0.2,1.5-0.2c-0.1,0.2-0.2,0.3-0.4,0.2
			c0,0,0.1,0.1,0.1,0.1c-0.2,0-0.4,0.1-0.5,0.2c0.2,0,0.4,0.1,0.6,0.1c-0.1,0-0.3,0-0.4,0c0,0.3,0.3,0.3,0.6,0.4
			c0.1,0,0.2-0.2,0.4-0.2c0.4,0,1,0.2,1.3-0.1c-0.1-0.1-0.2-0.2-0.4-0.3c0.1-0.1,0.2-0.2,0.2-0.4c0.1,0.1,0.2,0.1,0.3,0.2
			c0.1-0.3-0.1-0.4-0.1-0.6c0-0.2,0.1-0.4,0.1-0.6c0-0.1-0.2-0.5-0.3-0.6c-0.2-0.1-0.5-0.3-0.6-0.2c-0.5,0.3-0.8-0.1-1.4,0.1
			c-0.6,0.2,0.4,0.3,0.5,0.6c-0.1,0-0.2,0-0.3,0c0.2,0.2,0.3,0.4,0.5,0.7c-0.2-0.1-1.8-1.6-1.7-0.6c0.2,0,0.3,0,0.5,0
			c-0.3,0.1-0.3,0.5,0.1,0.4C84.3,81.1,83.7,80.8,83.4,80.9z M83.4,91c0.1-0.6,0.4-0.5,0.8-0.2c0-0.1,0.1-0.2,0.2-0.3
			c0.5,0.7,0.4-0.2,0.4-0.6c-0.5,0.1-1.1-0.3-1.7-0.6c-0.2-0.1-1-0.4-1.1-0.6c-0.1-0.2,0.2-0.6,0-0.9c-0.3-0.7-0.5-1.8-1.2-2.2
			c-0.3-0.2-0.5-0.6-0.8-0.2c-0.1,0.2-0.6-0.2-0.8-0.3c0.2,0.3-0.2,0.4-0.1,0.6c0.1,0.2,0.1,0.4,0.2,0.6c0.2,0.4,0.3,0.9,0.5,1.3
			c-0.3,0.1-0.5,0.3-0.6,0c-0.1-0.4-0.3-0.8-0.4-1.2c-0.2-0.6-1.2-0.6-1.6-0.5c0.2,0.2,0.5,0.5,0.7,0.7c-0.2,0-0.7-0.3-0.8-0.1
			c-0.2,0.4-0.2,0.3-0.7,0.3c0.1-0.1,0.2-0.3,0.3-0.4c-0.3-0.1-1.1-0.7-1.3-0.6c-0.2,0-0.2,0.5-0.5,0.5c-0.2,0-0.4,0-0.7,0.1
			c0.4-0.3,0.7-0.7,0.2-1c-0.4-0.2-0.6-0.1-1,0.1c-0.9,0.3-1.5,0.6-2.3,1.2c0.1,0,0.2,0.1,0.3,0.2c-0.3,0.3-0.8,0.5-0.7,1
			c0.3,0,0.5,0,0.8,0c-0.1,0.1-0.1,0.2-0.1,0.3c0.5,0,1.1,0,1.6-0.1c-0.6,0.3-1.1,0.5-1.7,0.7c0.3,0.3,0.4,0.5,0.9,0.5
			c0.6,0,1.1,0,1.7,0c0.8,0,1.5,0.2,2.3,0.4c0.6,0.1-0.4,0.3-0.5,0.3c-0.4,0-0.9-0.1-1.3-0.2c-0.7-0.1-1.6,0.3-2.2,0.4
			c0.4,1.4,1.7,1.1,2.8,1.2c-0.1,0.7,0.1,1,0.7,1c0.8-0.1,1.5-0.1,2.3-0.2c0.5,0,0.7-0.4,1.2-0.5c0.3-0.1,0.4-0.1,0.7-0.3
			c0.2-0.2,0.2-0.5,0.5-0.4c0,0.1,0,0.2-0.1,0.3c0.4,0.1,0.7,0.2,1.1,0.2c-0.1,0-0.1,0.1-0.2,0.2c0.6,0,1.2,0.3,1.8,0.3
			c0.2,0,0.8-0.2,0.8-0.4c0-0.3-0.4-0.2-0.1-0.6c-0.4-0.1-0.7,0.1-1,0.4c0-0.3,0.1-0.5-0.2-0.8c0.1,0,0.2,0,0.3,0
			C83.2,90.9,83.3,90.9,83.4,91z M85.7,91.7c0.1,0.1,0.2,0.2,0.3,0.3c0.1-0.1,0.1-0.1,0.2-0.2c0,0.2,0.1,0.3,0.3,0.3
			c0-0.1,0-0.1,0.1-0.2c0.2,0.5,0.9,0.5,1.3,0.6c0.4,0.1,0.8-0.3,1.1-0.6c-0.5-0.4-0.9-0.8-1.4-1.1c-0.3-0.2-0.5-0.5-0.8-0.2
			c-0.2,0.2-0.5,0.4-0.2,0.7c-0.1,0-0.1,0-0.2,0C86.3,91.7,85.9,91.4,85.7,91.7z M155.4,106.3c0,0-0.1,0-0.1,0.1
			c0,0,0.1,0.1,0.1,0.2c0.2-0.2,0.3-0.3,0.5-0.3c0,0-0.1-0.1-0.1-0.1c0.3,0,0.3-0.5,0.1-0.4C155.6,105.8,155,106,155.4,106.3z
			 M100.3,99c-0.5-0.4-0.6-0.4-1.2-0.3c0.5-0.5-0.9-1.2-1.1-1.4c-0.2-0.1-0.5-0.1-0.7-0.3c-0.3-0.3-0.3-0.4-0.6,0
			c-0.1-0.1-0.1-0.2-0.2-0.3c0.6-0.1,0.4-0.9-0.1-0.6c-0.5,0.2-0.5,0.6-0.6,1.2c-0.1,0.2-0.1,0.5-0.1,0.7c0,0.2,0.1,0.4,0.1,0.6
			c-0.1,0.2-0.6,0.6-0.8,0.8c0.1,0,1-0.2,1.1-0.2c0.1,0.1,0.2,1,0.4,0.8c0.3-0.2,0.5-0.6,0.8-0.7c0.4-0.2,0.4-0.5,0.8-0.7
			c-0.1,0.7,1.1,0.9,1.5,1C99.9,99.2,100.1,99.1,100.3,99z M91.4,82.7c0.2,0.4,0.7,0,0.9-0.1c0.2,0.4,0.2,0.4,0.6,0.5
			c0.3,0,0.6,0.2,0.7-0.3c0.1,0.1,0.2,0.2,0.2,0.3c0-0.2,0.1-0.3,0.1-0.5c0.4,0.2,0,0.7,0.4,0.7c0.5,0,0.9,0,1.4,0.1
			c0-0.1,0-0.2,0-0.3c0.2,0.3,0.9,0.5,1,0c0.1,0.5,0.8,0.2,1.2,0.1c0-0.2-0.1-0.4-0.1-0.6c0.5,0,0.2,0.5,0.6,0.6
			c0.3,0.1,0.5,0.2,0.8,0.2c0.2,0,1.1,0,1.1-0.2c0.1-0.4,0.3-0.4,0.7-0.5c-0.2-0.2-0.4-0.2-0.7-0.3c0.2-0.1,0.4-0.3,0.6-0.4
			c-0.7-0.6-1.6-1.1-2.6-0.8c-0.4,0.1-0.7-0.1-1.2,0.1c-0.4,0.1-0.8,0.3-1.2,0.3c0.1,0.1,0.2,0.2,0.3,0.2c-0.4-0.1-1-0.4-1.5-0.3
			c-0.1,0-0.4,0.3-0.5,0.2c-0.2-0.1-0.4-0.3-0.6-0.4c-0.1-0.1-1-0.6-1-0.6c-0.1-0.3,0.8,0.1,0.9-0.3c-0.2-0.1-0.5-0.1-0.7-0.2
			c-0.3-0.1-0.2-0.3-0.4-0.4c-0.4-0.3-0.9,0.1-1.3,0c-0.5-0.1-0.7-0.5-1.1-0.5c-0.5-0.1-1-0.3-1.5-0.2c-0.7,0.2-0.5,0.5,0,1
			c0.5,0.5,0.7,0.4,1.3,0.3c0.5-0.1,0.7-0.3,1.1,0.2c0.2,0.3,0.8,0.7,0.4,1.1C91,82.1,91.2,82.2,91.4,82.7z M104.5,93.2
			c-0.3,0.3,0.9,0.3,1,0.3C105.3,93,104.8,92.9,104.5,93.2z M93.8,70.5c-0.4,0.3-0.7,0.6-1.1,0.9c0.6,0.4,1.3,0.1,2,0.1
			c0.7,0,1.4-0.3,2-0.4c-0.6,0.3-1,0.5-1.7,0.6c-0.6,0.1-1,0-1.6,0.3c0.6,0.2,1.3,0.6,1.8,0.2c0.7-0.5,1.1-0.5,1.9-0.6
			c-0.7,0.2-1.1,0.4-1.7,0.9c0.5,0.1,1.1,0.2,1.6,0.2c0.4,0,0.5,0.1,0.5-0.4c0-0.2,0.5-0.2,0.6-0.3c-0.1,0.1-0.1,0.2-0.2,0.3
			c0.3-0.1,0.7-0.2,1-0.3c-0.3,0.2-0.5,0.4-0.8,0.6c0.4-0.1,0.8-0.2,1.3-0.2c0.3-0.1,0.9,0,1.1-0.2c0.6-0.6,1.2-0.9,2-1.2
			c-0.3,0.3-0.7,0.6-1,0.9c0.2,0.1,0.4,0.2,0.6,0.3c-1.3,0.4-2.7,0.6-4.1,0.9c0.5,0.4,0.9,0.8,1.4,1.3c-0.6-0.4-1.3-1-1.9-1.2
			c-0.1,0-2,0-1.9-0.1c-0.6,1.1,0.5,1,1.1,1.4c0.5,0.4,1,1,1.3,1.6c-0.9-0.5-2.3-0.6-3,0.2c-0.7,0.7-0.1,0.8,0.6,0.9
			c0.5,0.1,0.8-0.5,1.2-0.8c-0.3,0.8-0.9,1.2-0.1,1.8c0.6,0.5,1.4-0.5,1.8-0.9c-0.6,0.9-1,1.5-2.1,1.2c-0.4-0.1-0.5-0.7-0.9-0.8
			c-0.5-0.1-0.8-0.1-1.3,0.1c0.3,0.6,0.3,0.6,0.9,0.7c-0.4,0.4-0.7,0.3-1.2,0.5c-0.2,0.1-0.6,0.2-0.7,0.3c-0.1,0.2,0.2,0.3,0,0.5
			c0.3,0.4,0.5,0.1,0.7-0.2c0,0.5,0.7,0.9,0.9,0.3c0.1,0.5,0.4,0.2,0.7,0.3c0.3,0,0.7,0.1,1,0.1c0.4,0,0.5-0.4,0.8-0.3
			c0.2,0.1,0.7,0.3,0.6-0.2c0.2,0.4,0.9,0.7,0.9,0.1c0.3,0.3,0.5-0.1,0.7,0.1c0.3,0.2,0.2,0.4,0.1,0.8c0.4-0.1,0.9-0.3,1.3-0.4
			c0.1,0,0.2-0.3,0.3-0.3c0,0,0.2,0.2,0.3,0.1c0.1,0,0.5-0.1,0.5-0.2c0-0.2,0-0.5-0.1-0.6c-0.2-0.1-0.3-0.3-0.5-0.1
			c-0.3,0.2-0.3,0.3-0.5,0c-0.2-0.3,0.7-0.8,0.8-1c0.4-0.4-0.3-0.6,0-0.8c0.2-0.1,0.8,0.3,1,0.2c0.5-0.2,0.7-0.3,1-0.8
			c-0.3-0.1-0.5-0.3-0.8-0.4c0.4-0.1,0.9-0.1,1.3-0.2c0.1-0.6-1.1-0.6-1.5-0.7c0.5,0,1,0,1.5,0c0.1-0.6-1.4-0.4-1.7-0.5
			c0.9-0.1,1.9-0.2,2.8-0.4c-0.1-0.2-0.1-0.3-0.2-0.5c0.3,0.1,0.8,0.3,1.1,0.2c0.5-0.2,0.7-0.4,1-0.8c-0.3,0-0.7,0-1-0.1
			c0.5-0.1,1.1-0.2,1.6-0.3c0.5-0.1,1-0.6,1.4-0.9c0.6-0.3,2.4-0.8,2.4-1.5c-1.4,0.3-2.8,0.6-4.2,0.8c0.8-0.3,1.7-0.5,2.5-0.8
			c-0.5-0.1-1-0.2-1.5-0.2c1.1-0.1,2.2-0.2,3.3-0.2c0.8-0.1,1.8-0.9,2.5-1.2c-1-0.3-1.8-0.6-2.8-0.7c-0.9-0.2-1.6,0.1-2.5,0.3
			c0.5-0.3,0.9-0.5,1.4-0.8c-0.9-0.1-1.8-0.4-2.6-0.4c-0.8,0-1.7,0.3-2.5,0.4c0.1,0.2,0.2,0.4,0.3,0.7c-0.4-0.3-0.9-0.8-1.4-0.8
			c-0.7,0-1.4,0-2,0c0.4,0.3,0.8,0.7,1.2,1c-0.5-0.2-1-0.4-1.4-0.6c-0.3-0.1-1.1-0.3-1.3-0.2c-0.2,0.1-0.2,0.3-0.5,0.3
			c-0.3,0-0.6,0-0.9,0.1c-0.3,0-0.7,0.5-1,0.8c0.8,0.4,1.6,0.9,2.4,1.3c-0.9-0.2-1.8-0.4-2.7-0.7c-0.4-0.1-0.8-0.5-1.2-0.8
			c-0.3-0.2-0.7-0.1-1-0.1c0.1,0.2,0.1,0.4,0.2,0.5c-0.3,0-0.7,0-1,0c0.2,0.1,0.5,0.2,0.7,0.3c-0.9,0.1-2.1-0.5-2.6,0.6
			c-0.6-0.5-1.4-0.1-2,0.3c0.4,0.2,0.8,0.4,1.2,0.6C93,70.8,93.4,70.7,93.8,70.5z M84.7,77.7c-0.3-0.3-0.6-0.3-0.9-0.2
			c-0.4,0.1-0.2,0.4,0.1,0.4C84.2,77.8,84.4,77.7,84.7,77.7z M100.6,101.8c0.2-0.2,0.9-0.9,0.2-1.1c-0.3-0.1-0.5,0.2-0.6,0.5
			C100.2,101.6,100.4,101.6,100.6,101.8z M153.3,113.4c-0.1,0-0.1,0.2-0.2,0.2c0.7,0.6,1.6-0.5,2.3-0.7c0.2-0.1,0.4,0.1,0.5-0.1
			c0.1-0.3,0.2-0.5,0.2-0.8c0.1-0.3-0.1-0.7-0.3-1c0.5-0.3,0.6-0.3,0.7-0.9c-0.2,0.1-0.3-0.4-0.5-0.6c-0.1-0.1-0.5,0.1-0.7,0.1
			c0-0.1,0.1-0.1,0.1-0.2c-0.5-0.3-1.1,0.3-1.3,0.7c0.2,0.1,0.3,0.1,0.5,0.2c-0.2,0.2-0.3,0.3-0.6,0.3c-0.2,0-0.4-0.2-0.6-0.1
			c-0.3,0.2-0.2,0.2-0.1,0.5c0,0.2-0.2,0.3-0.3,0.4c0.3,0.1,0.5,0.2,0.9,0.3c-0.2,0.2-0.5,0.4-0.7,0.8c0.3-0.1,0.6-0.2,0.9-0.1
			c-0.2,0-0.6,0-0.7,0.2c-0.1,0.2-0.3,0.3-0.5,0.3c0.1,0,0.2,0.1,0.4,0.1c-0.1,0.1-0.3,0.1-0.4,0.2
			C153,113.3,153.1,113.3,153.3,113.4z M97.5,100.7c0,0.1,0.1,0.4,0.2,0.4c0.6-0.1,1.3-0.3,1.4-1.1c-0.2,0-0.3,0-0.5,0
			c-0.4,0.1-0.6,0.1-0.9,0.3C97.5,100.5,97.4,100.5,97.5,100.7z M90.3,82.3c-0.1-0.4-0.5-1-1-0.9c-0.3,0.1-1.6,0.3-1.3,1
			c0.1,0.3,1.1,0.6,1.4,0.8C89.9,83,90.4,83.1,90.3,82.3z M81.6,75.8c0.4,0,0.5-0.5,0.9-0.2c-0.1,0-0.1,0.1-0.2,0.2
			c0.2,0,0.4,0.1,0.6,0.1c0.1,0.7-0.8,0.1-1.2,0.4c0.1,1.1,1.4,0,1.6,0.3c0.3,0.3,0.7,0.2,1.1,0.3c0.4,0,0.4,0.2,0.6,0.6
			c0.2,0.3,1.7,0.3,1-0.6c-0.1-0.1-0.4-0.3-0.3-0.5c0.1-0.3,0.1-0.2-0.1-0.4c-0.3-0.3-0.4-0.2-0.9-0.1c0.1-0.8-0.9-0.4-1.2-0.3
			c-0.2-0.5-0.5-0.9-1-0.8c-0.6,0.1-1,0-1.2,0.6c0.2,0,0.4,0,0.7,0C81.7,75.5,81.7,75.7,81.6,75.8z M81.8,78.8
			c0.2,0.2,0.4-0.1,0.2-0.3c-0.1-0.2-0.3-0.3-0.4-0.4c-0.2-0.2-0.4-0.4-0.7-0.3c0.1,0.2,0.1,0.4,0.2,0.6
			C81.2,78.6,81.7,78.7,81.8,78.8z M86.3,73.6c-0.2-0.4-1.3-0.3-1,0.3C85.9,74,86.7,74.5,86.3,73.6z M87.8,77.1
			c-0.2,0.1-0.4,0.1-0.7,0.2c0.2,0.1,0.5,0.4,0.6,0.4c0.2,0,0.5-0.1,0.7-0.1c0.2-0.1,0.7-0.1,0.8-0.3c0.1-0.2-0.2-0.3,0.1-0.6
			c-0.3-0.1-0.6-0.1-0.9-0.2c-0.2-0.1-0.4-0.3-0.7-0.4c-0.3-0.1-1.6-0.4-0.9,0.4c-0.1,0-0.2,0-0.2,0C86.8,77,87.4,76.7,87.8,77.1z
			 M76.4,77.3c-0.7,0.1-1,0-0.9,0.8c0.3,0,0.6,0.4,0.8,0.4c0.4-0.1,0.8-0.2,1.3-0.3c0.3-0.1,0.1-0.2,0.2-0.4c0.1-0.2-0.5,0-0.6-0.2
			c0.4-0.1,0.7-0.1,0.9-0.4C77.7,76.9,76.9,77.2,76.4,77.3z M77.6,80.2c0.3,0.2,0.5,0.3,0.8,0.5c-0.2,0.1-0.4,0.1-0.6,0.2
			c0.2,0.1,0.9,0.3,0.9,0.5c-0.1,0.4-0.5,0.2-0.8,0.2c-0.2,0-1,0.1-1-0.1c-0.1-0.5-0.2-0.4-0.6-0.4c0.1,0,0.1-0.1,0.2-0.1
			c-0.3-0.2-0.7-0.7-1-0.7c-0.7,0.1-0.4-0.1-1-0.4c-0.1,0-1,0-1,0.2c0,0.2,0.7,0.3,0.9,0.3c-0.6,0-1-0.1-1.5,0.1l0,0.3
			c0.4,0.2,1,0,1.4,0c-0.2,0.1-1.8,0-1.8,0.4c0,0.4,1.4,0,1.6-0.1c-0.5,0.4-1.6,0.1-1.9,0.8c0.5,0.1,0.6,0.2,1.1,0.1
			c0,0.1,0,0.1-0.1,0.2c0.2,0.1,0.4,0.1,0.6,0.1c-0.1-0.4,0.3-0.3,0.4,0.1c0.5-0.3,0.6-0.3,0.7-0.9c0.4,0.1,0.2,0.4,0.1,0.7
			c0.3,0,0.9,0.1,0.9-0.3c0.2,0.4,0.8,0.2,1.1,0c-0.6,0.6-1.7,0.7-2.5,1c0.9,0.6,1.3,0.4,2.3,0c0.6-0.2,1.1-0.4,1.7-0.6
			c0.3-0.1,0.5,0.2,0.8,0.2c0.2,0,0.2-0.3,0.4-0.3c0.3,0,0.5,0,0.8,0c0.3,0,0.5-0.4,0.6-0.8c0.1-0.5,0.1-0.9-0.6-0.8
			c-0.7,0.1-0.1,0.3-0.4,0.7c-0.1-0.4-0.2-0.4-0.6-0.5c-0.2-0.1-0.3-0.5-0.4-0.6c-0.4-0.3-0.1-1.2-0.8-0.9
			C78.2,79.7,78,80,77.6,80.2z M87.9,73.5c0.1,0.9,1.1,0.9,1.6,0.6c-0.2,0.3-0.5,0.3-0.8,0.3c-0.2,0-0.2,0.3,0.1,0.3
			c0.2,0,0.2,0.4,0.5,0.2c0.2-0.1,0.3-0.3,0.6-0.2c0,0.1,0,0.1,0,0.2c0.3,0.1,0.4-0.1,0.6-0.2c0.1,0,0.3,0.3,0.2-0.1
			c0.4,0.2,1.1,0,1.4,0.2c-0.4,0-0.7,0.1-1.1,0.1c0.5,0.2,1.1,0.1,1.6,0.1c-1,0.2-1.9,0.1-2.9,0.5c0.3,0.2,0.6,0.3,0.9,0.3
			c-0.2,0-0.3,0-0.5,0c0.3,0.4,1.1,0.3,1.5,0.4c-0.3,0-0.6,0.1-1,0.1c0.4,0.7,1.4,0.6,2,0.6c0-0.2-0.2-0.3-0.3-0.3
			c0.4,0,0.6,0.2,0.9,0.4c-0.2-0.3-0.3-0.6-0.5-1c0.3,0.3,0.6,0.6,0.9,0.9c0.1-0.4,0.2-0.5,0-0.9c1.3,0.7-0.1-0.6,0.8-0.8
			c-0.1,0.3,0.1,0.5,0.2,0.8c0.2-0.2,0.6-0.3,0.4-0.7c0.2,0.2,1.2-0.3,1.6-0.4c-0.2-0.3-0.4-0.5-0.6-0.7c0,0.1-0.1,0.2-0.2,0.3
			c-0.1-0.7-0.8-0.3-1.1-0.1c0.3-0.7,0.5-1-0.3-1.1c0.5-0.4-0.2-1-0.7-0.6c0.1,0.2,0.2,0.4,0.3,0.5c-0.3,0-0.5-0.1-0.7-0.3
			c-0.1-0.1,0.2-0.6-0.2-0.5c-0.4,0.1-0.8-0.1-1.1-0.4c-0.5-0.5-0.7-0.9-1.3-1.1c-0.4-0.1-1-0.3-1.3,0.1c0.4,0.1,0.7,0,1,0.2
			c-0.3,0.6-1.5-0.3-1.8,0.7c0.3,0.1,0.7,0,0.9,0.2c-0.3,0.1-1.6,0.1-1.2,0.5c-0.2,0.1-0.4,0.1-0.6,0.2c0.4,0.2,0.6,0.1,0.9,0.2
			c-0.1,0-0.1,0.1-0.2,0.1c0.3,0.2,0.7-0.2,1,0c-0.1,0-0.2,0.1-0.3,0.2c0.1,0.1,0.1,0.2,0.2,0.2c-0.1,0-0.2-0.1-0.4-0.1
			C88.7,73.5,88.3,73.5,87.9,73.5z M82.1,80.5c0.3,0.3,1.5,0.4,1.4-0.2C83.1,80.2,82.3,80.2,82.1,80.5z M72.2,80.6
			c-0.2,0.1-1.4,0.5-1.3,0.9c0.1,0.2,0.7,0.1,0.8,0C71.8,81.2,72.3,80.9,72.2,80.6z M155.9,107.3
			C155.9,107.4,155.8,107.4,155.9,107.3l0,0.2C155.9,107.4,155.9,107.4,155.9,107.3z M80.1,84.9c0.4,0.1,0.4,0.2,0.7,0.5
			c0.3,0.2,0.4,0.5,0.7,0.4c0.2-0.1,0.4-0.5,0.4-0.7c0-0.4-0.2-0.4-0.5-0.6C81,84.5,80.4,84.3,80.1,84.9z M82.7,82.2
			c-0.2-0.5-0.5-0.5-0.9-0.3C81.4,82.6,82.5,82.3,82.7,82.2z M81.9,79.7c0.1,0.2,0.2,0.2,0.2,0.5c0.3,0,0.8,0.1,1.1-0.2
			c-0.2-0.1-0.3-0.2-0.5-0.3C82.4,79.6,82.1,79.6,81.9,79.7z M90.2,78.3c0.1-0.2,0.2-0.3,0.4-0.5c-0.8-0.2-1.6-0.3-2.3,0.1
			C88.4,78.5,89.8,78.3,90.2,78.3z M100.3,85.8c0.1,0.1,0.4,0.2,0.5,0.3c0.3,0.2,1.1-0.2,1.4-0.3c0.4-0.1,0.8,0,1.2,0.1
			c-0.5-0.7-0.9-0.9-1.6-1.3c-0.2-0.1-0.6,0.1-0.8,0c-0.3-0.1-0.6-0.2-0.9-0.3c-0.5,0.1-0.6,0.7-0.1,1
			C100.4,85.4,100.1,85.5,100.3,85.8z M92.1,78.1c-0.3,0.3,0.3,0.5,0.4,0.5c0.3,0.1,0.5,0,0.8-0.1C93.2,77.9,92.4,77.8,92.1,78.1z
			 M92.6,79.4c-0.3,0.2,0.4,0.6,0.6,0.5c-0.1-0.1-0.1-0.2-0.1-0.3C93.4,79.4,92.8,79.2,92.6,79.4z M271.7,83c0.9,0,1.5,0,2.3-0.3
			c0.1,0,0.1-0.5,0.1-0.5c0-0.1-0.5-0.2-0.6-0.2c-0.5-0.1-0.6-0.1-1.1,0.1c0-0.1,0-0.2,0-0.3c-0.4,0-0.8-0.1-1.1,0.2
			c0-0.8-0.9-0.3-0.8,0.2C270.5,82.3,271.5,82.8,271.7,83z M199.9,88.3c0.5,0.5,1,0.8,1.7,0.9c0.6,0,1.8,0.4,2.3,0
			c-0.8-0.6-1.5-1-1.5-2.2c0-0.9,0.8-1.6,1.3-2.2c0.3-0.4,0.6-0.7,0.9-1.1c0.3-0.3,0.9-0.5,1.2-0.8c0.7-0.4,1.1-1,1.8-1.2
			c0.9-0.3,1.8-0.5,2.7-0.8c0.4-0.1,2.2-0.5,2.3-1.3c0.1-1-1.7-0.5-2.1-0.3c-0.7,0.6-1.6,0.7-2.4,1c-0.8,0-1.3,0.1-2.1,0.4
			c-0.6,0.2-1.5,0.4-2,0.8c-0.5,0.5-1.1,1-1.6,1.5c-0.3,0.4-0.7,0.8-1,1.2c-0.3,0.3-0.1,0.5,0,0.9c0,0.2-0.7,0.6-0.9,0.7
			c-0.5,0.3,0,0.4-0.3,0.8c-0.2,0.3-0.7,0.2-0.7,0.6C199.4,87.9,199.5,87.9,199.9,88.3z M201.5,73c-0.8-0.3-0.9-0.3-1.6,0.3
			c0.3,0,0.7,0.1,1,0.1C201.1,73.3,201.3,73.1,201.5,73z M204.7,71c-0.2-0.2-0.4-0.3-0.6-0.5c0.4-0.1,0.8-0.2,1.2-0.3
			c-0.7-0.1-0.9-0.3-1.5,0.1c-0.4,0.3-0.9,0.6-1.3,0.9c0.4,0.1,0.8,0.1,1.2,0.2C204,71.2,204.3,71.1,204.7,71z M204.6,89.9
			c0.1,0.3,1.1,1.1,1.4,0.8c0.3-0.3-0.8-0.9-1-1.1C204.9,89.7,204.8,89.8,204.6,89.9z M205.7,73.6c-0.2-0.3-0.5-0.1-0.8-0.1
			c0.1,0.1,0.2,0.2,0.4,0.3C205.4,73.7,205.6,73.6,205.7,73.6z M204.3,71.9c-0.5-0.2-1-0.4-1.5-0.3c-0.7,0-1-0.1-1.5,0.5
			c0.5,0.1,1,0.3,1.5,0.4C203.3,72.4,203.8,72.3,204.3,71.9z M196.9,72.3c-0.4,0.2-0.7,0.5-1.1,0.7c0.6,0.2,1.1,0.3,1.8,0.3
			c-0.1-0.2-0.1-0.4-0.2-0.6c0.7-0.2,1.4-0.3,2.1-0.5c-0.4-0.3-0.6-0.5-1.1-0.4c-0.4,0.1-0.9,0.3-1.3,0.2c-1-0.2-1.6,0.1-2.5,0.3
			c0.3,0.1,0.7,0.2,1,0.3C196,72.6,196.4,72.5,196.9,72.3z M197.2,92c0.2,0.2,1-0.4,1.2-0.5c-0.3-0.3-0.5-0.4-0.9-0.5
			C196.9,91.2,196.8,91.5,197.2,92z M176.9,90.1c0.7-0.1,1.2-0.3,1.7-0.9c-0.3,0-0.3,0.3-0.6,0.4c-0.2,0.1-0.6,0.1-0.9,0.1
			C177.2,89.9,177.1,90,176.9,90.1z M76.4,76.7c0.4,0.2,0.3-0.1,0.6-0.1c0.2,0,1.6,0.5,1.4-0.2c-0.1-0.4-1.2-0.4-1.4-0.3
			c-0.5,0.1-1.3,0.2-1.6,0.6c0.1,0,0.1,0.1,0.2,0.1C75.8,76.7,76.2,76.5,76.4,76.7z M204.6,72.6c-0.2,0-2.1,0.1-1.9,0.6
			c0.2,0.5,1.5,0.1,2,0c-0.1-0.1-0.1-0.2-0.2-0.3c0.2,0,0.5-0.1,0.7-0.1C205,72.8,204.8,72.7,204.6,72.6z M264.2,82.6
			c0.3,0.2,0.5,0.5,0.8,0.4c0.5,0,0.5-0.1,0.7-0.6c0.4,0.6,1,0.1,1.6-0.1c0.2-0.1,0.4,0.5,0.5,0.5c0.3-0.1,0.6-0.1,0.9-0.2
			c-0.1-0.2-0.2-0.3-0.3-0.5c0.4,0.2,0.5,0.3,0.8,0.1c0.3-0.2,0.5-0.3,0.7-0.6c-0.8-0.3-1.5-0.6-2.3-0.9c-0.2-0.1-0.5-0.3-0.8-0.2
			c-0.4,0.2-0.2,0.4-0.1,0.9c-0.5-0.2-1.6-1.3-2.2-0.8c-0.5,0.4-0.8,0.5-0.9,1.2C263.6,82,264,82.3,264.2,82.6z M155.9,109.1
			c0.2-0.1,0.2-0.2,0.1-0.4c-0.1,0-0.2,0.1-0.3,0.2C156,108.9,155.8,109,155.9,109.1z M267.2,85.1c0.5,0.4,0.8,0.3,1.5,0.3
			c-0.1-0.6-0.2-0.6-0.7-0.9c-0.1-0.1-0.9-0.4-0.9-0.5c0-0.4-0.4-0.8-0.8-0.5c-0.5,0.4,0.1,0.7,0.3,0.9c-0.3,0.2-0.6,0.4-0.9,0.6
			C266.1,85,266.8,84.8,267.2,85.1z M209.6,72c0.5-0.1,0.3-0.3,0.3-0.8c-0.2,0-0.6,0-0.7,0.1c-0.1,0.1-0.1,0.5-0.3,0.5
			c-0.4,0.2-0.8-0.4-1.1,0.2c0.1,0.1,0.2,0.2,0.3,0.3C208.6,72.2,209.1,72.1,209.6,72z M205.5,72.7c0.3,0,0.4-0.1,0.6,0.1
			c0.3,0.4,1.1-0.2,1.3-0.5c0.3-0.4-0.4-0.9-0.7-0.8c-0.6,0.1-1,0.3-1.6,0.6C205.2,72.4,205.2,72.7,205.5,72.7z M235.4,77.1
			c0.4,0.6,1.5-0.1,1.9-0.3c0.2-0.1,0.4,0.3,0.7,0.2c0.4-0.1,0.9-0.2,1.3-0.2c0.3-0.1,0.5-0.2,0.7-0.4c0.2-0.1-0.2-0.7-0.4-0.7
			c-0.4,0-0.5-0.2-0.8-0.6c-0.1-0.1-0.7,0-0.9,0c0.1-0.1,0.2-0.2,0.4-0.3c-0.6-0.2-1-0.2-1.5,0.3c-0.4,0.5-0.8,1-1.1,1.6
			C235.6,76.9,235.5,77,235.4,77.1z M229.7,74.3c0.4,0,1.3-0.3,1.6,0.1c0.4,0.5,0.6,1.1,1.2,1.1c0.7-0.1,1.1-0.1,1.8,0.2
			c0.6,0.2,0.9,0.1,1.5-0.1c-0.1-0.2-0.3-0.6-0.2-0.8c0.1-0.3,0.4-0.6,0.1-0.8c-0.6-0.3-0.9,0-1.5,0.2c0.2-0.2,0.4-0.4,0.6-0.6
			c-0.3-0.1-1,0-1-0.4c-0.1-0.7-0.1-0.7,0.5-0.8c-0.4-0.3-1.2-1.1-1.7-1.2c-0.6,0-0.2,0.3-0.5,0.4c-0.4,0.1-0.8,0.2-1.1,0.4
			c-0.4,0.1-0.4,0.3-0.5,0.8c0,0.2-0.7,0.2-0.9,0.3c-0.2,0-0.3,0.7-0.4,0.9C229,73.8,229.6,74.2,229.7,74.3z M296,89
			c0.2-0.1,0.4,0.1,0.6,0c0.6-0.1,1.2-0.1,1.6-0.6c-0.3-0.2-0.5-0.5-0.8-0.6c-0.5,0-0.9,0-1.4-0.1c-0.3,0-0.8,0.3-1.1,0.5
			c-0.1,0,0.2,0.9,0.2,1C295.4,89.2,295.7,89.1,296,89z M172.8,91.3c-0.3,0.1-0.6,0.1-0.5,0.5c0.1-0.1,0.3-0.2,0.4-0.3
			C172.8,91.5,172.8,91.4,172.8,91.3z M170.9,93c0.2,0.1,0.3,0,0.4-0.2c-0.1-0.1-0.3-0.1-0.4,0C170.9,92.9,170.9,93,170.9,93z
			 M172,91.7c-0.2,0.2-0.3,0.4-0.5,0.5c0.2,0,0.3,0.1,0.5,0.1C172.3,92.1,172.2,91.9,172,91.7z M158.2,105.1c0.2,0.1,0.2,0,0.4-0.1
			c-0.1,0-0.2-0.1-0.3,0c0,0,0.1-0.1,0.1-0.1c-0.3-0.2-0.3,0.1-0.3,0.2c0,0.1,0.1,0.1,0.1,0.2C158.2,105.2,158.2,105.2,158.2,105.1z
			 M177.9,89.5c0.2-0.2,0.4-0.2,0.4-0.5c-0.2,0.1-0.2,0.3-0.5,0.2c-0.2-0.1-0.4-0.1-0.6,0C177.2,89.7,177.6,89.5,177.9,89.5z
			 M156.1,108.8c0.1-0.1,0.1-0.2,0.2-0.3C156.2,108.4,156,108.6,156.1,108.8z M172,92.5c-0.3,0-0.6-0.1-0.6,0.4
			C171.6,92.7,171.8,92.6,172,92.5z M156.6,108.9c0,0.1,0.1,0.2,0.1,0.3C156.8,109.1,156.8,109,156.6,108.9z M156.4,107
			c0,0-0.1,0-0.1,0.1c0.1,0,0.1,0,0.2,0.1c-0.1,0.1-0.2,0.3-0.3,0.5c0,0.1-0.3,0.2-0.4,0.3c0.3,0.1,0.3,0.2,0,0.3
			c0.2,0.2,0.7,0,0.3-0.3c0.3,0.2,0.4-0.1,0.6-0.3c0,0,0.1,0.1,0.1,0.1c-0.3,0.2-0.4,0.5-0.4,0.8c-0.1,0.2,0.1,0.2,0,0.5
			c-0.1,0.1-0.2,0.2-0.1,0.3c0.2,0.2,0.2-0.3,0.2-0.5c0-0.3,0-0.5,0.3-0.7c-0.4,0.3-0.1,0.6,0.2,0.1c0,0.1,0.1,0.2,0.1,0.3
			c-0.2,0-0.2,0.1-0.1,0.3c0.1,0.3,0.1,0.2,0,0.5c-0.1,0.3-0.4,0.4,0,0.7c0-0.1,0-0.2,0-0.3c0.2,0.1,0.5,0.3,0.4,0
			c0.3,0.2,0.6-0.2,1-0.1c-0.7,0.2-0.3,1.2,0.1,0.9c-0.2,0.3-0.2,0.8,0.1,1l-0.1,0c-0.1-0.2-0.1-0.1-0.2-0.1c0,0.1,0,0.1,0,0.2
			c-0.3,0-0.5-0.2-0.7,0c-0.1-0.2-0.2-0.3-0.4-0.2c0.3,0.2,0.1,0.5-0.1,0.6c0.2,0,0.3-0.1,0.5-0.1c-0.1,0.3,0.1,0.4-0.1,0.8
			c-0.1,0.2-0.6,0.3-0.8,0.3c0,0.1,0,0.2,0,0.2c0.2,0.4,0.5-0.1,0.8,0.1c0,0-0.1,0.1-0.1,0.1c0.1,0,0.5,0.2,0.5,0.2
			c0.2-0.1,0.5-0.2,0.7-0.3c-0.1,0.2-0.3,0.3-0.3,0.5c-0.5-0.1-1-0.3-1.1,0.3c-0.1,0.3-0.6,0.6-0.8,0.8c0.4,0.3,0.9-0.6,1.4-0.1
			c0.3-0.8,0.5-0.2,1.1-0.4c0.2-0.1,0.5-0.4,0.7-0.4c0.3,0,0.3,0.3,0.6,0.2c0.5-0.1,0.8-0.1,1.3-0.3c0.7-0.3-0.4-0.5-0.6-0.5
			c0.5-0.4,0.8-0.6,0.9-1.2c0.1-0.7-1.1-0.2-1.2-0.4c0.5-0.3-0.2-0.9-0.6-0.9c0.2-0.1,0.4,0,0.5,0.2c-0.1-0.9-0.9-1-1.1-1.7
			c-0.3-0.9-0.7-1-1.5-1.1c0.1-0.2,0.3-0.3,0.5-0.2c-0.3-0.5,0.9-1.2,0.6-1.7c-0.2-0.3-1.6-0.1-1.7,0.2l-0.1-0.1
			c0.1-0.1,0.2-0.2,0.3-0.3c-0.1,0-0.2-0.1-0.4-0.1c0.1,0,0.2,0,0.3,0c0.1-0.3,0.7-0.4,0.8-0.9c-0.3-0.1-0.8,0-1.1,0.2
			c-0.2-0.1,0-0.1-0.2,0c-0.1-0.3-0.4-0.1-0.2,0.2c-0.1,0-0.2,0-0.2,0c0,0.1-0.1,0.1-0.1,0.2c0.1,0.1,0.2,0.2,0.3,0.3
			c-0.2-0.1-0.4-0.1-0.5,0c0.1,0.1,0.1,0.3,0.2,0.4c-0.1,0-0.1,0-0.2,0C156.2,106.9,156.3,106.9,156.4,107z M157.3,110.4
			c-0.2,0.1-0.3,0.2-0.3,0.4c0,0,0.1,0,0.1,0C157.4,110.7,157.4,110.6,157.3,110.4z M173.2,92.2c0.3-0.3,0.6-0.6,0.9-0.9
			c-0.2,0.2-0.4,0.3-0.6,0.5C173.2,91.8,173.2,92,173.2,92.2z M174.7,90.4c-0.1,0.2-0.3,0.3-0.5,0.5c0.2,0,0.3,0,0.5,0
			C174.9,90.7,175.1,90.5,174.7,90.4z M173.7,90.9c-0.4,0.1-0.3,0.1-0.4,0.5c0,0.6,0.8-0.2,0.9-0.3C174.1,90.8,174,90.9,173.7,90.9z
			 M175.5,90.3c-0.2-0.1-0.5-0.2-0.6,0.1c0.1,0,0.2,0.1,0.3,0.1C175.3,90.5,175.4,90.4,175.5,90.3z M172.9,91.9
			c-0.2,0.1-0.1,0.4-0.3,0.5c0-0.2,0.1-0.4,0.1-0.6c-0.2,0-0.4,0.2-0.3,0.5c-0.1,0-0.1,0-0.2,0c0,0.3,0,0.2-0.2,0.4
			c0.3,0.1,0.4,0.2,0.6-0.1c0.1-0.2,0.3-0.3,0.5-0.2C173.2,92.1,173.1,91.7,172.9,91.9z M172.2,93c0,0.4-0.2,0.4-0.5,0.5
			c0.1,0.1,0.1,0.1,0.2,0.2c-0.1,0.1-0.1,0.2-0.2,0.3C172.1,93.6,172.3,93.4,172.2,93z M172.5,92.8c-0.1,0-0.2,0-0.3,0
			c0,0.1,0,0.3,0,0.4c0.2-0.2,0.5-0.5,0.7-0.7C172.8,92.4,172.6,92.6,172.5,92.8z M176,90.4c-0.3-0.2-0.9,0.2-1.1,0.5
			c0.2,0,0.3-0.1,0.5-0.1C175.6,90.6,175.8,90.5,176,90.4z M176.3,89.9c-0.1,0-0.3,0-0.3,0c0,0.1,0,0.2,0.1,0.2
			C176.2,90.3,176.3,90.2,176.3,89.9z M213.6,84.9c-0.5,0.1-0.4,0.3-0.4,0.8c0.4-0.1,0.8-0.1,1.3-0.2C214.3,85,214,84.8,213.6,84.9z
			 M258.1,132c0,0.2,0.1,0.4,0.1,0.6c0.5,0.1,0.1-0.5,0.5-0.5c0.4,0.1,0.2,0.6,0.1,0.8c-0.2,0.3-0.3,1.5,0.3,1
			c0.5-0.4,0.7-1,0.9-1.6c0.1-0.1-0.2-0.5-0.3-0.6c-0.2-0.3-0.3,0-0.5-0.3c0.4-0.4,0.8,0.2,1-0.5c0.2,0.3,0.3,0.2,0.6,0
			c0.1-0.1,0.5-0.2,0.6-0.2c0.3-0.3,0.8-0.1,1.2-0.1c-0.6,0.5-0.2,0.8,0.2,1.2c0.2-0.3,0.4-0.9,0.9-0.8c-0.3-0.2-0.3-0.5,0-0.7
			c0.4,0.6,1.1,0.3,1.4-0.2c0.1,0.2,0.2,0.3,0.2,0.5c0.2-0.3,0.4-0.6,0.6-0.8c0,0.2-0.1,0.4-0.1,0.5c0.4-0.1,0.4-0.4,0.8-0.6
			c0,0-0.1-0.8,0-1c0.1-0.4,0.2-0.4,0.2-0.9c0-0.3-0.1-0.8,0.4-0.6c0-0.3-0.1-0.6,0.2-0.7c0.3-0.2,0.2-0.5,0.2-0.9
			c0-0.2-0.3-0.6-0.4-0.8c-0.1-0.2,0-0.4,0.1-0.7c-0.4-0.2-0.6,0.1-0.5,0.5c-0.2-0.9-0.8,0.3-0.9,0.6c-0.1,0.3,0.3,0.4,0.2,0.5
			c-0.1,0.4-0.2,0.7-0.4,1.1c-0.2,0.5-0.5,1-0.9,1.2c-0.3,0.1-0.5,0.3-0.8,0.3c-0.3,0,0-0.5,0.1-0.6c-0.4,0.2-0.5,0.1-0.6,0.6
			c0,0.2-0.4,0.6-0.5,0.7c-0.2,0.2,0.1,0.4-0.2,0.6c-0.4,0.2-0.2-0.2-0.5-0.1c-0.5,0.1-1.4-0.1-1.7,0.4c-0.4,0.5-0.8,0.9-1.4,0.8
			C259.3,131.5,258.5,131.7,258.1,132z M257.4,158.4c-0.2,0.2-0.6,0.4-0.7,0.7c-0.2,0.4-0.1,0.5,0,0.8c0,0.3,0.1,0.6,0,0.9
			c0,0.2,0.4,0.4,0.6,0.6c-0.1-0.4-0.2-1.2,0.4-0.9c-0.1-0.1-0.7-0.5-0.4-0.6c0.4-0.1,0.4-0.5,0-0.6c0.1-0.1,0.1-0.3,0.2-0.3
			C257.4,158.7,257.4,158.6,257.4,158.4z M274.2,180.6c-0.4-0.4,0.2-0.9-0.5-1.2c-0.1,0-0.4,0.5-0.5,0.2c-0.1-0.3-0.2-0.7-0.3-1
			c-0.2-0.6-0.2-0.9-0.7-1.2c-0.2-0.1-1.6-0.7-1.6-0.9c0-0.6,0.2-1.2-0.2-1.6c-0.5-0.6-0.5-0.8-0.5-1.7c0-0.5-0.7-0.8-1-0.5
			c-0.2-1.2-0.5-2.1-1-3.2c-0.6,0.1-0.6,1.2-0.7,1.7c-0.1,0.5,0,1.2,0,1.8c0,0.7-0.4,2.9-1.3,2.5c-0.3-0.1-0.6-0.7-1-0.9
			c-0.6-0.4-1.3-0.7-1.9-1.1c-0.6-0.3-0.3-0.5-0.2-1.3c0.1-0.6,0.4-0.9,0.8-1.3c-0.6-0.6-0.7-0.6-1.5-0.7c-0.6-0.1-1.2-0.2-1.8-0.1
			c0,0.3,0,0.6,0.1,0.9c-0.7-0.1-1.3-0.5-1.7,0.2c-0.4,0.6-0.5,1.2-0.7,2c-0.6-0.3-1.2-0.6-1.8-0.9c-0.2-0.1-0.9,0.7-1.1,0.8
			c-0.9,0.8-2.2,1.5-2.7,2.7c-0.2,0.6-0.2,1.2-0.9,1.3c-0.8,0.2-1.6,0.4-2.4,0.6c-0.6,0.1-0.9,0.4-1.3,0.7c-0.6,0.4-0.7,0.6-1,1.3
			c-0.1-0.3-0.2-0.5-0.3-0.7c-0.4,1-0.7,1.8-0.3,2.8c0.2,0.6,0.2,0.7,0,1.3c-0.1,0.4,0.1,0.8,0.3,1.2c0.5,1,0.8,2,0.9,3.1
			c0.1,0.4,0.4,1.5,0.3,1.9c-0.1,0.1-1,0.6-0.5,1c0.4,0.3,0.8,0.8,1.2,0.8c0.5,0,1,0.2,1.4-0.2c0.5-0.5,0.6-0.7,1.3-0.8
			c0.5,0,0.9-0.1,1.4-0.1c0.4,0,0.7,0,1.1,0c0.1,0,0.3-0.5,0.3-0.6c0.2-0.4,0.9-0.6,1.3-0.7c0.4-0.2,1,0.1,1.3-0.1
			c0.3-0.2,0.8-0.7,1.2-0.6c1.1,0.1,2.1,0.3,3.2,0.7c0.7,0.3,0.7,0.4,1.1,1.1c0.2,0.4,0.5,0.9,0.8,1.3c0.6-0.7,1.1-1.3,1.6-2.1
			c0.3,0.9-0.3,1.5-0.7,2.2c0.7,0.2,0.7-0.2,1-0.9c0,0.4-0.1,1.5,0.4,1.5c0.4,0,0.7,0.8,0.8,1.2c0.3,1.2,1.1,1.5,2.2,1.7
			c0.7,0.1,0.8,0.2,1.3-0.3c0.6-0.5,0.5-0.3,1,0.3c0.2,0.3,0.9,0.1,1.1-0.2c0.5-0.5,0.6-0.6,1.3-0.6c1.2,0,1.1-1.7,1.3-2.7
			c0.2-0.9,1.1-1.5,1.3-2.4c0.3-1,0.8-2.3,0.8-3.4c0-1-0.3-2.2-0.5-3.2C275.1,181.5,274.6,181.1,274.2,180.6z M255.4,163.3
			c-0.2,0.7,0.9,0.4,1,0.3C256.4,163.2,255.5,162.9,255.4,163.3z M259.3,170c-0.4,0.3-0.8-0.3-0.9,0.4c0.3,0,0.6,0.2,0.9,0
			C259.6,170.3,259.7,169.9,259.3,170z M275.7,164.7c0.2-0.4,0.2-0.4,0-0.8c0-0.1-0.2,0-0.2,0c-0.1-0.1-0.1-0.2-0.2-0.3
			c-0.4-0.3-0.8-0.5-1.2-0.8c-0.1,0.5,1.6,0.7,1.4,1.6C275.5,164.4,275.6,164.5,275.7,164.7z M271.8,196.3c-0.2,0.1-0.9,0.5-1.1,0.4
			c-0.4-0.2-0.8-0.4-1.2-0.5c-0.1,0.6,0,1.4,0.2,2c0.3,0.7,0.7,0.9,1.3,1C271.9,199.4,272.7,196.6,271.8,196.3z M273.1,165.2
			c-0.3,0-0.6-0.1-0.9,0c0.2,0.5,1.1,0.7,1.6,0.6c0.3-0.1,0.8-0.2,0.9-0.6c0.1-0.1,0.7-0.1,0.3-0.5c0.6-0.1,0.3-0.6,0-0.8
			c-0.4-0.3-0.3,0.5-0.3,0.7c0,0-1.4,1-1,0.2C273.5,164.8,273.3,165.2,273.1,165.2z M270.3,165.1c-0.2-0.3-0.1-0.7-0.4-0.9
			c-0.3-0.2-0.7-0.4-1-0.6c-0.5-0.3-1.2-0.4-1.7-0.6c-0.9-0.3-1.7-0.7-2.6-1c-0.4-0.2-1.1,0.2-1.4,0.5c-0.1,0.1-0.6,0.9-0.7,0.8
			c-0.4-0.2-0.5-0.2-0.7-0.6c-0.2-0.4-0.3-0.8-0.3-1.2c-0.1-0.5-0.2-0.4-0.6-0.5c-0.7-0.2-1.4,0-1.8,0.7c0.2,0,0.5,0.1,0.7,0.1
			c0.1,0,0,0.4,0.2,0.5c0.4,0.2,0.9,0.1,1.4,0.1c0,0.1,0,0.3,0,0.4c-0.5-0.2-0.9-0.1-1.4,0.1c0.2,0.4,0.5,0.8,0.7,1.2
			c0.2-0.3,0.4-0.5,0.6-0.8c0.1,0.6,0.1,0.6,0.6,0.8c0.6,0.3,1.2,0.5,1.8,0.8c0.2,0.1,0.9,0.2,1,0.5c0.2,0.5,0.4,1,0.6,1.4
			c-0.7,0.2-0.8,0.1-0.9,0.9c0.5-0.1,1.1-0.1,1.6-0.2c0.3,0,0.5,0.8,0.8,0.8c0.6,0,1.1,0.2,1.6-0.1c0.3-0.2,0.4-1,0.6-1
			c0.3,0,1.2,0,1.4,0.2c0.4,0.4,0.8,0.9,1.3,1.3c0.3,0.4,0.8,0.3,1.2,0.4c0.3,0.1,0.8,0.4,1.1,0.3c-0.2-0.2-0.8-0.6-0.5-0.9
			c-0.3-0.1-0.7,0-0.5-0.5c-0.7,0-0.7-0.2-1-0.9c-0.1-0.2-0.4-0.3-0.5-0.4c-0.1-0.1-0.2-0.5-0.3-0.6c0.2,0,0.5-0.1,0.7-0.1
			C271.9,165.2,270.6,165.5,270.3,165.1z M267.6,114.3c0,0.5,0.1,1-0.2,1.5c-0.3,0.6-0.1,0.6,0.1,1.2c0.1,0.4,0.1,0.4-0.1,0.7
			c-0.1,0.2,0,0.4,0,0.6c0,0.6-0.1,0.7,0.1,1.3c0.1-0.3,0.1-0.8,0.5-0.9c0.4-0.1,0.6,0.4,0.6,0.7c0.4-0.4-0.1-1-0.3-1.3
			c-0.3-0.5-0.4-0.6-0.3-1.1c0.2-0.7,0.2-0.9,0.8-1c0.4-0.1,0.4,0.7,0.8,0.7c-0.4-0.6-0.5-1.2-0.7-1.9c-0.1-0.3-0.2-0.7-0.3-1
			c-0.1-0.2-0.3-0.4-0.4-0.6c-0.1-0.7,0.5-1.1,0.1-1.8c-0.2-0.4,0-1.4-0.7-0.9c0.3,0.3,0.4,0.7,0.1,0.9c-0.1,0.1-0.2-0.1-0.4,0.1
			c-0.2,0.2-0.2,0.2-0.1,0.5c0.1,0.3-0.1,0.9-0.2,1.3C267.2,113.7,267.9,113.9,267.6,114.3z M253.9,152.7c0.3,0.1,0.6-0.5,0.1-0.5
			C253.9,152.3,253.5,152.6,253.9,152.7z M253.4,152.8c0.1-0.4,0.2-0.6,0.5-0.8c0.1-0.1,0.1-0.6,0.1-0.8c0,0-0.1,0-0.1,0.1
			C253.7,151.7,253.3,152.3,253.4,152.8z M254.6,151.1c-0.2,0.1-0.4,0-0.5-0.1c0,0.2,0,0.4,0.1,0.6c0.3-0.3,0.1,0.5,0.4,0.7
			c0-0.1,0-0.3,0-0.4c0.1,0.1,0.1,0.2,0.2,0.3C255,152,254.6,151.5,254.6,151.1z M253.5,150.5c0.1,0.2,0.2,0.3,0.4,0.4
			c0-0.1,0-0.3,0-0.5c-0.3,0-0.2-0.3-0.6-0.3c0.1,0.2,0.1,0.4-0.1,0.6C253.3,150.6,253.4,150.5,253.5,150.5z M254.1,150.2
			c0,0.3,0.2,0.4,0.4,0.6c0.2,0.2,0,0.2,0.1,0.4c0.5,0.7,0.4-0.2,0.4-0.7C254.9,150,254.5,150.2,254.1,150.2z M252.3,150.8
			c0.1,0.8,0,1.5,0.8,1c-0.2,0.3-0.7,0.8-0.3,1c0.2,0.1,0.1,0.3,0.3,0.3c0.2,0,0.1-0.4,0.1-0.6c0-0.3,0.4-0.9,0.3-1.1
			c-0.3-0.5-0.4-0.5-0.9-0.7C252.6,150.8,252.4,150.8,252.3,150.8z M250.4,161.7c-0.1,0.3,0,0.5-0.2,0.9c-0.2,0.5-0.3,0.5-0.1,0.9
			c0.2,0.2,0.6-0.1,0.5,0.5c0,0.2-0.3,1.1-0.2,1.3c0.1,0.2,0.7,0.3,0.8,0.1c0.1-0.1-0.1-0.4-0.1-0.5c0-0.1,0.1-0.3,0.2-0.4
			c0-0.3,0-0.6,0-1c0-0.3-0.4-0.5,0.2-0.6c0.3,0,0.1,0.6,0.1,0.7c0.1,0.4,0.5,0.3,0.4,0.7c-0.1,0.4,0.2,0.5,0.4,0.4
			c-0.1,0,0.6-0.6,0.5-0.4c0.2-0.5-0.3-0.3-0.5-0.6c0-0.1,0.2-0.3,0.2-0.4c-0.1-0.2-0.2-0.4-0.3-0.5c-0.2-0.3-0.3-0.3-0.5-0.5
			c0.7,0.3,0.9-1.1,1.5-0.7c0.2-0.6-0.4-0.2-0.6-0.2c-0.3,0-0.3,0.1-0.5,0.2c-0.3,0.1-0.1-0.2-0.4,0c-0.7,0.7-1.3-0.5-0.8-1.2
			c0.2-0.3,0.6,0,0.9,0c0.4,0,0.9-0.2,1.2,0c0.8,0.5,1.3-0.4,1.6-1.2c-0.4,0-0.6,0.6-0.9,0.8c-0.2,0.1-0.5-0.1-0.7-0.1
			c-0.2,0-0.2,0.2-0.5,0.1c-0.3-0.1-1-0.5-1.3-0.3c-0.4,0.3-0.5,0.5-0.8,1C251,161.1,250.5,161.3,250.4,161.7z M251.1,149.4
			c0.2,0.4,0.4,0.7,0.6,1.1c0.4-0.5,0.4-0.8-0.1-1.1C251.5,149.4,251.3,149.4,251.1,149.4z M246.9,167.4c0,0.4,0.3,0.8,0.6,0.4
			C247.8,167.4,247.2,167.3,246.9,167.4z M266.3,122.2c0,0.2,0,0.5-0.2,0.6c-0.3,0.1-0.3,0.1-0.4,0.4c0,0.1,0.3,1,0.3,1
			c0.1,0,0.2-0.4,0.4-0.3c0.1,0,0.4,0.1,0.2-0.2c-0.2-0.3-0.6-0.1-0.6-0.6c0.2-0.1,0.5,0.2,0.6,0.1c0.1-0.1,0.5-0.3,0.6-0.1
			c0.2,0.2,0.8,0.7,1,0.6c0,0,0.2-0.6,0.2-0.6c0.1-0.1,0.4-0.3,0.6-0.3c0.4,0,0.8-0.1,1.1-0.4c-0.8,0-0.2-0.7-0.3-1
			c-0.6,0.6-0.6,0.4-1.3,0.1c-0.5-0.3-0.8-0.7-1.1-1.2c-0.4-0.6-0.3,0.7-0.2,0.9c0.1,0.2-0.3,0.4-0.3,0.7c0,0.2,0,0.4-0.1,0.6
			C266.7,122.3,266.5,122.2,266.3,122.2z M168,109.2c0,0.2,0.3,0.6,0.5,0.6c0.3-0.1,0.2-0.4,0-0.5C168.5,109,168.2,109,168,109.2z
			 M186.7,129.7c-0.2,0.1-0.6,0.4-0.9,0.4c-0.2,0-0.7-0.1-0.9,0.1c-0.4,0.8,1.2,0.3,1.3,0.3C186.1,130.1,186.4,129.9,186.7,129.7z
			 M180.4,130.3c0-0.3-0.5-0.4-0.8-0.4c-0.5,0.1-0.6,0-1.1-0.3c-0.1,0.1-0.2,0.3-0.2,0.4C179.1,130.3,179.6,130.4,180.4,130.3z
			 M169,109c-0.1,0.2,0,0.6,0.3,0.6c0.3,0,0.3,0.2,0.3,0.6c0.1-0.4,0-0.7,0.4-0.8c-0.1-0.1-0.1-0.2-0.2-0.2c1-0.2-0.6-1.1-0.2-0.2
			c-0.2,0-0.3-0.1-0.2-0.3c-0.1,0-0.2,0-0.3,0C169.3,108.8,169.2,108.9,169,109z M178.2,105.6c-0.5-0.2-0.7-0.1-1.2,0
			c0.2,0.2,0.3,0.4,0.2,0.7C177.4,106,177.9,105.9,178.2,105.6z M167.1,125.3c0,0.1-0.2,0.3-0.2,0.4c0,0.1,0.2,0.2,0.2,0.2
			c-0.1,0.4-0.4,0.4-0.1,0.7c0.2,0.2,0.5,0.2,0.5-0.1c0-0.2,0.3,0,0.4-0.4c0-0.4,0.1-0.8,0.1-1.2c0.1-0.8-0.8-0.3-1-0.2
			c-0.1,0-0.2-0.1-0.2-0.1C166.6,125.1,167,125,167.1,125.3z M303.1,99c-0.2,0-0.8-0.2-0.9,0c-0.2,0.2,0,0.5,0.1,0.6
			c0.4,0.3,1-0.2,1.3,0.2c0.3,0.4,0.8,0.6,1-0.1C304.1,99.5,303.5,99.1,303.1,99z M174.2,107.5c0.2-0.2,0.4-0.4,0.6-0.5
			c-0.2-0.3,0-0.4,0.2-0.7C174.3,106.1,174.2,106.9,174.2,107.5z M175.8,103.8c0-0.1,0-0.2,0-0.3c0,0,0.1,0,0.1,0
			C175.8,103,175.2,103.4,175.8,103.8z M167.1,123.4c-0.3,0.2,0.2,0.7,0.5,0.7c0.2-0.6,0.2-0.9,0.2-1.5c-0.2,0,0,0.2-0.2,0.4
			C167.4,123.2,167.2,123.3,167.1,123.4z M277.4,165.6c-0.2-0.1-0.2-0.4-0.5-0.5c0,0.3,0,0.4,0.2,0.6c0.1,0.1,0.1,0.4,0.1,0.4
			c0.2,0.2,0.9,0.4,0.6-0.1C277.8,165.8,277.6,165.6,277.4,165.6z M261.2,131.8c0.1,0,0.3,0.3,0.4,0.2c0.1-0.1,0.4-0.4,0.4-0.5
			c0-0.9-1.2-0.1-1.4-0.3c-0.3,0.6-0.5,0.5-0.3,1.2C260.8,132.7,260.9,132,261.2,131.8z M256.8,163.3c-0.4,0.5,0.3,0.5,0.5,0.4
			c0.1,0,0.1-0.3,0.2-0.3c0.2,0.1,0.4,0.2,0.5,0.1c0.5-0.1,0.6,0.1,1,0.3c0.2-0.8-0.7-0.9-1.2-1C257.5,163,257.1,162.9,256.8,163.3z
			 M290.9,197c0-0.3-0.1-0.6-0.2-0.9c-0.4,0.2-0.5,0.2-0.6,0.6c-0.1,0.4-0.2,0.2-0.5,0.6c-0.2,0.2-0.1,0.6-0.3,0.9
			c-0.2,0.2-0.5,0.4-0.7,0.6c-0.2,0.2-0.4,0.4-0.7,0.5c-0.2,0.1-0.6,0.2-0.8,0.4c-0.4,0.6-0.8,1.1-1.3,1.7c-0.4,0.6,0.8,0.4,1,0.6
			c0.3,0.3,1.2,0.6,1.4,0.2c0.3-0.5,0.8-1.1,1-1.6c0.2-0.8,0.5-0.9,1.1-1.3c0.1,0.2,0.2,0.3,0.3,0.3c-0.2-0.5-0.3-0.5,0-0.9
			c0.3-0.4,0.6-0.8,0.9-1.2c-0.1-0.3-0.2-0.6-0.3-0.9C291.3,196.7,291.1,196.9,290.9,197z M286.9,202.4c-0.2,0.1-0.1,0.4-0.3,0.6
			C286.9,202.8,287.6,202.9,286.9,202.4z M294.6,193.3c-0.6,0.4-0.7,0.3-1.4,0.2c-0.4-0.1-0.1-0.9-0.6-1.1c0,0.4-0.2,0.8-0.5,0.2
			c-0.1-0.2,0.1-0.4,0-0.6c-0.1-0.1-0.3-0.3-0.3-0.4c-0.2-0.6,0.1-0.5-0.5-0.8c-0.3-0.1-0.5-0.4-0.8-0.5c0.2,0.3,0.3,0.7,0.5,1
			c0.1,0,0.1-0.1,0.2-0.1c0.2,0.4,0.5,1.7,0.9,1.5c-0.1,0.4,0.1,0.8,0,1.2c-0.2,0.6-0.3,0.7-0.7,1c0.2,0.2,0.3,0.4,0.5,0.5
			c0.1,0.1,0.5,0.1,0.6,0.2c0.2,0.4-0.3,1-0.5,1.2c0.4,0.2,0.8,0.4,1.1-0.1c0.2-0.5,0.7-1.1,0.7-1.6c0-0.3,0.4-0.4,0.6-0.3
			c0.2,0.1,0-0.2,0.1-0.3C294.7,194.3,295.2,193.4,294.6,193.3z M162.5,125.9c0.2,0.1,0.3,0.2,0.5,0.4c0.1-0.1,0.3-0.2,0.4-0.3
			C163,125.4,162.9,125.7,162.5,125.9z M301.8,96.5c0,0.5,0.1,0.7-0.3,0.8c-0.3,0.1,0,0.6,0,0.9c-0.6-0.1-0.8-0.1-1.2-0.5
			c-0.3-0.2-0.9,0.2-1-0.2c-0.1-0.5-0.1-1-0.5-1c-0.5,0-1.1-0.1-1.6-0.1c-0.3,0,0.2-1-0.5-0.9c-0.4,0.1-0.2,1-0.2,1.3
			c0,0.6-1.8,0.7-2.3,0.9c0.4,0.3,0.9,0.4,0.9,1c0,0.7,0.3,0.9,0.7,1.5c0,0.1-0.3,0.4-0.3,0.5c-0.1,0.1-0.5-0.1-0.7-0.1
			c-0.3-0.1-0.9-0.3-1.1-0.2c-1,0.6-2,1.2-2.9,1.8c-0.8,0.5-1.6,0.7-2,1.6c-0.7-0.7-0.7-0.8-1.6-0.6c-0.9,0.1-0.9,0.2-1.4,0.9
			c0-0.3,0-0.5,0-0.8c-0.3,0.1-0.7,0.5-1,0.5c-0.4-0.1-0.7-0.3-0.9,0.1c-0.5,0.8-1,1.6-1.5,2.4c0.3,0.1,1.2,0.2,1.1,0.5
			c-0.2,0.8-0.2,0.8,0.2,1.4c-0.8,0.3-1.4,0.7-1,1.7c0.1,0.2-0.6,0.4-0.8,0.5c-0.4,0.1-0.7,0.1-0.7,0.5c0,0.5,0.1,1-0.4,1.1
			c-0.6,0.2-0.6,0.1-0.8,0.8c-0.1,0.7-0.9,1.4-1.3,1.9c-0.5-2.3-2.2-6.8,0.6-8.2c0.8-0.4,1.3-0.5,1.7-1.3c0.4-0.8,1-1.1,1.6-1.6
			c0.5-0.4,1.1-0.5,1.3-1.2c0.1-0.5,0.2-0.9,0.3-1.4c0-0.1,0.7-0.2,0.8-0.2c-0.4-0.1-0.7-0.2-1.2-0.1c-0.3,0-0.5,0.6-0.7,0.9
			c-0.4,0.6-1.2,1.1-1.8,1.5c-0.3-0.7-0.2-1,0-1.7c-0.5,0.3-0.7,0.4-1.3,0.4c-0.6,0-0.7,0-1.2,0.3c-0.7,0.6-1.3,1.3-2,2
			c0.2,0.2,0.7,0.4,0.5,0.7c-0.1,0.1-0.7,0.2-0.9,0.2c-0.7,0.1-1.4,0.2-2.1,0.2c0.2-0.2,0.5-0.4,0.7-0.5c-0.7-0.1-1.3-0.3-2-0.4
			c-0.2,0-0.6,0.4-0.8,0.5c-0.2,0.1-0.5,0-0.7,0c-0.6-0.1-1.1-0.1-1.7-0.1c-0.4,0-1.5-0.2-1.8,0.1c-1,0.9-2,1.9-3,2.9
			c-0.9,0.9-1.9,1.6-2.9,2.3c0.1,0.4,0.4,0.3,0.7,0.3c0.4,0,0.4,0,0.6,0.4c0,0.1,0.2,0.7,0.3,0.7c0.8,0.1,0.8,0.2,1.2-0.6
			c0.3-0.6,2.2,0.9,2.1,1.4c-0.2,1.2-0.5,2.4-0.8,3.6c-0.3,1.1-0.7,1.8-1.3,2.8c-0.6,0.9-1.1,1.8-1.8,2.5c-0.5,0.5-1,1-1.5,1.5
			c-0.3,0.3-0.9,0.3-1.2,0.4c-0.2,0-0.3-0.5-0.5-0.5c-0.1,0-0.6,0.3-0.7,0.4c-0.6,0.3-0.6,0.5-0.8,1.2c-0.4,1.1-1.2,1.7-2,2.4
			c0.9,0.7,1.6,1.6,1.4,2.8c-0.1,0.9,0,1-0.7,1.4c-0.6,0.3-0.9,0.3-1.5,0.3c0.1-0.5,0.1-1,0.2-1.4c0.1-0.6-0.4-0.5,0-1
			c0.3-0.3,0.1-0.8-0.3-0.7c-0.4,0-0.9,0.3-1.1-0.3c-0.1-0.3,0.3-1,0.4-1.3c0,0-0.8-0.6-0.9-0.6c-0.3,0-0.8,0.5-1.1,0.7
			c-0.4,0.2-0.7,0.4-1.1,0.7c-0.3-0.7,0.4-1.3,0.8-1.7c-0.4-0.4-0.5-0.5-1-0.2c-0.3,0.2-0.6,0.4-0.9,0.6c-0.4,0.3-0.6,0.5-1,0.7
			c-0.1,0-0.9,0.3-0.6,0.5c0.3,0.3,0.6,0.6,0.8,1c0.3,0.5,0.3,0.5,0.8,0.2c0.8-0.4,1.4-0.1,2.2,0.2c-0.9,0.7-1.8,1.5-2.6,2.2
			c0.4,0.3,0.8,0.6,1.1,1.1c0.3,0.6,0.6,1.2,0.8,1.8c-0.5-0.1-0.9-0.2-1.4-0.3c0.5,0.4,1,0.7,1.4,1.1c-0.4,0.2-0.7,0.5-1.1,0.8
			c0.4,0.1,0.9,0.3,1.3,0.4c-0.5,1-1,2.3-1.7,3.2c-0.7,0.9-1.3,2-2.4,2.4c-1.2,0.5-2.3,1-3.5,1.4c-0.4,0.1-0.7,0.3-1.1,0.4
			c-0.3,0.1-0.2,0.1-0.2,0.5c0,0.2,0,0.7-0.4,0.5c-0.1-0.1-0.2-0.6-0.3-0.7c0.1,0,0.2-0.1,0.4-0.2c-0.4-0.3-1.1-0.6-1.6-0.2
			c-0.4,0.3-1.3,0.8-1.5,1.3c0,0.2-0.4,0.8-0.3,1c0.2,0.4,0.5,0.7,0.7,1.1c0.3,0.5,0.7,1,1.1,1.5c0.5,0.6,0.7,0.8,0.8,1.6
			c0,0.5,0.3,1.6-0.1,1.9c-1,0.9-2,1.8-3.1,2.6c-0.4-0.4,0.1-0.9-0.1-1.2c-0.3-0.4-0.7-0.7-1-1.1c-0.6-0.7-1.1-1-1.9-1.1
			c0-0.2,0.1-0.4,0.1-0.6c-0.8,0-0.7,0.1-0.7,1c0,0.5-0.3,1-0.5,1.5c-0.1,0.2,0,0.5,0,0.7c0,0.4,0,0.4,0.4,0.3
			c0.2,0,0.5,1.3,0.5,1.5c0.1,0.4,0.9,0.8,1.2,1c0.3,0.2,0.8,0.7,0.9,1c0.2,0.5,0,1.1,0.1,1.6c0.1,0.5,0.4,0.9,0.6,1.4
			c-0.7-0.1-1.1-0.6-1.7-1c-0.5-0.4-0.6-0.7-0.8-1.3c-0.2-0.5-0.3-1.6-0.6-1.9c-0.5-0.5-1-1.1-1.5-1.6c-0.2-0.2,0.1-1.5,0.1-1.9
			c0.1-0.7-0.1-1.4-0.1-2.1c-0.1-1.3-0.5-2.5-0.9-3.7c-0.3,0.3-0.5,0.6-0.8,1c-0.3,0.4-0.3,0.4-0.8,0.3c-0.5-0.1-0.5-0.1-0.4-0.7
			c0-0.2,0.2-0.9,0.1-1.1c-0.4-0.8-0.5-1.5-1.2-2.1c-0.6-0.5-0.8-1.3-1.1-2c-0.3,0.2-0.7,0.7-1.1,0.7c-0.6,0.1-1.2,0.2-1.8,0.3
			c-0.1,0-0.5,0-0.5,0.1c-0.1,0.1,0.1,0.5,0,0.7c-0.3,0.3-0.6,0.6-0.9,0.9c-0.9,0.9-1.7,1.8-2.6,2.6c-0.3,0.3-0.9,0.4-1.2,0.6
			c-0.5,0.2-0.3,0.6-0.3,1.1c0,0.5,0.1,1.1,0,1.6c-0.1,0.4-0.4,1.1-0.3,1.5c0.2,0.7,0.3,1,0.7,1.5c0.4,0.4,0.5,0.9,0.8,1.4
			c0.4,1-1.2,1.8-1.4,0.5c-0.1-0.6-0.1-1.1-0.1-1.7c0-0.6-0.2-0.7-0.6-1.1c0,0.4,0,0.8-0.3,1c-0.3,0.2-0.7,0.5-1,0.7
			c-1-1.8-1.8-3.7-2.6-5.6c-0.2-0.5-0.6-1.1-0.7-1.6c-0.1-0.4,0-0.9,0-1.3c0-1.2-0.1-2.4-0.1-3.6c-0.3,0.4-0.5,0.7-0.8,1.1
			c-0.3,0.4-0.3,0.3-0.7,0.3c-0.5,0-1-0.9-1.4-1.3c0.3-0.1,1.1,0,1.1-0.5c-0.2,0-0.4,0.1-0.6,0.1c-0.5-0.1-1-0.6-1.5-0.9
			c-0.3-0.2-0.5-1-0.7-1.3c-0.2-0.4-2.7,0.2-3.2,0.3c-1,0.1-1.9-0.3-2.8-0.5c-0.4-0.1-0.9-0.1-1.1-0.5c-0.4-0.7-0.3-1-1-0.7
			c-0.6,0.2-1,0.1-1.7,0c-0.4-0.1-0.7-0.6-1-0.7c-0.7-0.3-0.7-0.4-1.1-1.1c-0.2-0.5-0.3-1.1-0.8-1.2c-0.9-0.1-0.9-0.1-1.4,0.6
			c-0.2,0.2,0.5,1.1,0.7,1.4c0.5,0.9,1,1.8,1.5,2.8c0.1-0.4,0.1-0.8,0.2-1.3c0.4,0.6,0.3,1.3,0.3,2c0.6,0,1.6,0.1,2.2-0.3
			c0.6-0.3,1.1-1.2,1.5-1.7c0,0.5-0.1,1.4,0.3,1.7c0.3,0.2,0.5,0.4,0.8,0.5c0.2,0.1,0.5,0,0.7,0.3c0.1,0.2,0.3,0.7,0.5,0.8
			c0.4,0.1,0.2,0.3,0.2,0.7c0,0.4-0.8,1-1.1,1.3c0-0.1-0.1-0.2-0.1-0.4c-0.2,0.5-0.3,0.7-0.3,1.2c0,0.5-0.2,0.4-0.6,0.6
			c-0.4,0.2-0.8,0.4-1.2,0.6c-0.2,0.1-0.2,0.8-0.5,0.9c-0.2,0.1-0.5-0.2-0.7-0.1c-0.3,0.1-0.6,0.3-0.9,0.4c-0.4,0.2-0.3,0.7-0.7,0.8
			c-0.7,0.2-1.3,0.5-2,0.7c-0.2,0.1-0.2,0.2-0.3,0.4c-0.2,0.2-0.4,0.2-0.6,0.3c-0.6,0.1-1.1,0.3-1.7,0.4c-0.4,0.1-0.5,0.6-0.9,0.6
			c-0.7,0-0.8,0.2-0.9-0.6c-0.1-0.7-0.3-1.5-0.4-2.2c-0.2-1.1-0.8-1.9-1.4-2.9c-0.3-0.6-0.4-0.7-1-0.9c-0.3-0.1-0.3-1.2-0.4-1.6
			c-0.1-0.6-0.5-1.1-0.7-1.6c-0.1-0.3-0.5-0.4-0.7-0.8c-0.4-0.7-0.8-1.4-1.2-2.1c-0.2-0.3-0.3-0.9-0.8-0.8c0.1-0.4,0.1-0.9,0.2-1.3
			c-0.2,0.5-0.3,1-0.5,1.5c-0.6-0.6-0.9-1.1-1.3-1.9c-0.4,0.5,0.3,1.4,0.6,1.9c0.5,1,0.9,1.9,1.4,2.9c0.3,0.6,0.2,1.2,0.6,1.7
			c0.2,0.2,0.6,0.5,0.7,0.8c0.1,0.5,0.2,1,0.2,1.5c0,0.3,0,0.8,0.2,1c0.3,0.3,0.7,0.5,0.9,0.8c0.4,0.6,0.6,1.6,0.8,2.3
			c0.1,0.2,0.8,0.2,0.9,0.4c0.3,0.3,0.5,0.6,0.8,0.9c0.4,0.5,1.3,1.1,0.6,1.7c0.5,0.1,1,1.1,1.3,1c1.3-0.3,2.5-0.7,3.8-1
			c0.2-0.1,0.9-0.3,1.1,0c0.1,0.2-0.3,1.4-0.4,1.7c-0.2,1-1,2-1.4,2.9c-0.4,0.8-0.8,1.6-1.3,2.2c-1.5,1.6-3.3,3.1-4.5,5.1
			c-0.3,0.4-1.9,2.7-1.6,3.1c0.5,0.7,0.5,0.8,0.4,1.7c0,0.8,0,0.8,0.4,1.4c0.7,0.9,0.5,2.4,0.5,3.6c0,0.9-0.7,1.9-1.4,2.2
			c-0.4,0.2-1.2,0.4-1.5,0.7c-0.4,0.4-0.8,0.9-1.1,1.3c-0.3,0.4-0.7,0.6-0.5,1.1c0.1,0.3,0.7,1.1,0.6,1.5c0,0.4,0,1.5-0.2,1.8
			c-0.2,0.3-1.2,0.6-1.5,0.7c-0.5,0.3-0.4,0.5-0.5,1.2c0,0.4,0,1.3-0.2,1.6c-0.6,0.9-1.2,2-2,2.8c-0.4,0.4-0.9,0.8-1.3,1.1
			c-0.2,0.2-0.7,0.8-1,0.9c-1.1,0.2-2.3,0.5-3.4,0.7c-0.5,0.1-1,0.2-1.6,0.3c-0.3,0.1-0.8-0.6-0.9-0.8c-0.6-0.6-0.6-0.5-0.5-1.4
			c0-0.3-0.3-0.9-0.5-1.3c-0.3-0.7-0.5-1.3-0.8-2c-0.2-0.4-0.6-0.7-0.9-1c-0.2-0.2-0.2-1.1-0.2-1.4c-0.1-0.8-0.2-1.5-0.3-2.3
			c-0.2-1-0.7-1.8-1.1-2.7c-0.3-0.6-0.6-1.2-0.9-1.8c-0.1-0.3,0-0.7,0.1-1c0.2-1.3,0.2-2.5,0.8-3.6c0.6-1.1,0.2-1.9,0-3
			c-0.3-1.2-0.6-2.4-0.8-3.6c-0.1-0.4-0.6-0.8-0.8-1.1c-0.4-0.6-0.8-1.1-1.2-1.7c-0.2-0.3-0.1-0.7,0-1c0.1-0.8,0.2-1.5,0.3-2.3
			c0.1-0.6,0.1-0.7-0.3-1.2c-0.4-0.6-0.4-0.6-1.1-0.6c-0.4,0-1.2,0.3-1.4-0.1c-0.4-0.5-0.8-1-1.2-1.4c-0.2-0.2-2.6,0.2-2.9,0.3
			c-0.6,0.3-1.1,0.6-1.7,0.9c-0.4,0.2-0.6,0.1-1.1,0c-0.5-0.1-0.8-0.3-1.3-0.1c-0.6,0.2-1.2,0.4-1.9,0.7c-0.3,0.1-0.6-0.3-0.9-0.5
			c-0.6-0.4-1.2-0.9-1.8-1.3c-0.8-0.5-1.1-0.8-1.6-1.6c-0.8-1.3-1.5-2.6-2.3-4c-0.2-0.4-0.5-0.8-0.7-1.3c-0.1-0.2,0.3-0.9,0.4-1.1
			c0.1-0.4,0.5-1,0.4-1.4c-0.1-0.6-0.3-1.3-0.4-1.9c-0.1-0.4-0.4-1.2-0.4-1.6c0-0.3,0.4-0.7,0.5-0.9c0.7-1.3,1.5-2.6,2.2-4
			c0.5-0.9,1.1-1.2,2-1.8c0.5-0.3,0.7-0.3,0.7-0.9c0.1-0.7,0.2-1.4,0.3-2.1c0.1-0.8,1.8-1,2.1-1.8c0.2-0.6,0.3-1.3,0.9-1.5
			c0.1,0,0.6,0.7,1,0.6c0.2,0,0.7-0.2,0.9-0.1c0.1,0.1,0.5,0.4,0.6,0.3c0.4-0.3,0.9-0.6,1.3-0.8c0.8-0.4,1.9-0.8,2.8-0.9
			c0.2,0,0.6-0.2,0.9-0.1c0.2,0.1,0.5,0.2,0.7,0.2c0.2,0,0.5-0.3,0.7-0.3c0.2,0,0.4,0,0.6,0c0.6,0,1,0.1,1.6-0.2
			c0.4-0.3,0.8,0.1,1.3,0.3c-0.3,0.7-0.4,0.8,0,1.5c0.2,0.3-0.5,0.8-0.7,1.1c0.4,0.3,0.8,0.9,1.3,1c0.8,0.2,1.6,0.4,2.3,0.6
			c0.6,0.2,0.4,0.8,1,1.1c0.5,0.2,1,0.1,1.5,0.5c0.7,0.5,1,0.6,1.5-0.3c0.1-0.2-0.2-0.5-0.1-0.7c0.1-0.2,0.3-0.6,0.4-0.7
			c0.8-0.2,1.1-0.3,1.9-0.1c0.2,0,0,0.4,0.2,0.4c0.4,0.1,0.7,0.1,1.1,0.2c0.3,0.1,0.3,0.2,0.4,0.5c0.1,0.1,0.3-0.2,0.5-0.1
			c0.6,0.2,1.1,0.3,1.7,0.5c0.6,0.2,0.7,0.2,1.3-0.1c0.6-0.3,0.7-0.4,1.3-0.1c0.8,0.4,1.9,0.3,2.3-0.7c0.2-0.6,1.3-2.5,0.9-3.1
			c-0.3-0.4,0.3-1.2,0.2-1.4c-0.2-0.2-0.4,0.1-0.5,0.2c-0.2,0.1-0.4-0.2-0.5-0.2c-0.2,0-0.4,0.5-0.6,0.6c-0.2,0.1-0.6,0-0.8,0
			c-0.5,0-0.7-0.5-1.1-0.6c-0.3-0.1-0.5-0.2-0.7,0.1c-0.1,0.4-0.1,0.4-0.5,0.4c-0.4,0.1-1-0.4-1.3-0.6c-0.6-0.3-1.5-1.9-0.9-2.6
			c-0.2,0-0.4,0-0.6,0.1c-0.1-0.7,0.8-0.8,1.1-0.9c0.7,0,1,0,1.7-0.4c-0.2-0.1-0.4-0.2-0.6-0.3c0.1-0.3,0.8-0.2,1.1-0.1
			c0.6,0.1,0.6-0.1,1.1-0.4c0.3-0.2,0.7-0.5,1.1-0.5c0.5,0,0.9,0.1,1.3,0c-0.1,0.2,0.1,0.4,0.3,0.5c0.3,0.2,0.2-0.3,0.5,0.2
			c0.1,0.2,1,0.3,1.3,0.4c0.5,0.2,0.8-0.1,1.3,0c0.5,0.1,0.9-0.1,1.4-0.4c0.4-0.2,0.2-0.9-0.1-1.2c-0.3-0.4-0.8-0.5-1.1-0.8
			c-0.4-0.4-0.7-0.8-1.2-0.9c-0.1,0-0.5-0.3-0.5-0.3c-0.2-0.1-0.4-0.3-0.6-0.5c0,0,0.2-0.2,0.2-0.2c0.2,0,0.4,0.1,0.6,0.1
			c-0.2-0.6,0.2-0.8,0.7-0.8c-0.2-0.2-0.5-0.3-0.6-0.6c0.2,0,0.4,0,0.6,0c-0.1-0.5,0.4-0.1,0.5-0.4c0.1-0.3-0.4-0.2-0.5-0.2
			c-0.5,0.1-1,0.1-1.4,0.5c0-0.1,0-0.1,0-0.2c-0.5,0.1-0.8,0.2-1.2,0.6c0-0.1,0.1-0.1,0.1-0.2c-0.6-0.1-0.3,0.6-0.1,0.9
			c0.3,0.3,0.7,0.2,1.2,0.2c-0.3,0.6-0.7,0.2-1.1,0.3c-0.4,0.2-1.1,0.9-1.5,0.5c0.2-0.7-0.1-0.6-0.6-0.9c0.3-0.1,1.4-0.5,0.6-0.8
			c-0.2-0.1-0.5,0-0.7,0c-0.2,0-0.4-0.3-0.6-0.4c0.3,0,0.7,0.2,0.8-0.2c-0.3,0.2-1.2-0.2-1.4,0c-0.2,0.2-0.8,0.7-0.9,1.1
			c0,0.2,0,0.6-0.1,0.8c-0.1,0.2-0.5,0.1-0.6,0.3c-0.1,0.6-0.1,1-0.6,1.3c-0.5,0.3-0.4,0.9-0.1,1.3c0.1,0.3,0.9,0.6,0.9,0.8
			c-0.1,0.4-0.8-0.1-1.1,0.1c-0.4,0.3-0.7,0.7-1.1,1c0-0.4,0.2-0.5,0.5-0.7c-0.2-0.1-0.5-0.1-0.7-0.2c-0.4-0.1-0.6-0.1-1-0.1
			c-0.2,0-0.4,0.1-0.6,0.2c-0.2,0.1,0.1,0.3,0,0.4c-0.3,0.3-0.5,0-0.8-0.2c-0.3,0.3,0,0.6,0.2,0.9c0.3,0.5,0.3,0.4-0.1,0.8
			c0.5,0.3,1,0.4,0.9,1.1c-0.3-0.2-0.5-0.5-0.8-0.1c0.4,0.1,0.4,0.3,0.1,0.5c-0.3,0.2-0.1,0.3,0,0.7c-0.3-0.1-0.6,0-0.7-0.3
			c-0.1-0.3-0.3-0.2-0.5,0c-0.2-0.8-0.4-0.9,0.2-1.4c-0.6,0-0.6-0.1-1-0.6c-0.2-0.3-0.3-0.8-0.6-1c-0.5-0.4-0.3-0.7-0.2-1.3
			c0.1-0.6-0.1-0.6-0.6-0.9c-0.6-0.5-1.3-1.1-2-1.2c-0.2,0-0.6-0.6-0.7-0.8c-0.2-0.6-0.2-0.7-0.7-1.1c-0.2,0.6-0.4,0.3-0.5-0.1
			c-0.1-0.4,0-0.3-0.5-0.2c-0.5,0.1-0.7,0.2-0.4,0.7c0.1,0.2-0.3,0.6,0.1,0.9c0.3,0.2,0.7,0.4,0.9,0.7c0.2,0.3,0.2,0.7,0.4,1
			c0.3,0.3,0.5,0.5,0.9,0.5c0.3,0,0.7,0,0.3,0.3c0.4,0.3,2.3,1.1,1.8,1.8c-0.2-0.1-0.7-0.9-1-0.6c-0.2,0.2-0.3,0.3-0.3,0.6
			c-0.1,0.3,0.1,0.3,0.3,0.4c0.6,0.4-0.4,0.6-0.3,0.8c0,0.4-0.7,1-0.7,0.4c-0.4,0.2-0.5,0.7-0.3,1.1c0.2,0.4-0.6,0.5-0.7,0.2
			c-0.2-0.5-2-0.5-1.3-1.3c0.1,0.1,1.1,0.2,1.3,0.2c0.3-0.1,0.7-0.1,0.9-0.2c0.2-0.2,0-0.3,0.3-0.5c0.2-0.1-0.3-1.2-0.4-1.2
			c-0.1,0-0.5,0-0.5-0.3c0-0.3-0.2-0.4-0.5-0.3c0-0.2-0.5-0.7-0.7-0.6c-0.4,0.1-0.6-0.3-0.9-0.6c-0.5-0.5-1.2-0.7-1.3-1.4
			c-0.1-0.6-0.1-0.7-0.7-1c-0.3-0.1-0.6-0.3-0.8,0c-0.1,0.2-1.6,1.2-1.8,1.2c-0.5-0.2-1-0.3-1.4-0.5c-0.2-0.1-0.6,0.4-0.8,0.6
			c-0.1,0.1,0.2,0.8,0,1.1c-0.2,0.2-0.8,0.4-1.1,0.6c-0.8,0.4-1,1-1.5,1.8c-0.1,0.2,0.5,0.5,0.2,0.8c-0.2,0.2-0.6,0.6-0.5,0.9
			c-0.2,0-0.6,0.1-0.7,0.2c-0.1,0.1-0.3,0.6-0.4,0.6c-0.5,0-1,0-1.5,0c-0.4,0-0.7,0.5-1,0.6c-0.3,0.1-0.9-0.6-0.5-0.9
			c-0.4,0.2-0.6-0.5-1.1-0.2c-0.4,0.2-0.7-0.1-1,0.2c0.1-0.3,0.1-0.6,0.1-0.9c0-0.2,0-0.3,0-0.5c0-0.2-0.2,0-0.2-0.1
			c-0.3-0.4-0.1-0.6,0-1.1c0.1-0.5,0.5-1.2,0.3-1.7c-0.2-0.4-0.1-0.9,0-1.4c-0.3,0.2-0.4-0.2-0.3-0.5c0.1-0.2,0.6-0.2,0.8-0.3
			c0-0.1-0.1-0.1-0.1-0.2c0.5-0.4,0.7,0.2,1.1,0c0.6-0.1,0.8-0.2,1.3,0c0.4,0.1,0.8-0.1,1.2,0.1c0.3,0.1,0.8,0.2,1.1,0.1
			c0.8-0.2,0.7-1.7,0.7-2.3c0-0.6,0.1-0.8-0.5-0.9c-0.3-0.1-0.4-0.7-0.3-0.8c-0.3,0.1-0.2-0.1-0.3-0.2c-0.1-0.1-0.5-0.1-0.5-0.1
			c-0.2-0.2-0.3-0.3-0.6-0.3c-0.2,0-0.3,0-0.5-0.2c0.1,0,0.2-0.1,0.2-0.1c-0.2-0.1-0.3-0.2-0.3-0.5c0.3,0,0.7,0,1-0.2
			c0.6-0.4,0.3,0.3,0.6,0.2c0.1,0,0.9-0.2,0.8-0.4c-0.1-0.3-0.2-0.6-0.3-0.9c0.2,0,0.4,0,0.5,0.1c0.1,0.2,0,0.3,0.3,0.3
			c0.4,0.1,0.6,0,1-0.1c-0.1,0-0.2-0.1-0.3-0.1c0.2-0.3,0.6-0.4,0.9-0.6c0.5-0.2,0-0.5,0.2-0.9c0.1-0.2,0.8-0.3,1-0.4
			c0.4-0.2,0.6-0.1,1-0.1c-0.1,0-0.5-0.1-0.5-0.3c0,0,0.4-0.1,0.4-0.1c0.1-0.1,0-0.2,0.1-0.3c0.2-0.3,0.3-0.5,0.4-0.9
			c0-0.2,0.4-0.2,0.5-0.3c0.4-0.5,0.8-0.2,1.3-0.4c0.1,0,0-0.3,0.1-0.3c0.1,0,0.3,0,0.4-0.1c0.2,0,0.4,0,0.6,0.1
			c-0.1-0.4,0.2-0.3,0.5-0.3c-0.1-0.1-0.5-0.4-0.4-0.6c0.3-0.3,0-0.2-0.1-0.6c-0.1-0.4,0.1-0.6-0.2-0.8c-0.2-0.2-0.2-0.3-0.2-0.7
			c0-0.6,0.1-1.2,0.7-1.2c0.4,0,0.8-0.5,1.2-0.7c-0.3,0.4-0.5,1.4,0.2,1.5c-0.4,0.6-1.1,0.8-1,1.6c0.1,0.6,0.6,1.1,1.2,0.8
			c-0.1,0.2-0.1,0.3-0.2,0.5c0.5,0.3,1-0.4,1.4-0.5c0.2,0,0.6,0.3,0.7,0.4c0.1,0.3,0.4,0.4,0.6,0.5c0-0.1,0-0.2,0-0.3
			c-0.1,0-0.3,0-0.4,0c0.3-0.2,1.5-0.2,1.7-0.5c0.4-0.5,1.4-0.8,1.9-0.4c0,0-0.2-0.1-0.3-0.1c0,0.5,0.7,0.6,0.9,0.3
			c0.1-0.1,0.1-0.4,0.2-0.5c0.1-0.1,0.2,0,0.3-0.1c0.2-0.2,0.4-0.2,0.5-0.4c-0.1,0.2-0.2,0.3-0.3,0.5c0.8,0.4,0.3-1.1,0.3-1.5
			c0-0.3,0.1-0.6,0.3-0.8c0.2-0.2,0-0.6,0.3-0.8c0.8-0.6,0.9,0.7,1.5,0.7c0.3,0,0.5-0.4,0.5-0.7c0-0.2,0.1-0.9,0.1-0.9
			c-0.1-0.1-0.2,0.1-0.3,0.1c-0.1-0.1-0.2-0.2-0.3-0.4c-0.1-0.1-0.2-0.7-0.2-0.8c0.5-0.2,1.2-0.6,1.8-0.5c0.4,0.1,0.9,0.1,1.3,0.2
			c0.6,0.1,0.1-0.1,0.4-0.4c0.2-0.1,0.6-0.1,0.8-0.2c0.2-0.1,0.6,0.1,0.8,0.1c-0.1-0.4-0.9-0.5-1.3-0.7c0.1-0.1,0.1-0.2,0.1-0.3
			c-1.2,0.2-2.4,0.5-3.7,0.8c-0.1,0-0.6,0.2-0.7,0.1c-0.2-0.4-0.3-0.5-0.7-0.6c-0.5-0.2-0.4-0.2-0.4-0.7c0.1-0.4,0.1-0.6,0-0.9
			c-0.1-0.3-0.3-0.8-0.3-1.1c0-0.2,0.5-0.6,0.7-0.8c0.4-0.4,0.9-0.7,1.3-1.2c0.2-0.2,0.5-0.8,0.7-0.9c0.2-0.1,0.6,0.1,0.5-0.4
			c-0.2-0.6-0.6-0.9-1.2-0.9c-0.8,0-0.9-0.1-1.5,0.6c-0.4,0.4-0.6,0.7-0.3,1.3c0.3,0.5-2,1.6-2.2,1.9c-0.6,0.7-1.5,1.9-0.9,2.9
			c0.3,0.5,1,0.4,1.3,1c0.2,0.4-0.5,0.7-0.7,0.9c-0.5,0.4-0.8,0.6-0.9,1.2c-0.1,0.5-0.1,1.3-0.3,1.8c-0.3,0.7-0.8,0.7-1.3,0.8
			c-0.2,0-0.2,0.3-0.3,0.5c-0.1,0.3-0.2,0.2-0.5,0.2c-0.4,0-0.4,0.1-0.5-0.3c0-0.2-0.2-0.6-0.1-0.8c0.2-0.5-0.5-1-0.8-1.4
			c-0.1-0.2,0-0.4-0.1-0.6c-0.1-0.2-0.3-0.5-0.3-0.7c-0.1-0.2,0.2-0.6-0.1-0.7c-0.2-0.1-0.3-0.4-0.3-0.7c-0.2,0.6-0.3,0.7-0.8,1
			c-0.3,0.2-0.6,0.6-1,0.8c-0.5,0.3-1.9,0.2-2-0.7c0-1-0.4-2-0.4-3.1c0-0.9,0.1-0.9,0.7-1.4c0.4-0.3,0.7-0.5,1.2-0.7
			c0.5-0.2,0.9-0.4,1.3-0.8c0.3-0.4,0.7-0.7,1.1-1.1c0.8-0.8,1.2-1.7,1.8-2.7c0.6-0.9,1.3-1.6,2-2.4c0.7-0.8,1.3-1.6,2.3-2.1
			c1-0.5,2.1-0.8,3.1-1.2c0.4-0.1,0.6-0.8,1-1c0.4-0.2,0.9-0.3,1.3-0.2c-0.5,0.6-0.7,0.8-0.9,1.6c0.5-0.1,0.9-0.9,1.2-1.3
			c0,0.2,0.1,0.5,0.1,0.7c0.2-0.3,0.4-0.6,0.6-0.8c0.1-0.1,0.6,0,0.8,0c-0.1,0.2-0.3,0.4-0.4,0.7c0.6,0.4,0.2-0.6,0.7-0.4
			c0.5,0.2,1,0.4,1.4,0.6c0.4,0.2-0.3,0.5-0.5,0.6c-0.3,0.1-0.8-0.1-1.2-0.1c0.2,0.3,0.6,0.2,0.7,0.6c0,0.1,0.5-0.1,0.7,0
			c0.4,0,0.8,0.2,1.1-0.1c0.1-0.2,0.6,0.2,0.8,0.3c-0.1,0.4-0.5,0.1-0.7,0.1c-0.1,0.8,1.3,0.5,1.6,0.5c0.8,0,1.1,0.2,1.8,0.6
			c0.6,0.4,1.2,0.7,1.9,0.9c0.5,0.2,1.2,0.5,1.4,1.1c0.2,0.6,0.2,0.6-0.2,1.1c-0.2,0.3-0.3,0.5-0.6,0.6c-0.8,0.3-1,0.3-1.8,0.1
			c-1.4-0.3-2.6-0.7-3.9-1.3c0.4,0.4,1.5,1.1,1.5,1.7c0,0.6-0.1,1.7,0.4,2c0.6,0.3,1.4,0.9,1.9,0.7c0.3-0.1,0.2-0.7-0.2-0.7
			c-0.4,0-0.5-0.3-0.7-0.6c0.5-0.5,0.6-0.4,1.2-0.1c0.5,0.2,1.1,0.4,1.6,0.6c0-0.1-0.5-1.2-0.4-1.2c0.4-0.3,0.8-0.5,1.2-0.8
			c0.2-0.1,0.6-0.6,0.9-0.5c0.4,0.1,0.9,0.3,1.3,0.4c0.1-0.2,0.3-0.7,0.2-0.9c0-0.1-0.4-0.7-0.5-0.7c0.1-0.4,0.2-0.8,0.3-1.2
			c0-0.1-0.4-0.6-0.5-0.7c0.5,0.1,1,0.1,1.6,0.2c0.4,0,0.7,0.6,0.9,1c-0.3,0-1,0-1.2,0.2c-0.2,0.4,0.2,0.6,0.4,1
			c0.3,0.3,0.7,0.1,1.1,0.1c0.5-0.1,0.1-0.4,0.4-0.8c0.1-0.2,0.6-0.3,0.7-0.3c0.5-0.2,0.9-0.4,1.4-0.6c0.7-0.3,1.4-0.7,2.2-1
			c0.2,0.7,0.2,0.7,0.8,0.8c0.4,0.1,0.6-0.7,1-0.6c0.5,0.1,0.9,0.1,1.3-0.1c0.6-0.3,0.7-0.2,1.3-0.1c-0.1,0.2-0.2,0.3-0.3,0.5
			c0.7,0.2,0.6,0.2,1.1-0.4c0.4-0.5,0.1-0.6-0.3-1.1c0.9-0.4,2.3-0.3,3.2,0.1c0.6,0.3,1.3,0.5,1.9,0.8c0.5,0.2,0.9,0.7,1.3,1
			c0-0.2,0.3-1.1,0.1-1.2c-0.5-0.4-0.9-0.7-1.4-1.1c-0.3-0.2,0.2-0.9,0.3-1.2c0.1-0.3-0.6-0.5-0.8-0.7c0.5-0.4,0.9-0.7,1.4-1.1
			c0.3-0.3,0.5-1.2,0.6-1.6c0.2-0.5,2.4,0,2.9,0.1c-0.2,0.5-0.4,1.1-0.6,1.6c-0.1,0.3,0.4,0.9,0.5,1.2c0.2,0.5-0.5,2.6-0.2,2.9
			c0.5,0.3,1,0.4,0.7,0.9c-0.1,0.3-0.3,1.1-0.6,1.3c-0.5,0.3-1,0.6-1.5,0.9c-0.2,0.1-0.9-0.1-1.2-0.1c0.6,0.5,1.4,1,2.2,0.7
			c0.7-0.2,1.4-1.2,2-1.7c0.6-0.6-0.9-1.4,0.3-1.8c0.2-0.1,0.9-0.4,1.1-0.2c0.3,0.4,0.6,0.7,0.9,1.1c-0.1-0.5,0-0.9-0.4-1.2
			c-0.5-0.3-0.5-0.4-1.1-0.3c-0.1,0-1.3,0.3-1.3,0.2c-0.1-0.3-0.4-0.9-0.2-1.2c0.2-0.4,0.6-0.9,0.4-1.3c-0.2-0.3-0.8-0.9-0.6-1.3
			c0.3-0.4,0.7-0.5,1.2-0.7c0.3-0.1,0-0.9,0-1.2c0.3-0.1,0.8,0.6,0.6,0.9c-0.3,0.7-0.3,0.7,0.1,1.3c0.2,0.4,2.1,0.5,2.6,0.5
			c-0.7-0.2-1.3-0.5-2-0.8c-0.7-0.4,0.5-0.9,0.8-1c0.9-0.3,1.3-0.1,2.2,0.3c0.3,0.1,0.5,0.3,0.8,0.5c0.2,0.2,0.6,0,0.9,0
			c-0.1-0.2-0.2-0.8-0.4-1c-0.2-0.2-0.8-0.1-1-0.2c-0.3-0.1-0.4-1.4-0.4-1.7c1-0.1,2-0.2,3-0.3c0.6-0.1,1.1-0.1,1.7-0.2
			c0.4,0,0.2-0.4,0.2-0.8c0-0.7,0-0.8,0.5-1.1c0.4-0.2,0.8-0.6,1.3-0.8c0.9-0.3,2.1-0.4,3-0.6c1.8-0.3,3.6-0.6,5.4-1.2
			c0.4-0.2,0.2-0.8,0.6-1c0.5-0.3,1-0.5,1.6-0.8c0.6-0.3,1.7-0.3,2.2,0.4c-0.5,0.2-1,0.3-1.5,0.4c0.8,0.1,1.6,0.2,2.3,0.3
			c-0.3,0.3-0.6,0.6-1,0.8c0.4,0,0.9,0.1,1.3,0.1c0-0.2-0.1-0.8,0.1-0.8c0.3,0,0.7,0,1,0c0.5,0,1.1-0.1,1.5,0.2
			c0.4,0.3,1.2,0.6,1.5,1c0.1,0.1,0.5,0.6,0.5,0.7c-0.1,0.2-0.2,0.7-0.3,0.7c-2.1,1.3-4.2,2.6-6.3,3.8c1.4-0.4,2.9-0.8,4.3-1.2
			c-0.4-0.1-0.7-0.1-1.1-0.2c0.4-0.4,1.1-0.7,1.7-0.3c0.8,0.6,1,0.6,1.9,0.5c1.2-0.1,2.5,0.1,3.7,0.3c-0.2,0.1-0.5,0.3-0.7,0.4
			c0.3,0.1,0.9,0.6,1.2,0.6c0.5,0,1-0.1,1.5-0.1c0.3,0,1.1,0.1,1.2-0.2c0.1-0.8,0-0.7,0.7-0.7c0.5,0,1,0,1.4,0
			c0.3-0.1,1.1-0.4,1.4-0.3c0.3,0.1,0.8,0.9,1,1.2c0.1,0.2-0.2,1.1-0.2,1.3c0,0.2,0,1.3,0.2,1.4c0.5,0.3,0.9,0.5,1.4,0.8
			c0.2,0.1,0.8-0.9,0.9-1.1c0.4-0.5,0.3-0.6,0.8-0.2c0.6,0.4,0.6,0.5,1.2,0.3c0.4-0.1,0.8-0.4,1.2-0.2c0.3,0.1,0.9,0.6,1.2,0.5
			c0.5-0.2,0.9-0.4,1.4-0.6c-0.1-0.2-0.6-0.7-0.4-1c0.1-0.2,0.6-1,0.8-0.9c0.9,0.1,1.8,0.2,2.7,0.3c0.7,0.1,1.4,0.3,2,0.5
			c0.7,0.2,1.7,0.2,2.3,0.6c0.4,0.2,1.3,1.7,1.7,1.6c0.9-0.2,1.8-0.3,2.7-0.5c0.7-0.1,1.4,0.2,2.2,0.4c0.4,0.1,0.6,0.1,0.8,0.5
			c0.1,0.5,0.1,0.6,0,1.1c0.8,0.3,1.3,0.5,2.1,0.4c0.9-0.2,1.5-0.2,2.4,0c0.3,0.1,0.8,0.3,1.1,0c0.4-0.3,0.4-0.3,0.8,0
			c0.3,0.3,0.7,0.9,1,1c0.3,0.1,0.8-0.1,1.1-0.1c-0.1-0.6-0.2-1.2-0.3-1.8c1.3,0.1,2.6,0.2,3.8,0.3c1,0.1,2,0.8,2.9,1.2
			c1,0.5,2.1,1.1,3.1,1.6c0.6,0.4,0.7,0.4,1,1.1c0.3,0.8,0.2,1.1,1,1.1c-0.1-0.3-0.2-0.6-0.3-1c0.7,0,1.3,0,2,0.3
			c0.5,0.2,1,0.8,1.4,1.1c-0.3,0.2-0.6,0.7-1,0.8C302.6,96.8,302.1,96.6,301.8,96.5z M201.4,124.1c-0.1-0.1-0.1-0.5-0.3-0.6
			c-0.6-0.4-0.7,0.6-0.7,0.9c-0.4-0.6-0.4-0.9-0.1-1.5c-0.3-0.1-0.8-0.2-1-0.5c-0.1-0.2-0.1-0.8-0.2-1.1c0,0-0.9-0.4-0.5-0.4
			c0.4-0.1,0.5,0.4,0.8,0.1c-0.3-0.2-0.5-0.3-0.3-0.6c0.1-0.2,0.4-0.3,0.6-0.2c0.4,0.1,1.1,0,1.5,0.2c-0.3,0.1-0.6,0.5-0.5,0.8
			c0.3-0.4,0.4-0.6,0.8-0.7c-0.2-0.7-0.4-0.3-1-0.4c0.1-0.3,0.3-0.7,0.1-1c-0.1-0.1-0.3-0.8-0.6-0.5c-0.2,0.3-0.6,0-0.9-0.1
			c-0.2-0.1-0.6,0.3-0.9,0.3c-0.6,0.1-0.6-0.2-0.7,0.5c-0.1,0.2-0.7,0.4-0.9,0.4c-0.4,0.2-0.4,0.2-0.5,0.7c0,0.2-0.4,0.5-0.6,0.6
			c0.4,0,0.8,0.3,0.8,0.8c0,0.7,0.1,0.9,0.3,1.5c0.2,0.4,0.6,0.5,0.8,0.8c0.3,0.6,0.4,0.7,1,1c-0.4,0.1-0.5,0.1-0.7,0.6
			c-0.1,0.3-0.2,0.6-0.3,0.9c-0.1,0.4-0.1,0.6-0.1,1c0,0.4,0.2,0.3,0.5,0.4c0.3,0.1,0.3,0.3,0.6,0.4c0.3,0.1,0.7,0.2,1,0.3
			c0.4,0.1,1.1-0.1,1.6-0.2c-0.1-0.5-0.2-1-0.1-1.6c0.2-0.8-0.2-0.4-0.5-1c0.1,0,0.2,0,0.3,0c0-0.1-0.1-0.4-0.2-0.5
			c-0.1-0.1-0.4,0-0.4-0.1c-0.2-0.3-0.1-0.5,0-0.8c0,0.1,1.2,0.2,1.4,0.1C201.9,124.5,201.6,124.3,201.4,124.1z M74.3,79.4
			c0.3,0.1,0.7,0.3,1,0c-0.1-0.1-0.2-0.2-0.2-0.2C74.8,79.2,74.5,79.2,74.3,79.4z M101.7,145.3c0.3,0.2,0.5,0.4,0.9,0.5
			c0.2,0,0.4-0.2,0.7-0.1c-0.1-0.1-0.1-0.2-0.2-0.3C102.7,145.2,102.1,144.9,101.7,145.3z M99.1,119.9c0,0-0.1,0.1-0.1,0.1l0.1,0
			c0.1-0.2,0.2-0.2,0.1-0.4c0,0-0.1,0.1-0.1,0.1c-0.1-0.2-0.3-0.3-0.5-0.2c-0.3,0.1-0.4-0.1-0.6,0.1c0.1,0,0.1,0,0.2,0
			C98.5,119.8,98.9,120.1,99.1,119.9z M97.6,119.3c-0.2-0.1-0.2,0-0.2,0c0.1,0.1,0.1,0.1,0.2,0.2C97.6,119.4,97.6,119.4,97.6,119.3z
			 M98,119.7c0,0,0-0.1,0-0.1c-0.1,0-0.1-0.1-0.2-0.1c-0.1,0-0.1,0.1-0.2,0.1C97.7,119.7,97.8,119.7,98,119.7z M118.7,114.2
			c0.1-0.2,0.2-0.4,0.3-0.7c-0.6-0.3-1.3,0.6-1.5,1.1c-0.4,0.9-0.7,1.4-1.4,2.1c-0.1,0.1-0.2,0.8-0.1,1c0.2,0.2,0.7,0.2,0.9,0.1
			c0.7-0.1,1.4-0.1,2.1,0.3c-0.2,0.1-0.4,0.2-0.4,0.5c0.6-0.1,0.8-0.6,1.4-0.6c-0.1,0.5-0.2,0.5,0.3,0.7c0.4,0.1,0.4,0.1,0.6-0.2
			c0.2-0.4,0-1.2-0.1-1.6c-0.1-0.3-0.5-0.4-0.5-0.5c0.1-0.4,0-0.4-0.3-0.7c-0.2-0.2-1.1,0.1-1.4,0.2c0-0.2,0-0.5-0.1-0.6
			c-0.1-0.1-0.4-0.1-0.4-0.3C118.2,114.6,118.3,114.6,118.7,114.2z M110.2,145.5c0.2,0.4,0.9,0.1,1.1-0.2c0,0-0.1-0.1-0.1-0.1
			C110.8,145.1,109.9,144.9,110.2,145.5z M103.9,143.9c0.3-0.1,0.6-0.2,0.9-0.3c-0.2-0.2-0.4-0.4-0.7-0.4c-0.2,0-0.3-0.4-0.4-0.4
			c-0.4,0-0.9-0.2-1.2-0.6c0,0,0,0.1-0.1,0.1c-0.9-0.6-1.9-1.1-2.9-1.2c-0.6-0.1-1.1,0.1-1.7,0.2c-0.5,0.1-0.6,0.6-1,0.8
			c0.8,0.4,1.7-1.3,2.4-0.6c-0.1,0.1-0.2,0.1-0.4,0.1c0.1,0.2,0.4,0.3,0.6,0.2c0.2-0.1,0.3,0.1,0.5,0.1c0.4,0,0.8,0.3,1.3,0.4
			c0.4,0.1,0.4,0.6,0.9,0.8c0.1,0.1,0.6-0.1,0.6,0.3c0,0.1-0.4,0.4-0.5,0.5C102.7,144,103.3,143.9,103.9,143.9z M112.4,118.5
			c-0.4,0.7,0.3,0.8,0.7,1c0.5,0.2,0.6-0.1,0.9-0.4c-0.5,0-0.9-0.1-1.4-0.1C112.6,118.8,112.5,118.6,112.4,118.5z M112.1,115.5
			c0.5,0.4,1.5,1.3,2.1,0.8C113.7,115.7,112.9,115.5,112.1,115.5z M134.2,166.3c0.2,1,0.2,1-0.3,1.8c-0.7,1-1.3,1.9-2,2.9
			c-0.3,0.5-0.7,0.8-0.7,1.4c-0.1,1.4-0.2,2.8-0.3,4.3c-0.1,0.9-1,1.9-1.5,2.7c-0.2,0.3-0.4,0.9-0.8,0.9c-0.4,0-1.2-0.1-1.5,0.1
			c-0.9,0.6-1.9,1.3-2.8,1.9c-0.2,0.1-0.2,1.5-0.2,1.8c0,0.3,0,0.8-0.2,1c-0.8,1-1.6,2-2.3,3c-0.7,0.9-1.4,1.8-2.1,2.8
			c-0.2,0.2-2.4-0.8-2.8-0.9c-0.2,0.8,1.1,0.9,1.2,1.5c0.1,0.3,0.3,1,0.3,1.3c-0.1,0.3-0.5,0.7-0.6,1c-0.5,0.7-1.1,0.7-1.9,0.9
			c-0.7,0.2-1.1,0.2-1.8,0c0.1,0.5,0.3,0.7,0.1,1.1c-0.1,0.3,0,0.7-0.1,0.8c-0.7,0.5-1.2,0.3-2-0.1c0,0.4-0.1,0.9,0,1.3
			c0.1,0.3,0.5,0.7,0.4,1c-0.2,0.5-0.5,1-0.7,1.5c-0.2,0.5-0.3,0.5-0.8,0.6c-0.4,0.1-0.5,0.5-0.8,0.9c-0.1,0.3,0.4,0.8,0.6,1
			c0.2,0.3,0.9,0,0.7,0.5c-0.1,0.5-0.2,0.6-0.5,1c-0.3,0.3-0.6,0.6-0.8,1c-0.2,0.6-0.4,0.6-0.9,1c-0.5,0.3,0.1,1.9,0.2,2.5
			c0,0.2,0,0.7,0.2,0.9c0.4,0.3,0.8,0.7,1.2,1c0.7,0.6,1.2,0.5,2,0.5c-0.8,0.4-1.6,0.7-2.4,1.1c-0.6,0.3-0.8,0.1-1.4-0.2
			c-1-0.5-1.9-0.9-2.8-1.4c-0.5-0.2-0.6-0.8-0.8-1.3c-0.5-1.3-1.4-2.5-1.2-3.9c0.2-2.1,0.5-4.2,0.7-6.3c0.2-2,0.3-4.1,0.7-6.1
			c0.5-2.5,0.9-5,1.4-7.5c0.3-1.5,0.6-3,0.9-4.6c0.1-0.7,0.4-1.4,0.4-2c0-0.6-0.1-1.2-0.2-1.7c0-0.4,0-1.2-0.2-1.5
			c-0.2-0.3-0.9-0.6-1.2-0.8c-0.6-0.4-1.2-0.8-1.8-1.2c-0.6-0.4-0.8-0.8-1.1-1.5c-0.7-1.3-1.4-2.7-2.2-4c-0.6-1.1-1.2-2.2-1.8-3.3
			c-0.4-0.7,0.3-2,0.4-2.7c0.1-0.4,0.1-1.1,0.3-1.4c0.3-0.4,0.7-0.9,1-1.3c0.8-1,1.4-1.5,1.2-2.9c0-0.3-0.2-0.5,0-0.7
			c0,0-0.1-0.5,0-0.6c0.1-0.4-0.8-0.8-0.7-1.2c0.1-0.5,0.1-0.4-0.3-0.7c-0.3-0.2-0.3-0.2-0.6,0c-0.2,0.1-0.4,0.3-0.6,0.5
			c-0.1,0.1,0.2,0.4,0.3,0.6c-0.6,0.2-0.6,0.3-0.8-0.3c-0.1,0.3-0.7-0.2-1-0.3c-0.2,0-0.3,0.2-0.4,0.1c-0.2-0.1-0.4-0.3-0.5-0.4
			c-0.4-0.3-1.1-0.6-1.3-1c-0.2-0.3-0.1-0.9-0.4-1.2c-0.7-0.8-1.1-1.5-2.1-1.8c-0.7-0.2-2-0.3-2.6-0.8c-0.5-0.5-1-1-1.6-1.5
			c-0.3-0.3-0.8,0-1.2,0.1c-0.9,0.3-1.9-0.4-2.7-0.7c-0.7-0.3-1.4-0.6-2.1-0.9c-0.2-0.1-0.6-0.2-0.8-0.3c-0.5-0.5-0.9-0.9-1.4-1.4
			c-0.4-0.4-0.2-0.7,0-1.3c0.1-0.4-0.6-1.2-0.8-1.5c-0.2-0.4-0.4-0.6-0.7-0.9c-0.5-0.5-1-0.9-1.5-1.4c-0.1-0.1,0-0.4,0.1-0.6
			c0-0.2-0.2-0.4-0.3-0.5c-0.4-0.5-0.6-0.9-1.1-1.2c-0.4-0.3-0.8-0.5-0.9-0.9c-0.1-0.3-0.3-1.6-0.5-1.7c-0.5-0.2-0.9-0.4-1.4-0.6
			c0.2,0.5,0.3,1.5,0.6,1.9c0.5,0.6,0.9,1.1,1.2,1.8c0.2,0.4,0.3,0.5,0.6,0.8c0.2,0.2,0.3,0.6,0.4,0.9c0.1,0.3,0.3,0.6,0.3,1
			c0,0.6,0.3,0.2,0.4,0.3c0.2,0.1,0.6,0.5,0.5,0.8c-0.1,0.4-0.4,0.5-0.6,0.2c-0.3-0.6-0.9-1-1.5-1.4c-0.2-0.1-0.1-0.8-0.1-1
			c0-0.3-0.5-0.5-0.7-0.7c-0.2-0.2-0.4-0.1-0.6-0.3c-0.3-0.2-0.5-0.5-0.8-0.7c0.3,0,1-0.1,0.6-0.7c-0.3-0.5-0.5-0.8-1-1
			c-0.3-0.2-0.4-0.8-0.6-1.1c-0.2-0.6-0.5-1.3-0.7-1.9c-0.3-0.7-1.2-1.3-1.8-1.5c-0.5-0.1-0.7-0.1-1-0.6c-0.3-0.6-0.5-1.1-0.8-1.7
			c-0.4-0.8-1.2-1.4-1.4-2.3c-0.4-1.2-0.3-2-0.3-3.2c0-1.1,0.1-2.1,0.2-3.2c0.1-1-0.2-1.7-0.5-2.6c0.6,0.1,1.1,0.3,1.7,0.5
			c0-0.9,0.1-1-0.5-1.6c-0.4-0.4-0.8-0.8-1.3-1.1c-0.4-0.3-0.9-0.3-1.4-0.5c-0.8-0.3-0.9-0.4-1.2-1.2c-0.4-0.9-1.8-1.4-1.7-2.5
			c0.1-1,0-0.9-0.8-1.4c-0.1-0.1-0.6,0.9-0.9,0.4c-0.2-0.4-0.6-1.3-1-1.5c-0.5-0.3-0.6-0.4-1-0.9c-0.3-0.5-0.6-1.2-1.1-1.6
			c-0.3-0.3-0.9-0.6-1.2-0.9c-1-0.7-1.8-1-2.9-1.4c-0.4-0.2-0.9,0.2-1.4,0.1c-0.4-0.1-1-0.6-1.4-0.8c-0.5-0.3-0.7-0.5-1.3-0.4
			c-0.5,0.1-0.8,0.2-0.6,0.9c0.2,0.6-2.1,1.2-2.6,1.4c-0.1-0.3,0-0.4,0.3-0.5c-0.4-0.1-0.1-1.2,0.1-1.3c0.6-0.3,0.8-0.3,1.5-0.3
			c-0.1-0.1-0.3-0.3-0.4-0.4c0.2-0.1,0.3-0.2,0.5-0.4c-1,0.2-1.4,0.4-2.2,1c-0.7,0.5-1,1.2-1.5,2c0.2,0.1,0.5,0.1,0.7,0.2
			c-0.7,0.9-1.4,1.4-2.3,2.1c-0.4,0.3-1.9,0.7-1.9,1.4c-0.1,0.6-1.9,0.9-2.4,1.1c-0.2,0.1-0.4,0.1-0.7,0.1c-0.3,0-0.1,0.2-0.3,0.3
			c-0.4,0.3-0.8,0.4-1.2,0.3c0.4-0.4,0.9-0.5,1.4-0.8c0.4-0.2,1.5-1.3,1.8-0.7c0.2-0.4,1.1-1.4,1.6-1.1c-0.2-0.5,0.7-0.7,0.8-1.3
			c0.1-0.4,0.1-0.5,0.4-0.8c0.2-0.2,0.4-0.3,0.2-0.6c-0.6,0.3-1.3,0.9-1.9,0.4c-0.2-0.2-0.6-0.6-0.9-0.5c-0.3,0.1-0.6,0.3-0.9,0.4
			c-0.1-0.6-0.2-1.3-0.3-1.9c-0.2,0.1-1,0.7-1.1,0.6c-0.3-0.3-0.9-0.6-1.1-0.9c-0.2-0.4-0.2-1.1-0.3-1.6c-0.1-0.4,0.2-0.7,0.4-1
			c0.4-0.6,0.3-0.8,1-0.7c0.5,0.1,0.6-0.4,1.1-0.6c0.5-0.2,0.9,0.2,1.1-0.4c0.2-0.5-0.1-0.6-0.4-0.9c0.1-0.1,0.3-0.2,0.4-0.2
			c-0.2-0.6-0.7-0.1-1,0.1c-0.4,0.3-0.5,0-1,0c-0.9,0.1-1.9,0.3-2.4-0.7c0.1,0,0.2-0.1,0.3-0.2c-0.4-0.1-1-0.2-1.3-0.6
			c0.6-0.3,1.1-0.6,1.8-0.6c0-0.1-0.1-0.1-0.2-0.2c0.5-0.3,0.9-0.4,1.5-0.4c0,0.7,0.5,0.6,1.1,0.7c0.5,0.1,0.6-0.1,1-0.4
			c-0.2-0.1-0.4-0.2-0.6-0.2c0.1,0,0.1-0.1,0.2-0.1c-0.2-0.2-0.3-0.4,0-0.5c-0.5-0.1-0.9-0.1-1.4-0.3c-0.4-0.1-0.4-0.8-0.8-0.9
			c-0.3-0.1-1.4-0.4-1.5-0.7c-0.1-0.1,0.2-0.7,0.2-0.8c0-0.1,0.3-0.1,0.4-0.1c0.4,0,1.1,0.1,1.3-0.3c0.3-0.4,0.6-0.9,1-1.3
			c0.7-0.6,1.6-1,2.4-1.1c0.6-0.1,1-0.1,1.5-0.5c0.6-0.5,0.6-0.5,1.3-0.1c0.6,0.3,2.4-0.1,2.6,0.6c0.2,0.6,2,0.5,2.6,0.6
			c0.9,0.1,1.8,0.2,2.7,0.4c1.3,0.2,2.7,0.5,4,0.7c0.9,0.2,1.7,0.7,2.5,1c0.1,0.1,1.1-1.1,1.2-1.2c0.2-0.3,0.7,0.5,1,0.4
			c0.5-0.2,2.6-1.5,2.9-1c-0.8,0.4-1.6,0.8-2.3,1.2c0.6,0.4,2.6-1.3,2.8-0.6c0.2-0.3,0.5-0.5,0.7-0.8c0.2-0.2-0.3-0.3,0.1-0.6
			c0.6,0.7,1.2,1.3,1.8,2c0.2-0.7,0.3-0.9,0.8-1.3c0.3,0.3-0.2,0.4,0.2,0.7c0.1,0.1-0.1,0.4-0.2,0.5c0.3-0.1,0.7-0.1,0.9-0.2
			c0.1-0.1-0.1-0.4,0.1-0.4c0.1,0,0.3,0,0.4-0.1c0.5-0.1,1.2,0.4,1.7,0.6c1,0.4,2.1,0.6,3.1,0.9c0-0.1,0-0.1-0.1-0.2
			c0.7,0,1,0.3,1.6,0.7c0.4,0.3-0.9,0.7-1,0.8c0.4,0.1,0.9,0.4,1.4,0.3c0.8-0.1,1.5-0.1,2.3-0.2c0.3,0,1-0.1,1.2,0.2
			c0.3,0.5,0.7,1,1,1.5c-0.1-0.2-0.1-0.4-0.2-0.7c0-0.1,0.1-0.3,0.1-0.4c-0.1-0.5-0.3-0.4,0-0.9c0.2-0.4,1.7-0.4,1.4-0.9
			c-0.7,0.3-1.3,0.5-2.1,0.5c0.2-0.7,0.5-0.6,1.1-0.8c0.6-0.2,0.7-0.3,1.3,0.1c0.2,0.1,0.3,0.5,0.4,0.7c0.1,0.2,0.3,0.2,0.5,0.3
			c0.5,0.1,0.9,0.3,1.4,0.4c0.4,0.1,2.5,0.4,2.6,0.1c0.2-0.6,0.2-0.9,0.9-0.9c0.4,0,0.9,0.2,1.3,0.3c-0.1,0.2-0.3,0.8-0.3,1
			c0.1,0.2,0.7,0.4,0.8,0.6c-0.2-0.7-0.5-1.3,0.4-1.4c0.4-0.1,0.6-0.4,0.8-0.6c0.2-0.2,0.1-0.4,0-0.7c-0.2,0.1-0.4,0.2-0.7,0.3
			c-0.1-0.7,0.4-0.8,0.9-0.8c0-0.5-0.5-0.2-0.9-0.3c-0.3-0.1-1.2-0.3-1.3-0.5c-0.2-0.6-0.2-1-0.2-1.6c0-0.6,0.3-0.7,0.8-0.5
			c0.1-0.3-0.1-0.4-0.4-0.4c0.5-0.3,0.5-0.3,0.5-0.8c0-0.5,0-0.7-0.3-1.2c-0.2-0.3,0-0.8,0-1.2c0-0.3,0.5-0.1,0.7-0.1
			c-0.8-0.9,0.6-0.7,1.2-0.7c0.8,0,1.4,0.1,2.1,0.3c-0.3,0.5-0.8,1.5-1.2,1.8c-0.4,0.2-1.4,0-1.8,0c1.4,0.2-0.2,1.1-0.1,1.5
			c0.7-0.1,1.1,0.5,1.2,1.2c0.1,0.4,0.8,0.9,1.1,1.3c-0.3,0.2-0.7,0.5-1,0.7c0.3,0.1,0.6,0.4,0.9,0.1c0.3-0.2,0.6,0.1,0.9,0.2
			c-0.2,0.1-0.3,0.2-0.5,0.3c0.3,0.3,0.5,0.3,0.4,0.7c-0.1,0.4-0.2,0.5,0.2,0.8c0.2-0.3,0.4-0.5,0.4-0.9c0-0.2,0.2-0.8,0.4-0.6
			c0.2,0.1,0.8,0.4,0.9,0.6c0.1,0.4,0.3,0.8-0.1,1c0-0.1-0.1-0.2,0-0.3c-1,0.5,1.2,2.4,1.3,1.4c0-0.3,0-0.5,0.2-0.6
			c0.1-0.1,0.4-0.3,0.4-0.4c0-0.8,0-0.7,0.7-1c-0.3-0.4-0.5-0.6-0.4-1.1c0.1-0.5,0.4-0.4,0.8-0.3c0.3,0,1.1,0,1.2,0.2
			c0.4,0.4,0.5,0.5,1,0.6c-0.2,0.4,0.1,0.7-0.1,0.9c-0.2,0.2-0.7,0.1-0.9,0.1c0.2,0.4,0.3,0.8,0.6,1.1c0.3,0.3,0.5,0.6,0.1,1.1
			c-0.2,0.3-0.9,0.5-1.2,0.7c-0.3,0.2-0.6-0.2-0.8-0.5c0.1,0.3,0.3,0.6,0.4,0.9c-0.2-0.1-0.4-0.2-0.6-0.3c0,0.1,0,0.2,0.1,0.3
			c-0.2,0-0.4-0.1-0.6-0.1c-0.1,0,0-0.4-0.2-0.4c-0.3,0-0.8-0.1-0.9,0.2c0.2,0.1,0.4,0.2,0.6,0.3c-0.2,0.3-0.4,0.7-0.7,0.9
			c-0.5,0.3-0.6,0-1.1-0.2c-0.8-0.4-1.4-0.4-2.2-0.4c0.6,0.3,1.2,0.6,1.7,0.9c0.4,0.2,1.1,0.1,1.6,0.2c-0.2,0.3-0.5,1.2-0.8,1.3
			c-0.2,0.1-0.4,0.3-0.6,0.3c-0.2,0-0.5-0.1-0.7,0c-0.6,0.5-0.7,0.5-1.4,0.3c-0.5-0.1-0.9-0.2-1.4-0.4c0.3,0.1,0.6,0.3,0.9,0.4
			c-0.1,0.1-0.1,0.1-0.2,0.2c0.5-0.1,0.6-0.1,1,0.1c0.2,0.1,0.6,0.5,0.2,0.6c-0.4,0.2-0.6,0.2-1.1,0.2c-0.1,0-0.4,0.5-0.5,0.6
			c-0.4,0.6-0.9,1.2-1.1,1.9c-0.2,0.8-0.3,1.6-0.5,2.4c0.3,0.1,1,0.1,1.2,0.3c0.3,0.2,0.4,1.2,0.5,1.5c0.2,0.6,0.4,0.4,1,0.3
			c0.3-0.1,0.7,0.2,1,0.3c0.9,0.3,1.6,0.6,2.4,1.2c0.3,0.2,0.8,0.7,1.1,0.7c0.5,0.1,0.9,0.1,1.4,0.1c0.2,0,1,0,1,0.2
			c0,0.6-0.1,1.3-0.1,1.9c0,0.9,0.9,1.6,1.4,2.2c0.5,0.6,1.6-0.5,1.5-1.1c-0.1-0.6-0.2-1.1-0.3-1.7c-0.1-0.3-0.4-0.7-0.6-1
			c0.6-0.4,1.6-0.8,2-1.3c0.4-0.5,0.4-1.9,0-2.3c-0.3-0.3-0.6-0.6-0.9-0.9c-0.4-0.5-0.5-0.5,0-0.9c0.5-0.4,0.5-0.4,0.3-1
			c-0.1-0.4-0.3-0.8-0.2-1.1c0.2-0.6,0.2-0.8,0-1.4c-0.1-0.4,0.1-0.5,0.5-0.6c0.8-0.1,1.5,0.6,2.2,0.2c0.5-0.2,0.6,0,1,0.3
			c0.2,0.1,0.8,0.4,0.9,0.7c0.1,0.4,0.3,0.7,0.8,0.7c0.4-0.1,0.6,0.1,1,0.3c-0.2,0.3-0.3,0.4-0.3,0.8c0.1,0.4,0.2,0.7,0,1
			c0.1,0,0.2,0,0.3,0c-0.2,0.2-0.7,0.6-0.4,0.9c0.5-1.4,2.2,1.7,2.6-0.2c0.1,0.1,0.2,0.1,0.3,0.2c0.2-0.4,0.5-0.8,0.4-1.3
			c-0.1-0.3,0.4-1,0.7-0.9c0,0.2-0.1,0.3-0.1,0.5c0.8,0,1.3,1.6,1.6,2.2c0.2,0.3,0.8,1,0.8,1.4c0,0.2-0.4,0.5-0.3,0.7
			c0,0.1,0.4,0.3,0.5,0.4c0.2,0.1,0.5,0.3,0.6,0.5c0.1,0.2-0.1,0.5,0.2,0.5c0.6,0,0.8,0,1.3,0.4c0.3,0.2,1,0.5,0.3,0.6
			c-0.4,0.1-0.8,0.2-1.2,0.3c0.2,0.1,0.6-0.1,0.8-0.2c-0.2,0.3-0.7,0.3-1.1,0.4c-0.3,0.1-0.2,0.7,0,0.5c0.1-0.2,0.2-0.2,0.5-0.3
			c0.2-0.1,0.1-0.2,0.2-0.2c0.3-0.2,0.6-0.2,0.9-0.3c-0.2,0-0.2-0.1-0.3-0.2c0.2,0,0.7,0,0.8,0.3c0.1,0.4-0.3,0.3,0,0.6
			c0.3-0.5,0.6-0.2,1-0.1c0.3,0.1,0.1,0.7,0,0.9c-0.1,0.4,0.3,0.5,0,0.9c-0.1,0.2-0.7,0.5-0.9,0.5c-0.3,0.1-0.6,0-1,0.1
			c-0.4,0.1-0.5,0.3-0.8,0.6c-0.5,0.6-1,0.7-1.8,0.6c-0.8-0.1-1.6-0.1-2.4-0.1c-0.7,0-1.5-0.2-1.6,0.8c-0.1,0.2-0.7,0.3-0.9,0.5
			c-0.3,0.2-0.6,0.6-0.8,0.9c-0.5,0.5-0.7,1.1-1.3,1.5c1-0.5,1.5-1.5,2.4-1.9c0.7-0.3,2.4-1.3,2.9-0.1c-0.1,0-0.2-0.1-0.2-0.1
			c0.5,0.3-0.2,0.6-0.4,0.8c-0.3,0.3-0.6-0.2-0.9,0c0.1,0,0.5,0.4,0.5,0.4c0.2-0.1,0.4-0.1,0.7,0c-0.1,0.3-0.2,0.5-0.4,0.7
			c0.1,0,0.2,0,0.4,0c-0.2,0.5,0.4,0.9,0.7,1c0,0-0.1,0.1-0.1,0.1c0.6,0.3,1.1,0.5,1.6,0.1c0,0.1,0,0.2,0.1,0.3c0.1,0,0.3,0,0.3-0.1
			c-0.3-0.4,0.3-1,0.6-1.4c0.4,0.2,0.2,0.5,0.1,0.9c0.3-0.2,0.8,0.2,0.5,0.4c-0.4,0.2-0.7,0.4-1.1,0.3c0.1,0.1,0.1,0.2,0.2,0.3
			c-0.5,0.2-0.9,0.4-1.4,0.6c-0.2,0.1-0.4,0.1-0.5,0.2c-0.2,0.2-0.2-0.2-0.4-0.1c-0.3,0.2-0.6,0.7-0.9,1c-0.2,0.2-0.4-0.1-0.6-0.1
			c-0.5-0.7,0.7-1.3,1.1-1.6c0.3-0.2,0.1,0,0.3,0.1c0.3,0.2,0.4-0.1,0.7-0.3c-0.3,0-0.7-0.1-1,0.1c0-0.2,0.1-0.3,0.3-0.5
			c-0.4-0.1-0.8,0.4-1.1,0.6c-0.2,0.1-0.2-0.2-0.4,0.1c-0.1,0.1-0.4,0.1-0.5,0.1c0.2,0.7-1,0.5-1.2,0.8c0-0.1-0.1-0.1-0.2-0.2
			c-0.2,0.4-0.4,0.4-0.7,0.6c-0.2,0.1-0.3,0.3-0.4,0.5c-0.2,0.4-0.9,1.7,0.1,1.6c0-0.1-0.1-0.1-0.1-0.2c0.1,0.1,0.1,0.2,0.2,0.2
			c-0.3,0.2-0.6,0-0.9,0c-0.2,0-0.1,0.4-0.3,0.4c-0.7,0.1-1,0.1-1.6,0.5c0.4-0.1,0.8-0.3,1.2-0.3c0,0-0.1,0.1-0.1,0.1
			c0.1,0,0.2,0,0.4,0c-0.3,0.2-0.5,0.3-0.8,0.3c-0.3,0-0.7-0.1-0.9,0.2c0.7,0.1-0.3,1.3-0.5,1.5c0.2-0.3-0.3-0.5-0.4-0.8
			c0,0.4,0.5,0.9,0.3,1.3c-0.2,0.4-0.5,0.8-0.6,1.2l-0.1,0c0-0.3,0.1-0.5,0.2-0.7c-0.2-0.1-0.1-0.5-0.4-0.4c0-0.3,0.1-0.5,0.2-0.8
			c0,0,0.2-0.5,0-0.4c-0.6,0.4-0.4,0.7-0.2,1.4c-0.2-0.1-0.3-0.2-0.5-0.3c0.1,0.2,0.5,0.3,0.6,0.5c0.1,0.2-0.1,0.6-0.1,0.8
			c0.1,0.3,0.5,0.1,0.4,0.6c-0.1,0.4-0.3,0.3-0.6,0.4c0.3,0,0.8-0.1,0.7,0.3c0,0.2-0.6,0.2-0.8,0.2c0.1,0,0.2,0.1,0.2,0.2
			c-0.1,0-0.2,0.1-0.4,0.1c0.1,0.3,0.3,0,0.6,0.2c-0.2,0.1-0.3,0.2-0.5,0.3c-0.1,0.1-0.3-0.1-0.4-0.1c-0.2,0.1-0.4,0.6-0.5,0.8
			c-0.1,0.1-0.4,0.1-0.6,0.3c-0.2,0.2-0.3,0.5-0.5,0.6c-0.8,0.4-0.9,0.7-1.3,1.5c-0.2,0.4-0.1,1.1,0.1,1.5c0.3,0.7,0.5,1.3,0.8,2.1
			c0.1,0.4,0.2,1.4-0.1,1.6c-0.2,0.2-0.4,0.5-0.6,0.1c-0.1-0.1-0.5-0.5-0.5-0.5c-0.1-0.3-0.2-0.6-0.3-0.8c-0.1-0.3-0.3-0.5-0.2-0.8
			c-0.1,0-0.1,0.1-0.2,0.1c-0.1-0.5,0.3-1.1-0.2-1.4c-0.4-0.3-0.6-0.8-1.1-0.7c-0.3,0.1-0.5,0.3-0.8,0.1c-0.2-0.1-0.5-0.4-0.7-0.5
			c-0.4-0.1-1.1,0.4-1.2-0.3c-0.1,0.6-1.4,0.2-1.8,0.5c0.3,0,1.3,0.2,0.5,0.5c0.1,0,0.5,0.2,0.5,0.3c0.1,0.2-0.1,0.3-0.3,0.3
			c0.1-0.3-0.3-0.4-0.5-0.5c0,0.2,0,0.3,0,0.4c-0.2-0.4-0.4,0-0.6-0.2c-0.3-0.2-0.5-0.5-0.8-0.3c-0.2,0.1-0.5-0.1-0.7-0.2
			c-0.4-0.1-1,0.3-1.4,0.4c-0.6,0.2-2,1.3-2.1,2.2c0,0.3,0.4,0.5,0.4,0.8c0,0.2-0.1,0.5-0.2,0.7c-0.1,0.5-0.3,1-0.3,1.5
			c0,1.3,0.2,2.2,0.9,3.2c0.4,0.6,0.6,1,1.2,1.2c0.1,0,0.4,0.4,0.5,0.3c0.3-0.1,0.5-0.2,0.8-0.3c0.3-0.1,0.5-0.1,0.7-0.2
			c0.2,0,0.4,0.2,0.5,0.2c0.1-0.1,0.3-0.1,0.3-0.2c0.1-0.1-0.1-0.2,0-0.3c0.2-0.2,0.4-0.3,0.4-0.6c0.2-0.5,0.1-1.1,0.7-1.4
			c0.2-0.1,1-0.3,1.2-0.2c0.3,0,1.2-0.1,0.9,0.5c-0.1,0.3-0.5,1.1-0.7,1.1c0.1,0.1,0,0.2,0.3,0.1c-0.1,0.1-0.2,0.2-0.2,0.2l0,0.1
			c0,0,0.1-0.1,0.1-0.1c-0.1,0.3-0.2,0.6-0.3,1c-0.1-0.1-0.2-0.4-0.2-0.6c-0.1,0.1-0.2,0.3-0.2,0.4c0.4,0-0.1,0.8,0.1,1.1
			c0.1,0.3-0.3,0.8-0.5,0.9c0.6,0.2,1.2,0,1.8,0.1c0.3,0,0.4-0.2,0.7-0.1c0.3,0,0.7,0,0.9,0.1c0.6,0.2,0.9,0.6,0.8,1.3
			c-0.1,0.4-0.1,0.8-0.2,1.2c0,0.2-0.2,0.5-0.3,0.7c-0.1,1.1,1.2,3,2.3,2.6c0.6-0.3,1-0.5,1.6-0.3c0.6,0.2,0.9,0.5,1.4,1.1
			c0-0.8,1-1.9,1.3-2.5c0.1-0.2,0.9-0.3,1.1-0.4c0.5-0.2,1.1-0.4,1.6-0.6c0.5-0.2,1.4,0.3,1.9,0.4c1.3,0.3,2.6,0.6,3.8,0.9
			c0.7,0.2,1.4,0.2,1.9,0.7c1,1,2,1.9,3,2.9c0.6,0.6,2,0.6,2.8,0.8c0.7,0.2,1.3,1.4,1.8,2.1c0.5,0.6,1,1.3,1.4,1.9
			c0.1,0.2,0.4,0.7,0.6,0.7c1,0.4,2.1,0.7,3.1,1.1c1,0.4,2.1,0.7,3.1,1.1c0.9,0.3,1.7,1.2,2.5,1.8c0.1,0,1.1,0,1.1,0.1
			C134,165.4,134.1,165.8,134.2,166.3z M101.2,122.5c0,0.3-1,0.6-1.4,0.6c-0.5,0-0.5,0-0.9,0.3c-0.2,0.2-0.4,0.4-0.7,0.3
			c0-0.2,0.2-0.4,0.4-0.4c-0.1-0.2-0.1,0-0.2-0.3c-0.3,0.3-0.4,0.6-0.6,1c0.2,0,0.3,0.1,0.5,0.1c0,0-0.1,0.1-0.1,0.2
			c0.7,0.1,1-0.3,1.6-0.5c0.6-0.2,1-0.5,1.5-0.9C101.3,122.7,101.3,122.6,101.2,122.5z M102.1,122.3c0.5,0.5,1.7-0.5,1.1-0.7
			c0.2-0.1,0.3-0.3,0.5-0.4c-0.3,0.1-1,0.7-1.2,0.6c-0.4-0.2-0.9,0.1-1.4,0.2C100.1,123,101.7,121.9,102.1,122.3z M91.4,118.7
			c0.3,0.2,0.6,0,0.9-0.1c0,0.1-0.1,0.1-0.1,0.2c0.7,0.4,1.8-1.1,2.4-0.7c-0.3,0.1-0.5,0.3-0.6,0.6c0.3-0.1,0.5-0.2,0.7,0.1
			c0.2,0.2,0.3,0.1,0.6,0.3c0.1,0.1,1.2-0.3,1.4-0.3c-0.1,0.3,0.2,0.2,0.4,0.3c0.2,0.1,0.2,0.4,0.4,0.5c-0.3,0-0.5-0.2-0.6,0.1
			c-0.4-0.4-1.1-0.2-1.4,0.2l-0.1-0.1c0-0.1,0.1-0.1,0.1-0.2c-0.1,0.1-0.2,0.1-0.3,0.2c0-0.1,0-0.1,0-0.2c-0.3,0.3-0.7,1-0.8,1.3
			c0.3,0.1,0.5-0.5,0.7-0.7c0,0.3-0.2,0.7-0.3,1c-0.1,0.4-0.3,0.8-0.3,1.2c0,0.6,0.4,2.3,1,1c0.3-0.7,0.2-1.1,0.1-1.8
			c-0.1-0.8,0.4-0.9,0.6-1.3c0,0.1,0,0.3,0,0.4c0.2-0.2,0.1-0.6,0.5-0.6c-0.3-0.5,0.4-0.4,0.6-0.2c0.2,0.3,0.6,0.1,0.7,0.6
			c-0.1,0-0.1,0-0.1,0c0.1,0.2,0.2,0.6,0,0.8c0,0-0.4,0.4-0.3,0.5c0.1,0.2,0.6-0.3,0.8-0.3c0.3,0,0.3,0.8,0.4,1.1
			c0.2-0.2,0.3-0.4,0.5-0.6c0.1-0.1,0-0.5,0.1-0.6c0.1-0.4,0.5-0.8,0-1.1c0.4-0.2,0.2,0.3,0.5,0.3c-0.1,0.1,0,0.1-0.1,0.2
			c0.1,0.1,0.1,0,0.1,0.1c0.2-0.2,0.5,0.1,0.7,0c0,0-0.1-0.4,0.2-0.2c-0.4-0.3-0.3-1.1-0.9-1.2c-0.5-0.1-1.1-0.1-1.6-0.2
			c-0.2,0-1.2-0.3-1.1-0.5c0.1-0.1,0-0.2-0.1-0.4c-0.1-0.1,0.1-0.2,0.1-0.3c-0.1-0.4-0.4-0.2-0.2-0.7c-0.8,0.1-0.7-0.2-1.1-0.8
			c-0.2-0.3-0.5,0-0.7,0c-0.3-0.1-0.5-0.3-0.8-0.2c0.3,0.2,0,0.4-0.2,0.5c0.1-0.1,0.1-0.2,0.1-0.4c-0.2,0.1-0.2,0.4-0.4,0.5
			c0-0.1,0.1-0.2,0.1-0.3c-0.4,0.1-0.2,0.4-0.5,0.6c-0.3,0.1-0.7,0.3-1,0.4C92,118.1,91.7,118.4,91.4,118.7z M72.2,95.4
			c-0.1,0-0.2-0.1-0.3-0.1c0.1-0.1,0.1-0.2,0.2-0.2c-0.4,0-0.6,0.4-0.9,0.4c-0.5,0.1-0.7,0.1-1.1-0.1c0.1-0.4,0.7-0.5,1-0.6
			c-0.6-0.2-0.8-0.3-1.4,0c-0.4,0.2-0.8,0.3-1.2,0.4c-0.4,0.1-0.9,0.2-1.3,0.3c-0.2,0.1-1.2,0.1-0.5,0.6c0,0,0.2-0.1,0.2-0.1
			c0-0.1,0-0.1-0.1-0.1c0.3-0.1,1-0.1,1.3,0c0-0.1,0-0.1-0.1-0.1c0.5-0.1,0.9,0,1.4,0.3c-0.2,0.4-0.8,0-1.1,0.1
			c0.1,0.1,0.3,0.2,0.4,0.4c-0.2,0.1-0.4,0.2-0.5,0.3c0.3,0.4-0.2,0.4-0.4,0.4c0.3,0.2,0.7,0.1,1,0.2c0.2,0.1,0.5-0.5,0.7-0.6
			c0.3-0.2,0.9,0,0.5,0.3c-0.2,0.1-0.2,0.3-0.3,0.4c-0.1,0.1-0.3,0.1-0.4,0.1c0.5,0.4,0.9-0.8,1.5-0.6c-0.1-0.2-0.2-0.3-0.4-0.4
			c0.5-0.5,1.4,0.2,1.6-0.3c-0.1,0-0.2,0-0.3,0c0-0.3,0.2-0.2,0.3-0.3C72.1,95.7,72.2,95.6,72.2,95.4z M78.7,100.2
			c-0.5-0.2-1.3-0.4-1.8,0c-0.2,0.2-0.3,0.4-0.5,0.6c-0.3,0.3-0.4,0.3-0.7,0.4c-0.3,0-0.9,0-1-0.4c0-0.1-0.6,0-0.8-0.3
			c0-0.1-0.6-0.3-0.6-0.2c-0.1,0.1,0.5,0.4,0.6,0.4c-0.2,0.4,0.8,0.8,0.2,0.9c-0.2,0-0.4-0.1-0.5,0.1c-0.1,0.2-0.1,0.3-0.3,0.4
			c0,0,0.1,0.1,0.1,0.1c-0.2,0.2-0.4,0-0.7,0c0,0,0,0.1,0,0.1c-0.2,0-0.4-0.1-0.7-0.1c0.3,0.4,1.1,0.5,1.6,0.6
			c0.3,0,1.5-0.1,1.3-0.5c0.4-0.3,0.6-0.2,1-0.4c0.2-0.1,0.5-0.4,0.7-0.6c-0.1,0-0.1,0-0.2,0c0.3-0.2,0.4-0.4,0.7-0.5
			c0.3-0.1,0.4,0,0.7-0.2c-0.2,0.1-0.2,0.1-0.4,0c0.2,0,0.4-0.1,0.6-0.1c-0.2,0-0.4,0-0.5-0.1c0.1,0,0.3,0,0.4,0
			c-0.5-0.2-0.9,0.2-1.4,0.5c0.2-0.6,1.7-0.9,1.8-0.3C78.5,100.5,78.6,100.3,78.7,100.2z M87.1,113.3c0-0.3,0-0.2,0.2-0.3
			c0,0.1,0,0.2,0,0.2c0-0.1,0.1-0.1,0.1-0.1c0.2,0.1,0.2,0.4,0.1,0.6c0.1-0.1,0.2-0.3,0.4-0.2c0.1,0.1-0.1,0.4-0.1,0.5
			c0.1-0.1,0.2-0.1,0.3-0.1c-0.3,0.2-0.3,0.6-0.2,0.9c0.1,0.3,0.3-0.1,0.3-0.2c0.1,0,0.1,0,0.2,0.1c-0.1-0.3,0.1-0.6-0.1-0.8
			c-0.2-0.2-0.3-0.6-0.4-0.8c-0.2-0.4-0.9-2-0.6-2.2l-0.1,0c-0.1,0.1-0.1,0.1-0.3,0.1c0-0.2,0.2-0.3,0.3-0.3c0,0-0.1-0.1-0.2-0.1
			c-0.2,0.4-0.2,0.6,0.1,0.8c-0.3-0.1-0.8-0.4-0.9,0c-0.2,0.7-0.1,0.6,0.4,0.7c-0.6,0.1,0.1,0.9,0.3,1.2
			C86.9,113.2,87,113.2,87.1,113.3z M36,103.4c-0.5-0.2-0.8,0.2-1.3,0.1c0.2,0.3,0.6,0.4,0.9,0.5c0.1-0.2,0.3-0.1,0.5-0.2
			c0,0,0-0.1,0-0.1C36,103.6,35.9,103.6,36,103.4z M66.4,87.3c0.5,0.2,0.8,0.4,1.2,0.8c0.6,0.6,0.5,0.6,1.2,0.2
			c0.1-0.1,0.2-0.1,0.3-0.2c0.1-0.1,0.1,0.2,0.1,0.1c0.2-0.1,0.5-0.2,0.7-0.3l0.2-1c0.3,0.2,0.7-0.1,0.8-0.4
			c0.1-0.3,0.2-0.3,0.5-0.4c0.6-0.3,1.6-0.5,2.1-0.9c0.3-0.3,0.3-0.4-0.1-0.7c-0.3-0.2-0.5-0.4-0.8-0.5c-0.6-0.2-1.2-0.5-1.7,0.1
			c0-0.1,0-0.2,0.1-0.3c-0.7,0.2-1.3-0.6-1.9-0.5c-0.8,0.1-1.5,0.2-2.3,0.3c0.1,0.2,0.7,1,0.6,1.1c-0.3,0.2-0.9,0.8-0.5,1.2
			c-0.7,0.1-0.2,0.3-0.4,0.6c-0.2,0.3-0.6,0.5-0.5,0.9C66.2,87.3,66.3,87.3,66.4,87.3z M69.3,81c0.4,0.1,0.2-0.3,0.3-0.4
			c0.2-0.2,0.5,0.1,0.5,0.5c0.2-0.1,0.5-0.1,0.7-0.3c0.2-0.2-0.3-0.5,0-0.6c0.2-0.1,0.3,0.5,0.6,0.2c0.2-0.2,0-0.4-0.1-0.5
			c0.2-0.2,0.5,0.1,0.5-0.4c0-0.2,0.3-0.2,0.4-0.1c-0.6,0.4,0,0.9,0.5,0.8c0.3-0.1,1.2-0.7,0.6-1.1c0.1-0.1,0.3-0.1,0.4-0.1
			c-0.8-0.1-0.1-0.5,0.3-0.6c-0.5-0.3-0.7-0.5-1.3-0.3c0.1,0.1,0.1,0.1,0.2,0.2c-0.2,0.2-0.5,0.1-0.7,0c-0.2-0.1-0.5,0-0.7,0.1
			c-0.5,0.1-0.7,0.3-1.1,0.7c-0.3,0.2-0.8,0.9-1.2,1c-0.6,0.1-1,0.2-0.5,0.8C68.8,80.9,69.1,80.9,69.3,81z M75.2,77.6
			c-0.5-0.4-0.5-0.5-1.1-0.3c0.2,0.2,0.4,0.3,0.7,0.5C74.9,77.7,75,77.7,75.2,77.6z M45.4,106.1c0.2,0.2,0.6-0.1,0.7-0.2
			c0,0,0.1,0.1,0.1,0.1c0-0.1,0.1-0.1,0.1-0.2c-0.2-0.1-0.3-0.1-0.5-0.2C45.6,105.7,45.5,105.9,45.4,106.1z M61.5,111
			c0-0.4-1-0.3-1-0.2c0,0.5,1.1,2.6,1.5,2.1c-0.1-0.1-0.2-0.2-0.4-0.3C61.6,112,61.5,111.6,61.5,111z M44.9,106.7
			c-0.7-0.4-0.8,1-0.1,1c0.2,0,0.4-0.4,0.6-0.4c0.2,0,0.4-0.1,0.4-0.4c0.2,0.1,0.3,0,0.4-0.2c-0.1,0-0.1,0-0.2,0
			C46.1,106.2,44.8,106.1,44.9,106.7z M67.5,116.3c-0.1-0.2-0.4-0.2-0.5-0.3c-0.2-0.1-0.3-0.2-0.4-0.5c-0.4-0.7-0.5-0.6-1.2-0.8
			c-0.6-0.2-0.7-0.4-1.3-0.3c0.9,1.1,1.9,1.8,3.2,2.5C68,117.2,67.9,117,67.5,116.3z M198.2,171.5c-0.2-0.3-0.8-1.2-0.9-0.3
			c0,0.7-0.2,0.8-0.7,1.3c-0.4,0.4-0.5,0.8-1,1.1c-0.5,0.3-0.9,0.4-1.5,0.6c-0.2,0-0.5,1-0.4,1.3c0.1,0.5,0.4,1.2,0.4,1.7
			c-0.1,0.5-0.6,1-0.8,1.5c-0.2,0.6-0.1,1,0.1,1.6c0.1,0.5,0.2,1.1,0.3,1.6c0,0.2,0.9,0.5,1.1,0.5c0.1-0.1,1.1-0.4,1.1-0.4
			c0.1-0.4,0.2-0.8,0.4-1.2c0.4-1.5,0.9-3,1.3-4.5c0.3-1,0.4-1.5,0.3-2.6c0.1,0.1,0.3,0.3,0.4,0.4
			C198.7,173.1,198.4,172.4,198.2,171.5L198.2,171.5z M250.8,146.9c-0.2,0.3,0,0.8,0.1,1.2c0,0.3,0.4,0.3,0.7,0.4
			c-0.5,0.2-0.1,0.7,0.2,0.8c0.3,0,0.2-0.2,0.6,0c0.1,0.1,0.3,0.3,0.4,0.4c0-0.2,0.1-0.4,0.1-0.6c0.4,0.2,0.5,0.1,0.5,0.6
			c0,0.2,0.5,0.4,0.6,0.5c0.2-0.5-0.3-0.4-0.3-0.9c0.4,0.2,0.6,0,0.3-0.3c-0.1-0.2-0.2,0.2-0.3,0.1c-0.2,0-0.3-0.2-0.5-0.3
			c-0.2-0.1-0.3-0.1-0.4-0.2c-0.2,0-0.2,0.3-0.4,0.3c-0.4,0-0.2-0.4-0.4-0.7c-0.3-0.6,0.1-0.4,0.1-0.9c0-0.2,0.3,0,0.3-0.1
			c0.1-0.1,0.1-0.3,0.1-0.5c0.2-0.6,0-0.3-0.1-0.9c-0.1-0.3,0.3-0.4,0.1-0.8c-0.6,0.3-0.3,0-0.8-0.1c-0.2,0-0.5,0.1-0.5,0.3
			c-0.1,0.5-0.2,0.9-0.2,1.4c0,0.3,0.2,0.3,0.1,0.6C251.1,147.1,250.9,147,250.8,146.9z M252.1,140.5c0.1-0.4,0.5-1.5-0.3-1.1
			c-0.4,0.2-0.8,0.8-0.9,1.3c-0.1,0.6,0.3,1,0.6,1.4C251.8,141.6,252,141.1,252.1,140.5z M250.4,151c-0.1,0.6-0.2,1-0.6,1.4
			c-0.5,0.4-0.7,0.7-1,1.3c0.6-0.4,1.1-0.5,1.3-1.2c0-0.2,0.5-0.4,0.6-0.5c0,0-0.1-0.5-0.1-0.7C250.6,151.2,250.5,151.1,250.4,151z
			 M255.4,152.9c-0.1-0.2-0.2-0.4-0.4-0.5c0,0.2,0.1,0.4,0.1,0.7c-0.3,0-0.2-0.1-0.3,0.1c-0.2-0.2-0.3,0-0.3,0.3
			c-0.3-0.2-0.5,0.3-0.8,0.4c0.2-0.2,0.2-0.6-0.2-0.6c-0.4,0-0.2,0.5-0.4,0.5c-0.4,0.1-1,0.5-0.6,1c0.2-0.1,0.5-1.2,0.6-0.4
			c0.1-0.2,0.1-0.1,0.2-0.3c0,0.2,0,0.2,0.2,0.3c0-0.1,0-0.2,0-0.3c0.8-0.1,0.3,0.7,0.4,1.1c0.1,0.3,0.8,0.8,0.9,0.3l0.1,0
			c-0.2,0.6,0.4,0.3,0.3-0.1c-0.1-0.4-0.3-0.6,0.1-0.9c0.2,0.3,0.1,0.6,0.3,0.9c0-0.2,0-0.3,0-0.5c0,0,0.1,0.1,0.1,0.1
			c0.1-0.2,0.3-1.1,0-1.1c0-0.1,0-0.2,0-0.3c-0.1,0-0.1-0.1-0.2-0.1c0.1-0.1,0.1-0.1,0.2-0.2C255.7,153.1,255.6,152.9,255.4,152.9z
			 M251.4,168.8c-0.1-0.3-1.3-0.7-1.2-0.2C250.5,168.8,251.7,169.6,251.4,168.8z M248.9,167.7c-0.1-0.2-0.5-0.3-0.7-0.3
			c-0.4,0-0.3,0.2-0.5,0.5c0.7,0.2,1.2,0.2,2,0.1c1.1-0.2-0.1-0.8-0.5-0.6C249.3,167.6,249.2,167.7,248.9,167.7z M252.1,168.1
			c0.1,0,0.2-0.2,0.3-0.2c0.3,0.1,0.5-0.3,0.7-0.3c0.5,0,1.3,0.2,1.6-0.1c-0.6-0.2-0.9,0-1.4-0.1c-0.3,0-0.4,0-0.6,0.2
			c-0.1,0.1-0.3-0.1-0.5-0.1c-0.3,0.2-1.1-0.4-1.4,0c-0.4,0.4,0.6,0.3,0.8,0.5C251.9,167.9,252,168.1,252.1,168.1z M252.6,165.1
			c0.1,0.1,0.3,0.3,0.4,0.4c0.2-0.3,0.4-0.3,0.2-0.6c-0.1-0.2,0-0.3,0.2-0.3c-0.1-0.4-0.4-0.3-0.4,0.1
			C252.8,164.1,252.6,164.9,252.6,165.1z M242.6,160.1c0,0.2,0.2,0.3,0.2,0.5c0,0.1-0.2,0.1-0.1,0.3c0,0.1,0.1,0.3,0.1,0.4
			c0.1,0.2,0.2,0,0.1,0.3c0.2-0.1,0.2,0,0.3-0.2c0.4,0.3,0.3,1.1,0.4,1.6c0,0.4,0.9,0.1,1.1,0c0,0.2,0.1,0.4,0.1,0.6
			c0.7-0.4,0.7-0.5,1.4-0.1c0.1,0.1,0.3,0,0.5,0c0.2,0.1,0.2,0.4,0.2,0.6c0.3-0.2,0.7-0.4,1-0.5c-0.1,0.2-0.1,0.4,0.2,0.4
			c0-0.5,0-1,0-1.5c0-0.5,0.1-0.5,0.5-0.8c0.5-0.4,0.5-0.4,0.4-1.1c0-0.3,0.2-0.8,0.5-0.8c0.5,0.1,0.8,0,0.3-0.4
			c-0.1-0.1-0.4-0.3-0.5-0.4c0-0.1,0.1-0.3,0.1-0.4c-0.2-0.6-0.4-0.6-0.4-1.2c0-0.3,0.7-0.3,0.9-0.4c-0.1-0.1-0.2-0.3-0.3-0.4
			c0.3-0.1,0.5-0.2,0.8-0.2c-0.1-0.2-0.2-0.2-0.4-0.3c-0.2,0-0.3-0.3-0.4-0.5c-0.2-0.2-0.7-0.7-0.9-0.7c-0.2,0-0.8,0.9-0.9,1
			c-0.3,0.3,0,0.6-0.5,0.7c-0.5,0.1-0.6,0.1-1,0.6c-0.2,0.3-0.4,0.7-0.7,0.8c-0.4,0.1-0.8,0.1-1,0.5c-0.3,0.5-0.4,0.5,0,0.9
			c-0.4-0.1-1.2-0.1-1.3-0.6c-0.2,0.1-0.3,0.2-0.5,0.3C242.7,159.5,242.6,159.8,242.6,160.1z M254.4,169c0.2-0.2,0.3-0.4,0.5-0.5
			c0.4-0.2,1.3-0.4,1.5-0.9c-0.4,0-0.7,0.1-1,0.1c-0.1,0-0.3,0-0.5,0.1c-0.1,0-0.1,0.2-0.2,0.3c-0.3,0.1-0.6,0.2-0.9,0.5
			c-0.3,0.3,0.2,0.4-0.2,0.7C253.8,169.2,254.2,169.2,254.4,169z M105.9,145.4c0.2,0,0.5-0.1,0.6,0c0.1,0.1,0.1,0.6,0.4,0.5
			c0.1,0,0.1-0.5,0.3-0.6c0.2-0.2,0.3,0.1,0.4,0.1c0.4,0,0.7-0.1,1.1-0.1c0.3,0,0.3,0.3,0.5-0.1c0.1-0.2-0.3-0.4-0.4-0.4
			c-0.4-0.1-0.4-0.1-0.6-0.4c-0.1-0.3-0.2-0.1-0.4-0.2c-0.2-0.1-0.5-0.3-0.7-0.2c-0.1,0-0.4,0.1-0.5,0.1c-0.6,0-0.7-0.2-1.2,0.1
			c0.6,0.3,0.5,0.4,0.8,0.9c-0.3,0.2-1.7-0.3-1.6,0.2C105.1,145.6,105.3,145.3,105.9,145.4z M149.1,98.3c0.4,0.1,0.7-0.2,0.7-0.7
			c0.3,0.2,0.5-0.2,0.8-0.4c-0.3-0.2-0.1-0.6-0.2-0.7c-0.3-0.2-0.5-0.4-0.8-0.3c0.4-0.7-1.6-1.5-1.2-0.6c-0.6-0.1-0.8,0.2-1.3,0
			c0,0.2,0.1,0.4,0.1,0.6c-0.2-0.3-0.3-0.6-0.7-0.6c-0.3,0-0.4,0.3-0.3,0.6c-0.2-0.2-0.4-0.6-0.7-0.5c0.3,0.6-0.1,0.3-0.2,0.6
			c-0.1,0.2-0.2,0.5-0.3,0.7c-0.2-0.2-0.3-0.5-0.4-0.7c0.1,0,0.3-0.1,0.3-0.3c0-0.2-0.3-0.2-0.4-0.3c-0.4-0.4-0.4-0.5-1-0.5
			c0.1,0.3,0.3,0.2,0.5,0.3c0.1,0.7-0.7-0.1-0.9,0.2c-0.3,0.3,0.2,0.3,0.1,0.5c-0.1,0.2-0.3,0-0.5,0c0,0.1,0,0.2,0,0.2
			c-0.2,0-0.2,0-0.3,0.1c0.5,0.2,0.6,0.1,1.1-0.1c0.2-0.1,0.7,0.1,1,0.2c-0.2,0.1-0.4,0.2-0.6,0.3c0.2,0.1,0.4,0.1,0.6,0
			c0,0.1,0,0.1,0,0.2c-0.6,0-1.2,0.2-1.7,0.2c0.1,0.4,1,0.2,1.4,0.2c-0.2,0.2-0.1,0.4,0.2,0.3c0,0.1,0,0.1,0,0.2c0.1,0,0.1,0,0.2,0
			c-0.1,0.4-0.9,0.3-0.7,0.8c0.5-0.1,0.9-0.1,1.4-0.2c0.1,0,0.2,0.3,0.3,0.4c0.2,0.1,0.5,0.1,0.6,0.1c0.4,0.1,0.7,0.1,1.1-0.1
			c0.2-0.1,0.1-0.2,0.4-0.3c0.2,0,0.4-0.1,0.6-0.1C148.3,98.7,148.8,98.2,149.1,98.3z M144.2,89c-0.1-0.4-0.4-1.2-0.3-1.5
			c0.3-0.9,0.5-2,1.1-2.7c0.4-0.5,0.8-0.9,1.2-1.4c0.1-0.1-0.2-1.2-0.2-1.4c-0.1-0.4,0-1-0.4-1.3c-0.4-0.3-0.8-0.6-1.3-0.9
			c0.6-0.6,1.2-1.2,1.8-1.8c-0.6-0.4-1.1-0.6-1.4-1.4c-0.2-0.6,0.5-1.3,0.8-1.8c0.3-0.5,0.9-0.8,1.4-1.1c0.5-0.4,1-0.7,1.4-1.3
			c-0.2-0.1-0.3-0.3-0.5-0.4c0.6-0.1,1.2-0.1,1.7-0.4c0.6-0.4,1.3-0.7,1.9-1.1c-0.7-0.3-1.5-0.7-2.2-0.9c-0.5-0.1-1.6-0.2-2,0.2
			c-0.2,0.3-0.4,0.7-0.8,0.7c-0.4-0.1-0.9-0.1-1.3-0.2c-0.5-0.1-1.5,0.6-2,0.8c0.1-0.1,1-1.6,0.3-1.6c-0.6,0-1.1,0.1-1.6-0.3
			c0.8-0.3,1.6-0.6,2.4-0.9c-1.5-0.7-2.9-1.4-4.5-1.6c-1.8-0.3-3.6-0.6-5.4-0.4c-0.7,0.1-1.3,0.1-2,0.2c-0.2,0-0.7,0-0.9,0.1
			c-0.3,0.2-0.4,0.9-0.8,0.8c-0.5-0.1-1-0.2-1.6-0.3c-0.6-0.1-1.4-0.4-2-0.2c-0.9,0.4-1.8,0.8-2.7,1.2c0.8,0.5,1.8,0.9,2.3,1.8
			c-1.5-0.6-2.9-1-4.4-1.3c-0.5-0.1-1.2,0.1-1.6,0.2c-1.1,0.1-2.1,0.3-3.2,0.4c-0.5,0.1-1.2,0-1.6,0.2c-0.6,0.3-1.2,0.6-1.8,0.9
			c-1.5,0.8-3,1.5-4.5,2.3c0.6,0.6,1.2,0.5,2,0.6c-0.2,0.4-0.3,0.8-0.5,1.3c-0.2,0.5-0.3,0.4-0.7,0.4c-0.7,0-1.3,0.2-1.9,0.4
			c-0.9,0.3-1.7,0.5-2.6,0.8c-0.2,0.1-0.2,0.6-0.2,0.8c0,0.2,0.4,0.6,0.5,0.7c0.3,0.4,0.6,1.1,1,1.3c0.5,0.3,1,0.6,1.5,0.9
			c0.3,0.2,1,0.8,1.3,0.7c0.6-0.1,1.2-0.1,1.7-0.2c1-0.1,2,0.1,3,0.3c0.5,0.1,1.1,0.2,1.6,0.3c0.3,0,0.8,1,1,1.2
			c0.7,0.9,1.1,2,1.6,3.1c0.3,0.6,0.3,0.6,0.1,1.2c-0.2,0.6-0.5,0.9-0.1,1.3c0.4,0.5,1,0.7,0.8,1.4c-0.2,0.6-0.4,1,0,1.5
			c0.5,0.6,0.5,0.6,1.2,0.4c0.5-0.2,1.1-0.3,1.6-0.5c0,0.4-0.1,0.8-0.1,1.2c0,0.1-0.5,0.3-0.6,0.3c-0.4,0.2-0.7,0.3-1.1,0.5
			c-0.1,0-0.1,0.6-0.1,0.6c-0.1,0.5-0.4,1.4-0.2,1.9c0.3,0.7,0.5,1.5,0.8,2.2c0.4,1.2,1.2,2.2,1.9,3.3c0.4,0.6,0.8,1.3,1.2,1.9
			c0.2,0.3,0.8,0.4,1.1,0.5c0.6,0.2,1.3,0.5,1.9,0.7c0.2,0.1,1,0.1,1.1,0c0.4-1.2,0.8-2.5,1.2-3.7c0.3-1,0.7-2,1-3
			c0.2-0.5,0.2-0.5,0.7-0.7c0.6-0.2,1.3-0.4,1.9-0.6c0.4-0.1,1-0.2,1.4-0.4c0.4-0.3,0.8-1,1.1-1.4c0.3-0.4,0.4-0.6,0.8-0.7
			c0.6-0.2,1.2-0.3,1.8-0.5c0.9-0.2,1.9-0.3,2.7-0.8c1-0.6,2-1.2,3-1.8C144.3,89.7,144.4,89.7,144.2,89z M243.2,145.2
			c0.2-0.1,0.5-0.1,0.6-0.4c0-0.3,0.1-0.6,0.4-0.6c0.1-0.3,0-0.5-0.3-0.5c0,0.1,0,0.1,0,0.2c-0.7-0.4-1,0.2-1.5,0.6
			c0,0.5-0.1,0.6,0.3,0.8c0.2,0.1,0.2,0.1,0.4,0.1C243.3,145.4,243.1,145.2,243.2,145.2z M240.2,165.5c0.1-0.6,0-1.4,0.2-2
			c0.2-0.7-0.6-1.2-1-0.6c0.4-0.4,0-0.3,0-0.6c0-0.2-0.1-0.7-0.2-0.7c-0.2-0.1-0.6-0.1-0.6-0.3c-0.1-0.3,0.2-0.4,0.2-0.6
			c-0.1-0.3-0.5-0.3-0.5-0.5c0-0.4-0.1-0.2-0.4-0.4c-0.3-0.2,0-0.3-0.4-0.3c-0.3,0-0.5,0-0.6-0.2c-0.3-0.4-0.8-0.6-1.2-0.9
			c-0.3-0.3-0.8-0.6-1.1-1c-0.4-0.5-0.2-0.8-0.9-0.8c-0.2,0-1.2-0.4-1.3-0.3c-0.2,0.2,0.6,1.2,0.8,1.3c0.3,0.3,1,0.4,1,1
			c0,0.6,0.8,0.5,0.9,1.1c0.1,0.3,0.2,0.7,0.3,1c0.1,0.2,0.3,0.2,0.4,0.3c0.4,0.4,0.6,1.3,0.8,1.7c0.2,0.4,0.5,0.7,0.9,1.1
			c0.6,0.7,1.3,1.4,2,2c0-0.1,0.1-0.3,0.1-0.4C239.7,165.6,239.9,165,240.2,165.5z M241.8,162.7c-0.4-0.3-0.3,0.5-0.2,0.6
			C242.1,163.5,242.2,163,241.8,162.7z M246.1,167c-0.4,0.1-0.9-0.2-0.8-0.7c-0.3,0.1-0.9,0.1-1.1-0.2c-0.2-0.3-0.3-0.1-0.4,0.2
			c-0.1,0.2-0.3,0.1-0.4,0.1c-0.6-0.1-1,0.1-1.3-0.5c0-0.1-0.8-0.3-1-0.4c-0.1,0.3-0.3,0.1-0.5,0c-0.2-0.1-0.2,0-0.4,0.2
			c-0.5,0.5,0.2,0.6,0.5,0.7c0,0.1,0,0.2,0,0.2c0.5,0.1,0.9,0.4,1.3,0.4c0.2,0,0.5-0.1,0.7-0.1c0.2,0,0.5,0.2,0.7,0.3
			c0.2,0.1,0.4,0.2,0.6,0.2c0.2,0,0.3,0,0.5,0.1c0.1,0,0.1-0.1,0.2-0.1c0.5,0,0.7,0.2,1.2,0.1c0.3,0.1,0.6,0.3,0.9,0.4
			C246.5,167.5,246.9,166.8,246.1,167z M239.7,162.3c0.1,0.1,0.2,0.1,0.4,0.1c0.1,0,0.1,0.2,0.2,0.3c0.1,0.1,0,0.2,0.2,0.3
			c0.1,0.1,0.3,0.2,0.4,0.2c-0.1-0.1-0.1-0.3,0.1-0.4c-0.6,0-0.3-0.9-0.8-0.9c0,0.1,0,0.1,0,0.2C240,161.8,239.9,162.1,239.7,162.3z
			"/>
	</g>
</g>
<g>
	<path class="st3" d="M0,259.4V297c27.5-35.1,60.3-63.3,116.4-89.3c-7.9-1.5-15.3-4.3-22-8.3C52.6,217.9,28.4,235.2,0,259.4z"/>
	<path class="st3" d="M209.6,159.6c-1.8,0.4-3.5,0.9-5.3,1.3c-2.3,5.7-5.3,11.1-9,16c12.8-4,25.9-7.7,39.4-10.9
		c58.7-14.1,115.5-18.6,165.3-14.8v-5.4C343.9,139.2,277.9,143.2,209.6,159.6z"/>
</g>
<g>
	<g>
		<path class="st4" d="M218.9,145h-7.8l-8.2-21.7L199,145H191l6-34.4h7.9l8.2,21.7l3.8-21.7h8.1L218.9,145z"/>
		<path class="st4" d="M247.4,130.4h-12.6l-1.4,8.2h15l-1.1,6.4h-23l6-34.4h23.1l-1.1,6.4h-15l-1.3,7.3h12.7L247.4,130.4z"/>
		<path class="st4" d="M278.7,132.1l7.2-21.5h8.2L281.6,145h-8.4l-1.4-19.5l-7.4,19.5h-8.4l-1.7-34.4h7.9l0.5,21.4l7.9-21.4h6.9
			L278.7,132.1z"/>
		<path class="st4" d="M310.6,135.7c0.3-1.8-0.6-3.2-2.9-4.1l-3.9-1.6c-5.4-2.4-8-5.8-7.8-10c0.1-1.9,0.8-3.6,2-5.1
			c1.2-1.5,2.9-2.7,5-3.5c2.1-0.8,4.5-1.2,7-1.2c3.4,0.1,6.1,1.1,8.2,3c2.1,1.9,3.1,4.5,3.1,7.7h-8c0-1.3-0.2-2.4-0.8-3.2
			c-0.6-0.8-1.6-1.2-3-1.2c-1.4,0-2.6,0.3-3.6,0.9c-1,0.7-1.7,1.6-1.8,2.7c-0.3,1.6,0.9,2.9,3.5,3.9c2.6,1,4.6,1.9,5.8,2.6
			c3.8,2.3,5.5,5.3,5.3,9.1c-0.1,2-0.8,3.7-1.9,5.2c-1.2,1.5-2.7,2.7-4.8,3.5c-2,0.8-4.3,1.2-6.9,1.2c-1.9,0-3.6-0.3-5.2-0.9
			c-1.6-0.6-3-1.4-4.1-2.4c-2.3-2.1-3.4-4.9-3.3-8.4l8.1,0c-0.1,1.8,0.2,3.1,1,4c0.8,0.9,2.1,1.4,3.9,1.4c1.4,0,2.5-0.3,3.4-0.9
			C309.9,137.7,310.4,136.8,310.6,135.7z"/>
	</g>
</g>
</svg>
